<?xml version="1.0" encoding="utf-8"?>
<!-- Generator: Adobe Illustrator 16.0.0, SVG Export Plug-In . SVG Version: 6.00 Build 0)  -->
<!DOCTYPE svg PUBLIC "-//W3C//DTD SVG 1.1//EN" "http://www.w3.org/Graphics/SVG/1.1/DTD/svg11.dtd">
<svg version="1.1" id="Layer_1" xmlns="http://www.w3.org/2000/svg" xmlns:xlink="http://www.w3.org/1999/xlink" x="0px" y="0px"
	 width="66px" height="66px" viewBox="0 0 66 66" enable-background="new 0 0 66 66" xml:space="preserve">
<g>
	<g>
		<g>
			<path d="M51.069,50.418V46.82h-4.798c-3.042,0-7.172-1.346-11.728-1.346c-4.555,0-8.685,1.346-11.729,1.346h-4.746v3.598
				c0,0.112-0.25,0.227-0.25,0.342c0,2.664,7.478,4.823,16.827,4.823s16.699-2.159,16.699-4.823
				C51.344,50.645,51.069,50.53,51.069,50.418z"/>
			<ellipse fill="#003F3A" cx="34.543" cy="47.733" rx="16.927" ry="4.822"/>
			<ellipse fill="#125952" cx="34.543" cy="46.882" rx="10.738" ry="2.908"/>
			
				<ellipse transform="matrix(0.9925 -0.1226 0.1226 0.9925 -5.3638 4.0638)" fill="#1F6D64" cx="30.343" cy="45.621" rx="4.453" ry="0.933"/>
		</g>
		<g>
			<path fill="#D8D1BA" d="M51.069,46.304V42.82h-4.798c-3.042,0-7.172-1.347-11.728-1.347c-4.555,0-8.685,1.347-11.729,1.347
				h-4.746v3.483c0,0.113-0.25,0.228-0.25,0.343c0,2.662,7.478,4.822,16.827,4.822s16.699-2.16,16.699-4.822
				C51.344,46.531,51.069,46.417,51.069,46.304z"/>
			<path fill="#B7B098" d="M34.543,51.469c9.349,0,16.75-2.16,16.75-4.822c0-0.115-0.225-0.229-0.225-0.343V42.82h-4.798
				c-3.042,0-7.172-1.172-11.728-1.172"/>
			<ellipse fill="#F4F1E6" cx="34.543" cy="43.619" rx="16.927" ry="4.824"/>
			<path fill="#CEC8B2" d="M34.543,38.797c9.349,0,16.927,2.16,16.927,4.822c0,2.664-7.578,4.824-16.927,4.824"/>
			<ellipse fill="#125952" cx="34.543" cy="42.77" rx="10.738" ry="2.906"/>
			
				<ellipse transform="matrix(0.9925 -0.1226 0.1226 0.9925 -4.8595 4.0328)" fill="#1F6D64" cx="30.343" cy="41.507" rx="4.453" ry="0.933"/>
		</g>
		<g>
			<g>
				<path d="M51.344,42.51l0.126-3.291l-5.199-0.398c-3.042-1-7.172-1.348-11.728-1.348c-4.555,0-8.685,0.348-11.729,1.348h-4.746
					v3.347c0,0.113-0.25,0.228-0.25,0.343c0,2.662,7.478,4.822,16.827,4.822S51.344,45.172,51.344,42.51
					C51.344,42.395,51.344,42.623,51.344,42.51z"/>
				<ellipse fill="#003F3A" cx="34.543" cy="39.482" rx="16.927" ry="4.824"/>
				<path fill="#032B27" d="M34.543,34.66c9.349,0,16.927,2.16,16.927,4.822c0,2.664-7.578,4.824-16.927,4.824"/>
				<ellipse fill="#003F3A" cx="34.543" cy="38.633" rx="10.738" ry="2.907"/>
				<path fill="#032B27" d="M34.543,41.54c-5.931,0-10.738-1.304-10.738-2.907c0-1.607,4.808-2.909,10.738-2.909"/>
				
					<ellipse transform="matrix(0.9924 -0.1227 0.1227 0.9924 -4.3982 3.9017)" fill="#003F3A" cx="29.471" cy="37.651" rx="3.597" ry="0.754"/>
			</g>
			<path fill="#003F3A" d="M19.069,41.236v3.026c0,0.189,0,0.375,1,0.552v-3.025C19.069,41.611,19.069,41.426,19.069,41.236z"/>
			<path fill="#003F3A" d="M23.069,42.901v3.027c0,0.081,0,0.159,0,0.234v-3.025C23.069,43.061,23.069,42.983,23.069,42.901z"/>
			<path fill="#003F3A" d="M26.069,43.718v3.025c1,0.046,1,0.09,1,0.13v-3.026C27.069,43.806,27.069,43.763,26.069,43.718z"/>
			<path fill="#003F3A" d="M30.069,44.149v3.027c0,0.022,1,0.042,1,0.06V44.21C31.069,44.191,30.069,44.172,30.069,44.149z"/>
			<path fill="#003F3A" d="M34.569,44.307c-0.151,0-0.5-0.004-0.5-0.005v3.027c0,0.001,0.349,0.003,0.5,0.003s0.5-0.002,0.5-0.003
				v-3.027C35.069,44.303,34.72,44.307,34.569,44.307z"/>
			<path fill="#032B27" d="M38.069,44.21v3.026c0-0.018,0-0.037,1-0.06v-3.027C38.069,44.172,38.069,44.191,38.069,44.21z"/>
			<path fill="#032B27" d="M42.069,43.847v3.026c0-0.04,0-0.084,1-0.13v-3.025C42.069,43.763,42.069,43.806,42.069,43.847z"/>
			<path fill="#032B27" d="M46.069,43.138v3.025c0-0.075,0-0.153,0-0.234v-3.027C46.069,42.983,46.069,43.061,46.069,43.138z"/>
			<path fill="#032B27" d="M49.069,41.789v3.025c1-0.177,1-0.362,1-0.552v-3.026C50.069,41.426,50.069,41.611,49.069,41.789z"/>
			<path fill="#003F3A" d="M19.069,49.426v3.026c0,0.189,0,0.375,1,0.552v-3.026C19.069,49.801,19.069,49.615,19.069,49.426z"/>
			<path fill="#003F3A" d="M23.069,51.092v3.025c0,0.082,0,0.16,0,0.236v-3.027C23.069,51.25,23.069,51.173,23.069,51.092z"/>
			<path fill="#003F3A" d="M26.069,51.906v3.027c1,0.045,1,0.087,1,0.128v-3.025C27.069,51.995,27.069,51.952,26.069,51.906z"/>
			<path fill="#003F3A" d="M30.069,52.34v3.025c0,0.022,1,0.041,1,0.06v-3.026C31.069,52.381,30.069,52.361,30.069,52.34z"/>
			<path fill="#003F3A" d="M34.569,52.495c-0.151,0-0.5-0.003-0.5-0.004v3.026c0,0,0.349,0.004,0.5,0.004s0.5-0.003,0.5-0.003
				v-3.027C35.069,52.492,34.72,52.495,34.569,52.495z"/>
			<path fill="#032B27" d="M38.069,52.398v3.026c0-0.019,0-0.037,1-0.06V52.34C38.069,52.361,38.069,52.381,38.069,52.398z"/>
			<path fill="#032B27" d="M42.069,52.036v3.025c0-0.041,0-0.083,1-0.128v-3.027C42.069,51.952,42.069,51.995,42.069,52.036z"/>
			<path fill="#032B27" d="M46.069,51.326v3.027c0-0.076,0-0.154,0-0.236v-3.025C46.069,51.173,46.069,51.25,46.069,51.326z"/>
			<path fill="#032B27" d="M49.069,49.978v3.026c1-0.177,1-0.362,1-0.552v-3.026C50.069,49.615,50.069,49.801,49.069,49.978z"/>
		</g>
	</g>
	<g>
		<path fill="#86DBF2" d="M2.069,1.82v53.584c0,5.096,4.539,6.416,9.635,6.416h13.381c5.097,0,8.984-2.372,8.984-7.469V1.82H2.069z"
			/>
		<path fill="#21B3F4" d="M12.069,61.82h13.016c5.097,0,8.984-2.372,8.984-7.469V1.82h-29"/>
		<path fill="#2989AA" d="M5.069,1.82v51.645c0,4.118,3.803,5.355,7.92,5.355H23.8c4.116,0,7.269-2.088,7.269-6.205V1.82H5.069z"/>
		<path fill="#0C6989" d="M23.475,58.535c4.116,0,7.594-1.803,7.594-5.92V1.82h-26"/>
		<path fill="#F4EDD9" d="M5.069,13.82v39.645c0,4.118,3.803,5.355,7.92,5.355H23.8c4.116,0,7.269-2.088,7.269-6.205V13.82H5.069z"
			/>
		<path fill="#DDCEB1" d="M13.069,58.82H23.8c4.116,0,7.269-2.088,7.269-6.205V13.82h-18"/>
		<path fill="#FFFBF0" d="M10.069,52.397c0,0.605-0.393,1.097-1.001,1.097l0,0c-0.604,0-0.999-0.491-0.999-1.097V27.795
			c0-0.604,0.396-1.097,0.999-1.097l0,0c0.608,0,1.001,0.493,1.001,1.097V52.397z"/>
		<path fill="#FFFBF0" d="M10.069,24.519c0,0.117-0.245,0.559-1.001,0.559l0,0c-0.846,0-0.999-0.404-0.999-0.521v-3.986
			c0-0.119,0.228-0.712,0.999-0.712l0,0c0.831,0,1.001,0.63,1.001,0.749V24.519z"/>
		<g>
			<rect x="27.069" y="13.82" fill="#C9B597" width="2" height="19"/>
		</g>
		<circle fill="#F4EDD9" cx="23.758" cy="53.32" r="1.474"/>
		<circle fill="#F4EDD9" cx="19.41" cy="43.075" r="2.432"/>
		<circle fill="#F4EDD9" cx="20.223" cy="51.256" r="0.885"/>
		<circle fill="#F4EDD9" cx="26.411" cy="46.047" r="1.375"/>
		<circle fill="#F4EDD9" cx="22.58" cy="48.406" r="0.59"/>
		<circle fill="#F4EDD9" cx="27.148" cy="39.219" r="0.332"/>
		<circle fill="#F4EDD9" cx="24.643" cy="42.117" r="0.921"/>
	</g>
	<g>
		<g>
			<path d="M63.931,59.326l-0.034-3.523l-5.395,0.018c-3.042-1-7.172-1.346-11.728-1.346c-4.555,0-8.685,0.346-11.729,1.346
				l-5.193,0.359l0.081,3.146c0,0.112,0-0.115,0,0c0,2.664,7.536,4.823,16.884,4.823S63.931,61.99,63.931,59.326
				C63.931,59.211,63.931,59.438,63.931,59.326z"/>
			<ellipse fill="#003F3A" cx="46.774" cy="56.3" rx="16.927" ry="4.822"/>
			<ellipse fill="#125952" cx="46.775" cy="55.448" rx="10.738" ry="2.908"/>
			
				<ellipse transform="matrix(0.9925 -0.1226 0.1226 0.9925 -6.3218 5.6279)" fill="#1F6D64" cx="42.574" cy="54.188" rx="4.453" ry="0.933"/>
		</g>
		<g>
			<path fill="#D8D1BA" d="M63.931,55.213l-0.128-3.393h-5.301c-3.042-1-7.172-1.347-11.728-1.347
				c-4.555,0-8.685,0.347-11.729,1.347h-4.978v3.05c0,0.113-0.135,0.228-0.135,0.343c0,2.662,7.536,4.822,16.884,4.822
				S63.931,57.875,63.931,55.213C63.931,55.098,63.931,55.326,63.931,55.213z"/>
			<path fill="#B7B098" d="M46.775,60.035c9.349,0,17.134-2.16,17.134-4.822c0-0.115,0,0.113,0,0l0.022-3.393h-5.429
				c-3.042-1-7.172-1.389-11.728-1.389"/>
			<ellipse fill="#F4F1E6" cx="46.774" cy="52.186" rx="16.927" ry="4.824"/>
			<path fill="#CEC8B2" d="M46.775,47.363c9.349,0,16.927,2.16,16.927,4.822c0,2.664-7.578,4.824-16.927,4.824"/>
			<ellipse fill="#125952" cx="46.775" cy="51.336" rx="10.738" ry="2.906"/>
			
				<ellipse transform="matrix(0.9925 -0.1226 0.1226 0.9925 -5.8174 5.5969)" fill="#1F6D64" cx="42.574" cy="50.073" rx="4.453" ry="0.933"/>
		</g>
		<g>
			<g>
				<path d="M63.803,51.092l-0.102-3.043l-5.199-0.229c-3.042-1-7.172-1.348-11.728-1.348c-4.555,0-8.685,0.348-11.729,1.348
					l-5.199,0.229l0.087,3.027c0,0.113,0-0.115,0,0c0,2.662,7.536,4.822,16.884,4.822S63.803,53.812,63.803,51.092
					C63.803,50.977,63.803,51.205,63.803,51.092z"/>
				<ellipse fill="#003F3A" cx="46.774" cy="48.049" rx="16.927" ry="4.824"/>
				<path fill="#032B27" d="M46.775,43.227c9.349,0,16.927,2.16,16.927,4.822c0,2.664-7.578,4.824-16.927,4.824"/>
				<ellipse fill="#003F3A" cx="46.775" cy="47.199" rx="10.738" ry="2.907"/>
				<path fill="#032B27" d="M46.775,50.106c-5.931,0-10.738-1.304-10.738-2.907c0-1.607,4.808-2.909,10.738-2.909"/>
				
					<ellipse transform="matrix(0.9924 -0.1227 0.1227 0.9924 -5.3571 5.4676)" fill="#003F3A" cx="41.703" cy="46.218" rx="3.597" ry="0.754"/>
			</g>
			<path fill="#003F3A" d="M31.069,49.803l-0.003,3.014c0.253,0.282,0.501,0.333,1.003,0.61v-3.071
				C31.569,50.106,31.444,49.961,31.069,49.803z"/>
			<path fill="#003F3A" d="M31.069,57.803l-0.003,3.265c0.237,0.144,0.501,0.333,1.003,0.61v-3.322
				C31.569,58.106,31.444,57.961,31.069,57.803z"/>
			<path fill="#003F3A" d="M35.069,51.468l-0.015,3.069c0.141,0.075,0.346,0.094,1.015,0.256v-3.089
				C35.646,51.699,35.374,51.615,35.069,51.468z"/>
			<path fill="#003F3A" d="M34.069,59.468l-0.015,2.981c0.141,0.075,0.346,0.182,1.015,0.344v-3.089
				C34.646,59.699,34.543,59.57,34.069,59.468z"/>
			<path fill="#003F3A" d="M38.067,52.187l0.002,3.009c0.25,0.067,1,0.13,1,0.17v-2.952C39.069,52.372,39.067,52.231,38.067,52.187z
				"/>
			<path fill="#003F3A" d="M38.069,60.187v3.268c0,0.067,1,0.12,1,0.16v-3.201C39.069,60.372,39.069,60.231,38.069,60.187z"/>
			<path fill="#003F3A" d="M42.069,52.685v3.021c0.5,0.039,0.625,0.073,1,0.073v-3.003C43.069,52.758,43.069,52.707,42.069,52.685z"
				/>
			<path fill="#003F3A" d="M46.569,52.873c-0.151,0-0.5-0.004-0.5-0.005v3.027c0,0.001,0.349,0.003,0.5,0.003s0.5-0.002,0.5-0.003
				v-3.027C47.069,52.869,46.72,52.873,46.569,52.873z"/>
			<path fill="#032B27" d="M50.069,52.776v3.026c0-0.018,1-0.037,1-0.06v-3.027C51.069,52.738,50.069,52.758,50.069,52.776z"/>
			<path fill="#032B27" d="M54.069,52.413v3.026c0-0.04,1-0.084,1-0.13v-3.123C55.069,52.231,54.069,52.372,54.069,52.413z"/>
			<path fill="#032B27" d="M58.069,51.627v3.072c0.568-0.087,0.614-0.159,1-0.268v-3.098C58.069,51.416,58.069,51.55,58.069,51.627z
				"/>
			<path fill="#032B27" d="M62.069,50.118v3.118c0.516-0.311,0.76-0.477,1.03-0.749l-0.01-3.147
				C62.756,49.555,62.727,49.666,62.069,50.118z"/>
			<path fill="#032B27" d="M62.069,58.368v3.138c0.516-0.311,0.76-0.426,1.03-0.698l-0.009-3.218
				C62.757,57.805,62.727,57.916,62.069,58.368z"/>
			<path fill="#003F3A" d="M42.069,60.906v3.025c0.188,0.06,0.437,0.06,1,0.099v-3.065C43.069,60.947,43.069,60.928,42.069,60.906z"
				/>
			<path fill="#003F3A" d="M46.569,61.062c-0.151,0-0.5-0.003-0.5-0.004v3.092c0,0.001,0,0,0,0c0.151,0,0.307,0.069,1-0.001v-3.091
				C47.069,61.059,46.72,61.062,46.569,61.062z"/>
			<path fill="#032B27" d="M50.069,61.058v3.003c0-0.019,0.515-0.03,1-0.063v-3.031C50.928,60.966,50.069,61.04,50.069,61.058z"/>
			<path fill="#032B27" d="M54.069,60.652v3.038c0-0.041,1-0.1,1-0.145v-3.042C55.069,60.55,54.069,60.652,54.069,60.652z"/>
			<path fill="#032B27" d="M58.069,59.892v3.028c0.5-0.098,0.384-0.114,1-0.236v-3.069C58.709,59.737,58.069,59.815,58.069,59.892z"
				/>
		</g>
	</g>
	<path fill="#C3F0FC" d="M34.069,1.82L34.069,1.82c0,0.992-1.083,2-2.076,2H4.233c-0.992,0-2.164-1.007-2.164-2l0,0"/>
</g>
</svg>
