<?xml version="1.0" encoding="utf-8"?>
<!-- Generator: Adobe Illustrator 16.0.0, SVG Export Plug-In . SVG Version: 6.00 Build 0)  -->
<!DOCTYPE svg PUBLIC "-//W3C//DTD SVG 1.1//EN" "http://www.w3.org/Graphics/SVG/1.1/DTD/svg11.dtd">
<svg version="1.1" id="Layer_1" xmlns="http://www.w3.org/2000/svg" xmlns:xlink="http://www.w3.org/1999/xlink" x="0px" y="0px"
	 width="66px" height="66px" viewBox="0 0 66 66" enable-background="new 0 0 66 66" xml:space="preserve">
<g>
	<g>
		<path fill="#E3FCF7" d="M54,58V21.389C54,11.844,46.29,4,36.745,4h-7.489C19.709,4,12,11.844,12,21.389V58H54z"/>
		<path fill="#B7F7F7" d="M36.677,4h-7.489C27.31,4,26,4.271,24,4.825V58h30V21.389C54,11.844,46.222,4,36.677,4z"/>
		<path fill="#97E7EF" d="M54,58V21.389C54,11.844,46.222,4,36.677,4h-7.489C27.31,4,25.691,4.271,24,4.825"/>
		<path fill="#97E7EF" d="M44.447,25.337c0,6.357-5.158,11.515-11.515,11.515c-6.365,0-11.518-5.157-11.518-11.515
			c0-6.361,5.152-11.515,11.518-11.515C39.289,13.822,44.447,18.976,44.447,25.337z"/>
		<path fill="#6CC4D8" d="M40,37.604c0,3.82-3.181,6.917-7.001,6.917l0,0c-3.818,0-6.999-3.097-6.999-6.917v-13.5
			c0-3.819,3.181-6.916,6.999-6.916l0,0c3.82,0,7.001,3.097,7.001,6.916V37.604z"/>
		<rect x="30" y="23" fill="#6CC4D8" width="6" height="35"/>
		<path fill="#00233F" d="M48,23.5c0,2.485-2.015,4.5-4.5,4.5h-22c-2.485,0-4.5-2.015-4.5-4.5l0,0c0-2.485,2.015-4.5,4.5-4.5h22
			C45.985,19,48,21.015,48,23.5L48,23.5z"/>
		<path fill="#0B6382" d="M48,23.5c0,2.485-2.015,4.5-4.5,4.5h-22c-2.485,0-4.5-2.015-4.5-4.5l0,0c0-2.485,2.015-4.5,4.5-4.5h22
			C45.985,19,48,21.015,48,23.5L48,23.5z"/>
		<path fill="#00233F" d="M43.932,20h-22C19.586,20,17,21.139,17,23.5c0,2.295,1.66,4.5,4.932,4.5h22
			c2.346,0,4.057-1.91,4.057-4.205C47.988,21.469,46.277,20,43.932,20z"/>
		<g>
			<g>
				<path fill="#0B6382" d="M44.447,22.7c0,6.357-5.158,11.515-11.515,11.515c-6.365,0-11.518-5.157-11.518-11.515
					c0-6.361,5.152-11.515,11.518-11.515C39.289,11.186,44.447,16.339,44.447,22.7z"/>
				<path fill="#00233F" d="M24.785,14.558c4.499-4.497,11.791-4.499,16.288,0c4.499,4.496,4.499,11.784,0,16.285"/>
				<g>
					<path fill="#13D1BA" d="M40.851,22.7c0,4.375-3.547,7.923-7.918,7.923c-4.375,0-7.928-3.548-7.928-7.923
						s3.553-7.923,7.928-7.923C37.304,14.777,40.851,18.325,40.851,22.7z"/>
					<path fill="#0FAAA6" d="M32.933,14.777c4.371,0,7.918,3.548,7.918,7.923s-3.547,7.923-7.918,7.923"/>
				</g>
				<g opacity="0.6">
					<path fill="#13D1BA" d="M29.335,19.104c1.986-1.985,5.206-1.985,7.191,0c1.986,1.985,1.986,5.205,0,7.191
						c-1.985,1.99-5.205,1.99-7.191,0C27.348,24.309,27.348,21.089,29.335,19.104z"/>
					<path fill="#0FAAA6" d="M29.335,26.295c-1.987-1.986-1.987-5.206,0-7.191c1.986-1.985,5.206-1.985,7.191,0"/>
				</g>
				<g opacity="0.6">
					<path fill="#13D1BA" d="M29.335,26.299c-1.987-1.985-1.987-5.207,0-7.195c1.986-1.981,5.206-1.981,7.191,0
						c1.986,1.988,1.986,5.21,0,7.195C34.541,28.285,31.321,28.285,29.335,26.299z"/>
					<path fill="#0FAAA6" d="M36.526,26.299c-1.985,1.986-5.205,1.986-7.191,0c-1.987-1.985-1.987-5.207,0-7.195"/>
				</g>
				<path fill="#F0FFFD" d="M32.543,20.628c0,0.915-0.741,1.656-1.654,1.656c-0.917,0-1.653-0.741-1.653-1.656
					s0.736-1.656,1.653-1.656C31.802,18.972,32.543,19.713,32.543,20.628z"/>
				<path fill="#F0FFFD" d="M34.587,23.796c0,0.136-0.109,0.245-0.25,0.245c-0.136,0-0.247-0.109-0.247-0.245
					s0.111-0.247,0.247-0.247C34.478,23.549,34.587,23.66,34.587,23.796z"/>
				<path fill="#F0FFFD" d="M36.42,25.419c0,0.367-0.304,0.666-0.674,0.666c-0.366,0-0.667-0.299-0.667-0.666
					c0-0.374,0.301-0.671,0.667-0.671C36.116,24.748,36.42,25.045,36.42,25.419z"/>
			</g>
			<g>
				<g>
					<path fill="#F2F4DC" d="M31.784,13.237c0,0.16-0.133,0.292-0.292,0.292c-0.165,0-0.296-0.132-0.296-0.292
						c0-0.165,0.131-0.297,0.296-0.297C31.651,12.94,31.784,13.072,31.784,13.237z"/>
					<path fill="#F2F4DC" d="M33.225,13.237c0,0.16-0.132,0.292-0.292,0.292c-0.165,0-0.297-0.132-0.297-0.292
						c0-0.165,0.132-0.297,0.297-0.297C33.093,12.94,33.225,13.072,33.225,13.237z"/>
					<path fill="#F2F4DC" d="M34.665,13.237c0,0.16-0.133,0.292-0.293,0.292c-0.162,0-0.295-0.132-0.295-0.292
						c0-0.165,0.133-0.297,0.295-0.297C34.532,12.94,34.665,13.072,34.665,13.237z"/>
				</g>
				<g>
					<path fill="#F2F4DC" d="M31.784,32.938c0,0.162-0.133,0.294-0.292,0.294c-0.165,0-0.296-0.132-0.296-0.294
						c0-0.161,0.131-0.293,0.296-0.293C31.651,32.646,31.784,32.777,31.784,32.938z"/>
					<circle fill="#F2F4DC" cx="32.93" cy="32.938" r="0.294"/>
					<circle fill="#F2F4DC" cx="34.371" cy="32.938" r="0.294"/>
				</g>
			</g>
		</g>
		<path fill="#F9A5AF" d="M63.562,59c0,1.76,1.573,3-0.188,3H2.625c-1.761,0-0.188-1.24-0.188-3l0,0c0-1.76,1.427-3,3.188-3h54.75
			C62.136,56,63.562,57.24,63.562,59L63.562,59z"/>
		<path fill="#EA8B9B" d="M63.543,59H2.457c-0.004,0-0.02-0.064-0.02,0c0,1.76-1.573,3,0.188,3h60.75c1.761,0,0.188-1.24,0.188-3
			C63.562,58.936,63.547,59,63.543,59z"/>
		<path fill="#E3FCF7" d="M19,58.5c0,0.276-0.224,0.5-0.5,0.5h-4c-0.276,0-0.5-0.224-0.5-0.5l0,0c0-0.276,0.224-0.5,0.5-0.5h4
			C18.776,58,19,58.224,19,58.5L19,58.5z"/>
		<circle fill="#E3FCF7" cx="47.98" cy="58.437" r="0.833"/>
		<circle fill="#E3FCF7" cx="51.146" cy="58.437" r="0.833"/>
	</g>
	<g>
		<path fill="#960E08" d="M18.933,43c0.424,3,6.559,7.569,14.068,7.569S46.646,46,47.067,43H18.933z"/>
		<path fill="#770606" d="M32.973,50.569c7.51,0,13.674-4.569,14.095-7.569H33"/>
		<path fill="#CE1906" d="M37.386,37.863c-1.789,0-3.247,0.468-4.385,1.265c-1.139-0.797-2.597-1.266-4.387-1.266
			c-3.847,0-8.058,2.138-9.718,5.138h11.462h5.285h11.46C45.444,40,41.232,37.863,37.386,37.863z"/>
		<path fill="#B51104" d="M36,43h11.104c-1.659-3-5.871-5.137-9.718-5.137c-1.789,0-3.069,0.467-4.206,1.264"/>
		<path fill="#E55145" d="M27.448,38.636c0.312,0.286-0.551,1.012-1.926,1.62c-1.377,0.607-2.745,0.868-3.057,0.582
			c-0.312-0.288,0.553-1.013,1.928-1.622C25.769,38.608,27.138,38.347,27.448,38.636z"/>
		<path fill="#CE1906" d="M22.528,45.149c0.5-0.292,2.041,0.266,3.443,1.246c1.399,0.98,2.127,2.01,1.625,2.303
			c-0.503,0.293-2.044-0.266-3.443-1.246C22.753,46.474,22.026,45.44,22.528,45.149z"/>
		<path fill="#540200" d="M38.302,43c-0.626-1-2.219-1.023-3.674-1.023c-0.676,0-1.227,0.125-1.658,0.291
			c-0.43-0.166-0.98-0.305-1.658-0.305c-1.453,0-3.045,0.037-3.674,1.037h0.017c0.171,1,2.486,1.578,5.315,1.578
			c2.832,0,5.146-0.578,5.318-1.578H38.302z"/>
	</g>
	<path fill="#0B6382" d="M33.428,8.5c0,0.276-0.224,0.5-0.5,0.5l0,0c-0.276,0-0.5-0.224-0.5-0.5v-3c0-0.276,0.224-0.5,0.5-0.5l0,0
		c0.276,0,0.5,0.224,0.5,0.5V8.5z"/>
	<g>
		<g>
			<path fill="#0B6382" d="M27.462,10.985c0.195,0.195,0.195,0.512,0,0.707l0,0c-0.195,0.195-0.512,0.195-0.707,0l-2.387-2.387
				c-0.195-0.195-0.195-0.512,0-0.707l0,0c0.195-0.195,0.512-0.195,0.707,0L27.462,10.985z"/>
			<path fill="#0B6382" d="M30.132,9.491c0.08,0.264-0.069,0.543-0.333,0.623l0,0c-0.265,0.08-0.544-0.069-0.624-0.334l-0.977-3.23
				c-0.08-0.264,0.069-0.543,0.334-0.623l0,0c0.264-0.08,0.543,0.07,0.623,0.334L30.132,9.491z"/>
		</g>
		<g>
			<path fill="#0B6382" d="M38.538,10.985c-0.195,0.195-0.195,0.512,0,0.707l0,0c0.195,0.195,0.512,0.195,0.707,0l2.387-2.387
				c0.195-0.195,0.195-0.512,0-0.707l0,0c-0.195-0.195-0.512-0.195-0.707,0L38.538,10.985z"/>
			<path fill="#0B6382" d="M35.868,9.491c-0.08,0.264,0.069,0.543,0.333,0.623l0,0c0.265,0.08,0.544-0.069,0.624-0.334l0.977-3.23
				c0.08-0.264-0.069-0.543-0.334-0.623l0,0c-0.264-0.08-0.543,0.07-0.623,0.334L35.868,9.491z"/>
		</g>
	</g>
</g>
</svg>
