<?xml version="1.0" encoding="utf-8"?>
<!-- Generator: Adobe Illustrator 16.0.0, SVG Export Plug-In . SVG Version: 6.00 Build 0)  -->
<!DOCTYPE svg PUBLIC "-//W3C//DTD SVG 1.1//EN" "http://www.w3.org/Graphics/SVG/1.1/DTD/svg11.dtd">
<svg version="1.1" id="Layer_1" xmlns="http://www.w3.org/2000/svg" xmlns:xlink="http://www.w3.org/1999/xlink" x="0px" y="0px"
	 width="66px" height="66px" viewBox="0 0 66 66" enable-background="new 0 0 66 66" xml:space="preserve">
<g>
	<g>
		<path fill="#0EE0B8" d="M52.5,2h-39C11.843,2,10,3.593,10,5.25v39.965L29.774,64H52.5c1.657,0,3.5-1.593,3.5-3.25V5.25
			C56,3.593,54.157,2,52.5,2z"/>
		<path fill="#A55AE0" d="M52.5,2h-39C11.843,2,10,3.593,10,5.25v39.965L29.774,64H52.5c1.657,0,3.5-1.593,3.5-3.25V5.25
			C56,3.593,54.157,2,52.5,2z"/>
		<path fill="#964FDB" d="M56,50V5.25C56,3.593,54.157,2,52.5,2h-39c-1.657,0-3.25,1.378-3.25,3.036"/>
		<path fill="#8543D1" d="M56,50V5.25C56,3.593,54.157,2,52.5,2H28"/>
		<path fill="#964FDB" d="M27,46v14.854c0,0.215,0.197,0.423,0.241,0.625l2.393,2.344C29.804,63.854,30.06,64,30.237,64h15.694
			L27.362,46H27z"/>
		<path fill="#8543D1" d="M27,45.893v14.961c0,0.215,0.197,0.423,0.241,0.625l2.393,2.344C29.804,63.854,30.06,64,30.237,64h8.007
			l-9.131-15.1L27,45.893z"/>
		<path fill="#FFFFFF" d="M29.774,64H30V48.252C30,46.594,28.453,45,26.795,45L10,45.216L29.774,64z"/>
		<polyline fill="#ECE4F9" points="10,45.216 29.774,64 30,64 30,48 		"/>
		<g>
			<path fill="#C588FF" d="M12,45.189L12,45.189V5.25C12,3.593,13.164,2,14.821,2H13.5C11.843,2,10,3.593,10,5.25v39.965L12,45.189
				L12,45.189z"/>
		</g>
	</g>
	<g>
		<g>
			<path fill="#8543D1" d="M26.927,39.653c-0.123,0-0.245-0.047-0.339-0.141c-4.213-4.215-4.213-11.072,0-15.286
				c4.216-4.214,11.072-4.214,15.287,0c0.188,0.188,0.188,0.492,0,0.68c-0.188,0.188-0.492,0.188-0.68,0
				c-3.839-3.837-10.087-3.841-13.927,0c-3.839,3.839-3.839,10.087,0,13.927c0.187,0.188,0.187,0.491,0,0.679
				C27.173,39.606,27.051,39.653,26.927,39.653z"/>
		</g>
		<g>
			<g>
				<path fill="#8543D1" d="M31,41.558C31,42.354,30.354,43,29.559,43h-2.117C26.646,43,26,42.354,26,41.558v-2.116
					C26,38.646,26.646,38,27.441,38h2.117C30.354,38,31,38.646,31,39.442V41.558z"/>
			</g>
			<g>
				<path fill="#8543D1" d="M45,27.559C45,28.354,44.354,29,43.559,29h-2.117C40.646,29,40,28.354,40,27.559v-2.117
					C40,24.646,40.646,24,41.441,24h2.117C44.354,24,45,24.646,45,25.441V27.559z"/>
			</g>
		</g>
		<g>
			<path fill="#8543D1" d="M29,25.559C29,26.354,28.354,27,27.559,27h-2.117C24.646,27,24,26.354,24,25.559v-2.117
				C24,22.646,24.646,22,25.441,22h2.117C28.354,22,29,22.646,29,23.441V25.559z"/>
		</g>
	</g>
	<g>
		<g>
			<path fill="#FFFFFF" d="M25.727,38.452c-0.123,0-0.246-0.047-0.34-0.141c-4.213-4.214-4.213-11.072,0-15.285
				c4.216-4.214,11.072-4.214,15.287,0c0.188,0.188,0.188,0.492,0,0.679c-0.188,0.188-0.492,0.188-0.679,0
				c-3.839-3.837-10.087-3.841-13.928,0c-3.839,3.839-3.839,10.087,0,13.927c0.188,0.188,0.188,0.492,0,0.679
				C25.972,38.405,25.849,38.452,25.727,38.452z"/>
		</g>
		<g>
			<g>
				<path fill="#FFFFFF" d="M30,40.559C30,41.355,29.354,42,28.558,42h-2.116C25.646,42,25,41.355,25,40.559v-2.118
					C25,37.645,25.646,37,26.442,37h2.116C29.354,37,30,37.645,30,38.441V40.559z"/>
			</g>
			<g>
				<path fill="#FFFFFF" d="M44,25.559C44,26.355,43.354,27,42.558,27h-2.116C39.646,27,39,26.355,39,25.559v-2.118
					C39,22.645,39.646,22,40.442,22h2.116C43.354,22,44,22.645,44,23.441V25.559z"/>
			</g>
		</g>
		<g>
			<path fill="#FFFFFF" d="M28,24.558C28,25.354,27.354,26,26.559,26h-2.117C23.646,26,23,25.354,23,24.558v-2.116
				C23,21.646,23.646,21,24.441,21h2.117C27.354,21,28,21.646,28,22.442V24.558z"/>
		</g>
	</g>
</g>
</svg>
