<?xml version="1.0" encoding="utf-8"?>
<!-- Generator: Adobe Illustrator 16.0.0, SVG Export Plug-In . SVG Version: 6.00 Build 0)  -->
<!DOCTYPE svg PUBLIC "-//W3C//DTD SVG 1.1//EN" "http://www.w3.org/Graphics/SVG/1.1/DTD/svg11.dtd">
<svg version="1.1" id="Layer_1" xmlns="http://www.w3.org/2000/svg" xmlns:xlink="http://www.w3.org/1999/xlink" x="0px" y="0px"
	 width="66px" height="66px" viewBox="0 0 66 66" enable-background="new 0 0 66 66" xml:space="preserve">
<g>
	<g>
		<g>
			<g>
				<g>
					<path fill="#1A6000" d="M1.541,32.523l-0.023-0.008l-0.025,0.062l0.025,0.009c7.225,5.442,6.748,11.857,16.559,15.321
						c5.688,2.013,10.26,0.081,15.1-2.919h0.002h0.025h-0.004c-1.656-5-3.514-9.909-9.027-12.357
						C14.664,28.403,10.531,33.536,1.541,32.523z"/>
					<path fill="#239B02" d="M33,44.988h0.178h0.025h-0.004c-1.656-5-3.514-9.909-9.027-12.357
						c-9.508-4.228-13.641,0.87-22.631-0.143l-0.023,0.01l-0.025,0.071L1.43,32.481"/>
				</g>
				<g>
					<path fill="#D1432C" d="M14.039,18.569l-0.012-0.02l-0.08,0.055l0.014,0.021c2.061,8.806-4.084,15.447,2.145,23.282
						c3.611,4.543,9.789,4.263,16.715,3.49l0.052,0.003L33,45.344v-0.002c3-6.265,5.354-11.988,2.292-16.914
						C30.015,19.92,21.639,23.476,14.039,18.569z"/>
					<path fill="#EF683F" d="M32.82,45.397l0.052,0.003L33,45.344v-0.002c3-6.265,5.354-11.988,2.292-16.914
						c-5.277-8.508-13.628-4.952-21.228-9.859l-0.024-0.02l-0.086,0.055l0.01,0.021"/>
				</g>
			</g>
			<g>
				<g>
					<path fill="#1A6000" d="M64.459,32.523l0.023-0.008l0.025,0.062l-0.025,0.009c-7.225,5.442-6.75,11.857-16.559,15.321
						c-5.688,2.013-10.26,0.081-15.1-2.919h-0.002h-0.023h0.002c1.656-5,3.514-9.909,9.027-12.357
						C51.336,28.403,55.469,33.536,64.459,32.523z"/>
					<path fill="#239B02" d="M33,44.988h-0.178h-0.023h0.002c1.656-5,3.514-9.909,9.027-12.357
						c9.508-4.228,13.641,0.87,22.631-0.143l0.023,0.01l0.025,0.071l0.062-0.088"/>
				</g>
				<g>
					<path fill="#D1432C" d="M51.961,18.569l0.014-0.02l0.078,0.055l-0.014,0.021c-2.061,8.806,4.084,15.447-2.145,23.282
						c-3.611,4.543-9.789,4.263-16.715,3.49L33.128,45.4L33,45.344v-0.002c-3-6.265-5.354-11.988-2.292-16.914
						C35.985,19.92,44.361,23.476,51.961,18.569z"/>
					<path fill="#EF683F" d="M33.18,45.397L33.128,45.4L33,45.344v-0.002c-3-6.265-5.354-11.988-2.292-16.914
						c5.277-8.508,13.628-4.952,21.228-9.859l0.026-0.02l0.084,0.055l-0.01,0.021"/>
				</g>
			</g>
		</g>
		<g>
			<path fill="#DB5435" d="M33,14.772v0.216l0,0V14.772c-4,9.336-13.621,11.441-12.973,22.564C20.4,43.784,26,47.489,33,51.228
				v-0.24l0,0v0.24c7-3.739,12.602-7.444,12.973-13.892C46.623,26.213,37,24.108,33,14.772z"/>
		</g>
		<g>
			<path fill="#C43D27" d="M33,25.572v0.416l0,0V25.572c-4,9.336-13.621,0.642-12.973,11.765C20.4,43.784,26,47.489,33,51.228v-0.24
				l0,0v0.24c7-3.739,12.602-7.444,12.973-13.892C46.623,26.213,37,34.908,33,25.572z"/>
		</g>
	</g>
	<g>
		<g>
			<g>
				<path fill="#EAE9DA" d="M28.912,32.598c1.693,0,3.184,0.95,3.707,2.365c0.053,0.141,0.221,0.218,0.381,0.178
					c0.16,0.04,0.328-0.037,0.379-0.178c0.523-1.415,2.014-2.365,3.709-2.365c2.148,0,3.896,1.537,3.896,3.428
					c0,0.688-0.23,1.351-0.666,1.918c-0.004,0.004-0.006,0.009-0.008,0.014c-0.012,0.01-0.023,0.02-0.033,0.032L33,46.597
					l-7.277-8.607c-0.01-0.014-0.021-0.022-0.033-0.034c-0.004-0.004-0.006-0.008-0.008-0.012c-0.438-0.567-0.666-1.23-0.666-1.918
					C25.016,34.135,26.764,32.598,28.912,32.598z"/>
			</g>
			<g>
				<path fill="#D8D5BF" d="M33,35.141c0.16,0.04,0.328-0.037,0.379-0.178c0.523-1.415,2.014-2.365,3.709-2.365
					c2.148,0,3.896,1.537,3.896,3.428c0,0.688-0.23,1.351-0.666,1.918c-0.004,0.004-0.006,0.009-0.008,0.014
					c-0.012,0.01-0.023,0.02-0.033,0.032L33,46.597 M25.689,37.956"/>
			</g>
		</g>
	</g>
</g>
</svg>
