<?xml version="1.0" encoding="utf-8"?>
<!-- Generator: Adobe Illustrator 16.0.0, SVG Export Plug-In . SVG Version: 6.00 Build 0)  -->
<!DOCTYPE svg PUBLIC "-//W3C//DTD SVG 1.1//EN" "http://www.w3.org/Graphics/SVG/1.1/DTD/svg11.dtd">
<svg version="1.1" id="Layer_1" xmlns="http://www.w3.org/2000/svg" xmlns:xlink="http://www.w3.org/1999/xlink" x="0px" y="0px"
	 width="66px" height="66px" viewBox="0 0 66 66" enable-background="new 0 0 66 66" xml:space="preserve">
<g>
	<g>
		<path fill="#EAE9DA" d="M17.127,5.823c6.576,0,12.362,3.689,14.395,9.183c0.205,0.545,0.856,0.846,1.479,0.69
			c0.622,0.155,1.274-0.146,1.471-0.69c2.031-5.493,7.818-9.183,14.401-9.183C57.213,5.823,64,11.791,64,19.132
			c0,2.67-0.895,5.243-2.586,7.446c-0.015,0.016-0.022,0.034-0.031,0.054c-0.045,0.038-0.09,0.076-0.129,0.124L33,60.177
			L4.746,26.756c-0.039-0.052-0.083-0.086-0.13-0.132c-0.015-0.015-0.021-0.03-0.03-0.046C2.888,24.375,2,21.802,2,19.132
			C2,11.791,8.787,5.823,17.127,5.823z"/>
	</g>
	<g>
		<path fill="#DB5435" d="M17.127,5.823c6.576,0,12.362,3.689,14.395,9.183c0.205,0.545,0.734,0.665,1.479,0.69
			c0.622,0.155,1.274-0.146,1.471-0.69c2.031-5.493,7.818-9.183,14.401-9.183C57.213,5.823,64,11.791,64,19.132
			c0,2.67-0.895,5.243-2.586,7.446c-0.015,0.016-0.022,0.034-0.031,0.054c-0.045,0.038-0.09,0.076-0.129,0.124L33,60.177
			L4.746,26.756c-0.039-0.052-0.083-0.086-0.13-0.132c-0.015-0.015-0.021-0.03-0.03-0.046C2.888,24.375,2,21.802,2,19.132
			C2,11.791,8.787,5.823,17.127,5.823z"/>
	</g>
	<path fill="#EFDFAB" d="M37.408,12.35c0.493-0.525,0.67-1.316,0.014-1.941c-1.067,1.084-1.941,2.331-2.575,3.706
		C35.875,13.605,36.943,12.928,37.408,12.35z"/>
	<g>
		<path fill="#C43D27" d="M53.167,6.378c-1.362-0.355-2.803-0.555-4.295-0.555c-6.583,0-12.37,3.689-14.401,9.183
			c-0.197,0.545-0.643,0.713-1.471,0.69v10.851L53.167,6.378z"/>
		<path fill="#C43D27" d="M33,31.131v11.284l29.331-29.331c-1.32-2.269-3.357-4.152-5.849-5.435L33,31.131z"/>
		<path fill="#C43D27" d="M33,47v13.177l28.254-33.421c0.039-0.048,0.083-0.086,0.129-0.124c0.009-0.02,0.016-0.038,0.031-0.054
			C63.105,24.375,64,21.802,64,19.132c0-0.959-0.121-1.891-0.341-2.792L33,47z"/>
	</g>
	<path fill="#EFDFAB" d="M42.179,39.262c1.073,1.19,2.914,1.284,4.108,0.207c1.191-1.078,1.288-2.917,0.211-4.109L35.829,23.541l0,0
		l-5.405-5.985l0.065,0.054l-2.887-3.199l3.809,0.335l0,0l1.22,0.107c0.788,0.093,3.888-1.397,4.778-2.503
		c0.912-0.976,0.773-2.86-3.821-2.907L22.116,6.571c-1.572-0.483-3.251-0.748-4.989-0.748C8.787,5.823,2,11.791,2,19.132
		c0,2.67,0.888,5.243,2.586,7.446c0.008,0.016,0.015,0.031,0.03,0.046c0.046,0.046,0.091,0.08,0.13,0.132l12.426,14.696l6.075,6.73
		c1.077,1.194,2.918,1.289,4.11,0.21c1.194-1.076,1.289-2.919,0.212-4.111l-7.626-8.444l0.631-0.578l11.453,12.685
		c1.076,1.192,2.917,1.286,4.109,0.21c1.196-1.077,1.288-2.92,0.21-4.11l-11.482-12.72l0.63-0.578l13.758,15.237
		c1.078,1.194,2.918,1.288,4.111,0.209c1.193-1.074,1.287-2.915,0.209-4.111L29.783,26.809l0.63-0.579L42.179,39.262z"/>
	<path fill="#E2CF9F" d="M17.172,41.452l6.075,6.73c1.077,1.194,2.918,1.289,4.11,0.21c1.194-1.076,1.289-2.919,0.212-4.111
		l-7.626-8.444l0.631-0.578l11.453,12.685c1.076,1.192,2.917,1.286,4.109,0.21c1.196-1.077,1.288-2.92,0.21-4.11l-11.482-12.72
		l0.63-0.578l13.758,15.237c1.078,1.194,2.918,1.288,4.111,0.209c1.193-1.074,1.287-2.915,0.209-4.111L29.783,26.809l0.63-0.579
		l11.766,13.032c1.073,1.19,2.914,1.284,4.108,0.207c1.191-1.078,1.288-2.917,0.211-4.109L35.829,23.541l0,0l-5.405-5.985
		l0.065,0.054l-2.887-3.199l3.809,0.335l0,0l1.22,0.107c0.788,0.093,3.888-1.397,4.778-2.503c0.912-0.976,0.773-2.86-3.821-2.907
		L22.116,6.571c-1.572-0.483-3.251-0.748-4.989-0.748"/>
	<path fill="#DBC791" d="M4.586,26.578c0.008,0.016,0.015,0.031,0.03,0.046"/>
</g>
</svg>
