<?xml version="1.0" encoding="utf-8"?>
<!-- Generator: Adobe Illustrator 16.0.0, SVG Export Plug-In . SVG Version: 6.00 Build 0)  -->
<!DOCTYPE svg PUBLIC "-//W3C//DTD SVG 1.1//EN" "http://www.w3.org/Graphics/SVG/1.1/DTD/svg11.dtd">
<svg version="1.1" id="Layer_1" xmlns="http://www.w3.org/2000/svg" xmlns:xlink="http://www.w3.org/1999/xlink" x="0px" y="0px"
	 width="66px" height="66px" viewBox="0 0 66 66" enable-background="new 0 0 66 66" xml:space="preserve">
<g>
	<ellipse fill="#C68D1A" cx="33" cy="36.006" rx="11.25" ry="3.688"/>
	<g>
		<polygon fill="#E28F71" points="43.239,57 22.99,57 22.474,35 43.527,35 		"/>
		<path fill="#FFDC6C" d="M60.388,40.821l-15.194-5.224l0.321,0.153l-1.987-0.827c-0.793,2.592-5.198,5.348-10.527,5.348
			c-5.331,0-9.734-2.75-10.526-5.342l-1.99,0.835l0.322-0.138L5.612,40.821L2.729,62h3.842h19.592h5.941h1.791h6.217h19.316h3.842
			L60.388,40.821z"/>
		<path fill="#EABC49" d="M14,62h12.163h5.941h1.791h6.217h19.316h3.842l-2.883-21.179l-15.194-5.224l0.321,0.153l-1.987-0.827
			c-0.793,3.592-5.198,5.348-10.527,5.348c-5.331,0-9.458-2.586-10.526-5.342l-1.99,0.835l0.322-0.138L5.612,40.821"/>
		<path fill="#DDA528" d="M32,62h1.896h6.217h19.316h3.842l-2.883-21.179l-15.194-5.224l0.321,0.153l-1.987-0.827
			c-0.793,2.592-5.25,5.288-10.58,5.288"/>
		<polyline fill="#C68D1A" points="55,62 59.429,62 63.271,62 60.527,40.762 		"/>
		<g>
			<g>
				<g>
					<g>
						<g>
							<g>
								<polygon fill="#F9BDA0" points="40.655,37.686 25.784,35.287 26.578,25 39.65,25 								"/>
								<polygon fill="#E28F71" points="40.657,37.686 34.681,39.496 25.573,25 39.651,25 								"/>
								<path fill="#FCCCB9" d="M42.438,16.838c0-8.754-3.515-11.803-9.515-11.838L33,4.355v0.002V4.355v0.004
									c-6,0.035-9.464,3.634-9.464,12.388S27,33.359,33,33.547v0.018v-0.008v0.008v-0.018C39,33.359,42.438,25.592,42.438,16.838z
									"/>
								<path fill="#F9BDA0" d="M33,34v-0.436v-0.008v0.008v-0.018c6-0.188,9.438-7.955,9.438-16.709S39.22,5.208,33.22,5.173
									L33,4.355v0.002V4.355V4"/>
								<path fill="#D6D6D6" d="M33.116,56.059"/>
							</g>
						</g>
					</g>
					<g>
						<path fill="#77502A" d="M22.989,14.035c-0.541-0.238-0.434-3.842,0.043-4.928c0.479-1.088,1.307-0.775,1.846-0.537
							c0.543,0.238,2.992,2.598,2.117,3.398"/>
					</g>
					<g>
						<g>
							<path fill="#00233F" d="M27.476,27.043c-0.025-0.029-0.039-0.047-0.039-0.047S27.446,27.023,27.476,27.043z"/>
						</g>
						<g>
							<path fill="#00233F" d="M38.753,27.043c0.025-0.029,0.039-0.047,0.039-0.047S38.782,27.023,38.753,27.043z"/>
						</g>
					</g>
					<path fill="#037193" d="M33.114,8.918"/>
				</g>
			</g>
		</g>
	</g>
	<g>
		<path fill="#77502A" d="M25.028,12.986c0,0,0.779,2.338-0.314,3.742c0,0-0.312,0.156-0.387,0.857
			c-0.08,0.701,0.746,2.748,1.564,6.723c0.271,1.318,1.004,4.895,3.189,3.646l0.518,0.234c0,0-0.599,3.041,3.401,2.963v2.729
			c0,0-4.026,0.389-6.833-3.51c-2.809-3.896-2.988-9.432-2.91-12.551c0.08-3.119-0.987-4.682-0.362-5.773
			C23.519,10.957,25.028,12.986,25.028,12.986z"/>
		<path fill="#5E3A1C" d="M40.972,12.986c0,0-0.779,2.338,0.312,3.742c0,0,0.312,0.156,0.389,0.857
			c0.08,0.701-0.746,2.748-1.564,6.723c-0.27,1.318-1.006,4.895-3.188,3.646l-0.518,0.234c0,0,0.597,3.041-3.403,2.963v2.729
			c0,0,4.028,0.389,6.833-3.51c2.807-3.896,2.986-9.432,2.91-12.551c-0.08-3.119,0.985-4.682,0.362-5.773
			C42.481,10.957,40.972,12.986,40.972,12.986z"/>
		<path fill="#5E3A1C" d="M42.612,14.012c0.543-0.24,1.441-3.844,0.965-4.93c-0.477-1.084-1.301-0.771-1.844-0.531
			c-0.541,0.238-2.994,2.6-2.119,3.398"/>
	</g>
	<g>
		<g>
			<g>
				<circle fill="#BADADD" stroke="#13475E" stroke-miterlimit="10" cx="29.24" cy="18.521" r="2.202"/>
				
					<line fill="#A7C5C9" stroke="#13475E" stroke-linecap="round" stroke-linejoin="round" stroke-miterlimit="10" x1="25" y1="18.5" x2="27" y2="18.5"/>
			</g>
			<g>
				<circle fill="#7DA7AA" stroke="#13475E" stroke-miterlimit="10" cx="36.76" cy="18.521" r="2.202"/>
				
					<line fill="#A7C5C9" stroke="#13475E" stroke-linecap="round" stroke-linejoin="round" stroke-miterlimit="10" x1="41" y1="18.5" x2="39" y2="18.5"/>
			</g>
		</g>
		<path fill="none" stroke="#13475E" stroke-linecap="round" stroke-miterlimit="10" d="M31.56,19.25
			c0-0.795,0.645-1.439,1.441-1.439s1.439,0.645,1.439,1.439"/>
	</g>
	<g>
		<g>
			<path fill="#7C4615" d="M28.187,27.404c-0.02-0.027-0.031-0.047-0.031-0.047S28.163,27.385,28.187,27.404z"/>
			<path fill="#77502A" d="M33,24.553c-1-0.053-2.486,0.037-3.423,1.432c-0.996,1.475-1.302,1.49-1.394,1.42
				c0.146,0.184,0.781,0.793,2.392-0.199C31.725,26.496,33,26.404,33,26.434V24.553z"/>
		</g>
		<g>
			<path fill="#7C4615" d="M37.812,27.404c0.021-0.027,0.033-0.047,0.033-0.047S37.835,27.385,37.812,27.404z"/>
			<path fill="#5E3A1C" d="M33,24.553c1-0.053,2.481,0.037,3.422,1.432c0.996,1.475,1.305,1.49,1.393,1.42
				c-0.145,0.184-0.784,0.793-2.391-0.199C34.275,26.496,33,26.404,33,26.434V24.553z"/>
		</g>
	</g>
	<g>
		<g>
			<path fill="#EABC49" d="M43.296,46.439c-2.248,6.559-10.863,10.018-19.754,7.76c-0.445-0.111-0.882-0.242-1.312-0.379
				c1.371,2.959,4.01,5.297,7.418,6.162c6.003,1.523,12.104-2.107,13.627-8.111C43.741,50.025,43.722,48.168,43.296,46.439z"/>
			<path fill="#FFDC6C" d="M22.317,53.904c11.252,8.225,19.572,0.355,21.191-6.34c-0.053-0.379-0.123-0.754-0.213-1.125
				c-2.248,6.559-10.863,10.018-19.754,7.76c-0.445-0.111-0.882-0.242-1.312-0.379"/>
			<path fill="#FCF7C5" d="M22.334,53.924c9.956,3.918,18.604-0.186,21.14-6.58c-0.051-0.305-0.105-0.605-0.178-0.904
				c-2.248,6.559-10.863,10.018-19.754,7.76c-0.445-0.111-0.882-0.242-1.312-0.379"/>
			<path fill="#562300" d="M43.485,47.242l0.116-0.746c0.022-0.145-0.077-0.279-0.222-0.303c-0.145-0.021-0.28,0.076-0.303,0.221
				L42.96,47.16c-0.232,0.064-0.416,0.258-0.458,0.514l-0.12,0.77l1.258,0.197l0.122-0.771
				C43.803,47.615,43.685,47.377,43.485,47.242z"/>
			<path fill="#281000" d="M42.913,48.521l0.727,0.119l0.122-0.771c0.041-0.254-0.077-0.492-0.276-0.627l0.116-0.746
				c0.022-0.145-0.077-0.279-0.222-0.303"/>
			<path fill="#8C4719" d="M42.749,47.414c-0.096,0.109-0.145,0.223-0.111,0.246c0.031,0.031,0.132-0.039,0.225-0.148
				c0.094-0.109,0.143-0.219,0.113-0.248C42.944,47.238,42.841,47.305,42.749,47.414z"/>
			<path fill="#8C4719" d="M23.878,54.279c-0.113-0.027-0.223-0.051-0.336-0.08c-0.445-0.111-0.882-0.242-1.312-0.379
				c0.223,0.482,0.483,0.943,0.771,1.389C23.356,54.996,23.662,54.676,23.878,54.279z"/>
			<path fill="#281000" d="M22.229,53.82c0.223,0.482,0.483,0.943,0.771,1.389c0.198-0.119,0.381-0.271,0.542-0.451"/>
		</g>
		<path fill="#FFC200" d="M35.905,56.918"/>
		<path fill="#FFC200" d="M36.907,57.172"/>
		<path fill="#FFC200" d="M36.952,56.592"/>
		<line fill="#FFC200" x1="36.919" y1="56.074" x2="37.458" y2="56.297"/>
	</g>
	<path fill="#77502A" d="M36.722,8.5c0,2.434-1.734,4.5-3.875,4.5h-7.635c-2.141,0-3.875-2.066-3.875-4.5l0,0
		c0-2.434,1.734-4.5,3.875-4.5h7.635C34.987,4,36.722,6.066,36.722,8.5L36.722,8.5z"/>
	<path fill="#5E3A1C" d="M43.534,9c0,2.244-1.6,4-3.572,4h-7.039c-1.975,0-3.573-1.756-3.573-4l0,0c0-2.244,1.599-4,3.573-4h7.039
		C41.935,5,43.534,6.756,43.534,9L43.534,9z"/>
</g>
</svg>
