<?xml version="1.0" encoding="utf-8"?>
<!-- Generator: Adobe Illustrator 16.0.0, SVG Export Plug-In . SVG Version: 6.00 Build 0)  -->
<!DOCTYPE svg PUBLIC "-//W3C//DTD SVG 1.1//EN" "http://www.w3.org/Graphics/SVG/1.1/DTD/svg11.dtd">
<svg version="1.1" id="Layer_1" xmlns="http://www.w3.org/2000/svg" xmlns:xlink="http://www.w3.org/1999/xlink" x="0px" y="0px"
	 width="66px" height="66px" viewBox="0 0 66 66" enable-background="new 0 0 66 66" xml:space="preserve">
<g>
	<g>
		<g>
			<path fill="#00233F" d="M31,3.776C31,2.653,29.791,2,28.666,2H16.361C15.24,2,14,2.653,14,3.776V31h17V3.776z"/>
			<path fill="#123866" d="M16.361,2C15.24,2,14,2.653,14,3.776V31h17"/>
		</g>
		<rect x="14" y="31" fill="#DB681B" width="17" height="4"/>
		<polyline fill="#CC360D" points="31,35 31,31 14,31 		"/>
		<g>
			<path fill="#123866" d="M14,62.225C14,63.348,15.241,64,16.365,64h12.306C29.792,64,31,63.348,31,62.225V35H14V62.225z"/>
			<path fill="#00233F" d="M28.671,64C29.792,64,31,63.348,31,62.225V35H14"/>
		</g>
		<path fill="#316A99" d="M18,27.835c0,0.526-0.475,0.951-1,0.951l0,0c-0.525,0-1-0.425-1-0.951V9.124c0-0.524,0.475-0.949,1-0.949
			l0,0c0.525,0,1,0.425,1,0.949V27.835z"/>
		<path fill="#316A99" d="M18,54.713c0,0.295-0.475,0.533-1,0.533l0,0c-0.525,0-1-0.238-1-0.533V44.229c0-0.295,0.475-0.531,1-0.531
			l0,0c0.525,0,1,0.236,1,0.531V54.713z"/>
	</g>
	<g>
		<polygon fill="#930700" points="49,22 38,22 38,9.906 49,4.149 		"/>
		<polyline fill="#6D0101" points="38.088,9.938 49,4.149 49,22 		"/>
		<rect x="37" y="18" fill="#8FC9C3" width="13" height="16"/>
		<rect x="43" y="18" fill="#7DAFA9" width="7" height="16"/>
		<g>
			<rect x="35" y="31" fill="#DB681B" width="17" height="4"/>
			<polyline fill="#CC360D" points="52,35 52,31 35,31 			"/>
			<g>
				<path fill="#123866" d="M35,62.225C35,63.348,36.209,64,37.332,64h12.305C50.76,64,52,63.348,52,62.225V35H35V62.225z"/>
				<path fill="#00233F" d="M49.637,64C50.76,64,52,63.348,52,62.225V35H35"/>
			</g>
			<path fill="#316A99" d="M39,54.713c0,0.295-0.475,0.533-0.999,0.533l0,0c-0.525,0-1.001-0.238-1.001-0.533V44.229
				c0-0.295,0.476-0.531,1.001-0.531l0,0c0.524,0,0.999,0.236,0.999,0.531V54.713z"/>
		</g>
		<rect x="38" y="19" fill="#C3E5DF" width="2" height="11"/>
		<path fill="#7DAFA9" d="M51,17.526C51,17.788,50.789,18,50.529,18H36.471C36.211,18,36,17.788,36,17.526v-0.053
			C36,17.212,36.211,17,36.471,17h14.059C50.789,17,51,17.212,51,17.474V17.526z"/>
		<path fill="#F74141" d="M49,3.879c0.297,0.548-1.961,2.47-4.962,4.086c-3.003,1.62-5.677,2.49-5.974,1.943
			c-0.292-0.549,1.902-2.309,4.906-3.924C45.969,4.364,48.704,3.333,49,3.879z"/>
		<path fill="#C61C18" d="M44.038,7.966c-3.003,1.62-5.741,2.653-6.038,2.106c-0.292-0.549,1.967-2.472,4.971-4.087"/>
		<path fill="#C61C18" d="M40,15.5c0,0.276-0.224,0.5-0.5,0.5l0,0c-0.276,0-0.5-0.224-0.5-0.5v-4c0-0.276,0.224-0.5,0.5-0.5l0,0
			c0.276,0,0.5,0.224,0.5,0.5V15.5z"/>
	</g>
</g>
</svg>
