<?xml version="1.0" encoding="utf-8"?>
<!-- Generator: Adobe Illustrator 16.0.0, SVG Export Plug-In . SVG Version: 6.00 Build 0)  -->
<!DOCTYPE svg PUBLIC "-//W3C//DTD SVG 1.1//EN" "http://www.w3.org/Graphics/SVG/1.1/DTD/svg11.dtd">
<svg version="1.1" id="Layer_1" xmlns="http://www.w3.org/2000/svg" xmlns:xlink="http://www.w3.org/1999/xlink" x="0px" y="0px"
	 width="66px" height="66px" viewBox="0 0 66 66" enable-background="new 0 0 66 66" xml:space="preserve">
<g>
	<ellipse fill="#E28F71" cx="32.839" cy="44.833" rx="6.167" ry="6.25"/>
	<g>
		<g>
			<path fill="#00233F" d="M19.09,20.15c0,0,1.543,9.382,0.13,12.596c0,0,3.213,4.884,7.197,4.627l3.984-4.627l-0.644-14.781
				L19.09,20.15z"/>
			<path fill="#00233F" d="M46.253,20.15c0,0-1.544,9.382-0.13,12.596c0,0-3.212,4.884-7.197,4.627l-3.984-4.627l0.644-14.781
				L46.253,20.15z"/>
			<path fill="#00233F" d="M45.809,13.5c0,8.553,3.515,10.5-10.521,10.5h-5.173c-5.812,0-10.524-4.688-10.524-10.5l0,0
				C19.59,7.688,24.302,3,30.114,3h5.173C41.099,3,45.809,7.688,45.809,13.5L45.809,13.5z"/>
			<g>
				<rect x="26" y="29" fill="#F9BDA0" width="13" height="14"/>
				<polygon fill="#E28F71" points="39,43.071 32.137,44.39 26.017,29 39,29 				"/>
			</g>
			<g>
				<path fill="#FCCCB9" d="M43.353,17.004c0,10.268-5.206,19.556-10.651,19.556s-10.652-9.288-10.652-19.556
					c0-10.267,5.207-11.977,10.652-11.977S43.353,6.737,43.353,17.004z"/>
				<path fill="#F9BDA0" d="M32.701,5.027c5.445,0,10.651,1.71,10.651,11.977c0,10.268-5.206,19.556-10.651,19.556"/>
			</g>
			<g>
				<g>
					<g>
						<polygon fill="#C61867" points="25.271,42.051 6.481,48.883 0.819,63.507 32,63.507 						"/>
						<polygon fill="#750C41" points="25.271,41.797 9.933,50.425 6.481,63 31.865,63 						"/>
						<polygon fill="#D6D6D6" points="25.202,40.842 20.841,42.691 20.998,58.322 32,63.507 32,45.822 						"/>
						<polygon fill="#FFFFFF" points="25.306,40.842 32.705,45.822 24.023,50.377 						"/>
					</g>
				</g>
				<g>
					<g>
						<polygon fill="#C61867" points="40.131,42.051 58.918,48.883 64.581,63.507 33.191,63.507 						"/>
						<polygon fill="#750C41" points="40.131,41.797 55.467,50.425 58.918,63 33.191,63 						"/>
						<polygon fill="#D6D6D6" points="39.999,40.842 44.46,42.691 44.154,58.322 33,63.507 33,45.822 						"/>
						<polygon fill="#FFFFFF" points="40.095,40.842 32.694,45.822 41.375,50.377 						"/>
					</g>
				</g>
			</g>
			<path fill="#00233F" d="M37.728,3.056c0,0-4.372,17.737-19.279,18.765c0,0-1.673-10.796,2.699-15.423
				c4.369-4.627,12.208-3.856,12.208-3.856L37.728,3.056z"/>
			<path fill="#00233F" d="M30.289,3.047c0,0,3.063,16.176,16.431,17.832c0,0,2.033-9.634-1.671-14.013
				c-3.707-4.378-10.8-4.068-10.8-4.068L30.289,3.047z"/>
		</g>
		<g>
			<circle fill="#B5750F" cx="32.7" cy="50.695" r="2.505"/>
			<circle fill="#DD981D" cx="32.7" cy="50.375" r="2.505"/>
			<path fill="#CE8106" d="M32.7,47.868c1.384,0,2.505,1.122,2.505,2.507c0,1.384-1.121,2.506-2.505,2.506"/>
			<circle fill="#EFB65B" cx="32.701" cy="50.375" r="1.615"/>
			<path fill="#E2A750" d="M33.842,49.232c0.632,0.631,0.632,1.654,0,2.284c-0.63,0.631-1.652,0.631-2.285,0"/>
		</g>
		<g>
			<circle fill="#B5750F" cx="32.7" cy="58.406" r="2.505"/>
			<circle fill="#DD981D" cx="32.7" cy="58.086" r="2.505"/>
			<path fill="#CE8106" d="M32.7,55.58c1.384,0,2.505,1.122,2.505,2.506c0,1.385-1.121,2.506-2.505,2.506"/>
			<circle fill="#EFB65B" cx="32.701" cy="58.086" r="1.615"/>
			<path fill="#E2A750" d="M33.842,56.943c0.632,0.632,0.632,1.654,0,2.285c-0.63,0.631-1.652,0.631-2.285,0"/>
		</g>
	</g>
	<g>
		<g>
			<path fill="#E2997D" d="M24.811,19.629L24.811,19.629c-0.482,1.305,0.031,3.503,1.715,3.877c1.686,0.374,3.9-1.216,4.385-2.521
				l0,0L24.811,19.629z"/>
			<path fill="#BA2525" d="M24.811,19.629L24.811,19.629c-0.482,1.305,0.492,2.666,2.176,3.04c1.686,0.374,3.439-0.379,3.924-1.685
				l0,0L24.811,19.629z"/>
			<path fill="#E01E1E" d="M24.811,19.629c-0.482,1.305,0.76,2.095,2.443,2.469c1.684,0.373,3.172,0.192,3.656-1.113"/>
			<polygon fill="#00233F" points="31.402,21.177 23.613,19.328 25.174,18.021 31.865,20.66 			"/>
			<path fill="#FFFFFF" d="M28.301,21.128c-0.025,0.237-0.295,0.411-0.6,0.392c-0.307-0.02-0.531-0.229-0.506-0.464
				c0.025-0.238,0.295-0.412,0.6-0.393C28.1,20.686,28.326,20.891,28.301,21.128z"/>
		</g>
		<g>
			<path fill="#E2997D" d="M40.59,19.629L40.59,19.629c0.482,1.305-0.031,3.503-1.715,3.877c-1.686,0.374-3.9-1.216-4.383-2.521l0,0
				L40.59,19.629z"/>
			<path fill="#BA2525" d="M40.59,19.629L40.59,19.629c0.482,1.305-0.49,2.666-2.176,3.04c-1.684,0.374-3.439-0.379-3.922-1.685l0,0
				L40.59,19.629z"/>
			<path fill="#E01E1E" d="M40.59,19.629c0.482,1.305-0.758,2.095-2.443,2.469c-1.684,0.373-3.172,0.192-3.654-1.113"/>
			<polygon fill="#00233F" points="33.998,21.177 41.787,19.328 40.227,18.021 33.535,20.66 			"/>
			<path fill="#FFFFFF" d="M37.1,21.128c0.025,0.237,0.295,0.411,0.602,0.392c0.305-0.02,0.531-0.229,0.504-0.464
				c-0.025-0.238-0.295-0.412-0.6-0.393C37.301,20.686,37.074,20.891,37.1,21.128z"/>
		</g>
	</g>
	<g>
		<path fill="#E01E1E" d="M36.604,30.915c0,2.716-1.748,2.917-3.904,2.917c-2.154,0-3.902-0.201-3.902-2.917
			c0-2.715,1.748-3.916,3.902-3.916C34.855,26.999,36.604,28.2,36.604,30.915z"/>
		<path fill="#821212" d="M28.797,30.915c0-2.715,1.748-3.916,3.902-3.916c2.156,0,3.904,1.201,3.904,3.916"/>
	</g>
	<circle fill="#E01E1E" cx="58.922" cy="32.832" r="2.875"/>
	<circle fill="#E01E1E" cx="50.609" cy="26.52" r="0.312"/>
	<circle fill="#E01E1E" cx="51.297" cy="33.707" r="0.5"/>
	<circle fill="#E01E1E" cx="14.297" cy="29.832" r="3"/>
	<circle fill="#E01E1E" cx="6.234" cy="36.02" r="0.688"/>
	<circle fill="#E01E1E" cx="16.734" cy="39.395" r="0.562"/>
	<circle fill="#E01E1E" cx="10.859" cy="14.145" r="2.688"/>
	<circle fill="#E01E1E" cx="6.609" cy="21.77" r="0.688"/>
	<circle fill="#E01E1E" cx="55.672" cy="20.207" r="1.625"/>
	<circle fill="#E01E1E" cx="55.797" cy="27.457" r="0.75"/>
	<circle fill="#E01E1E" cx="49.922" cy="20.082" r="0.375"/>
	<circle fill="#E01E1E" cx="50.297" cy="12.582" r="0.625"/>
	<polygon fill="#E01E1E" points="10.422,59.707 17.047,54.082 16.422,56.332 19.547,53.707 15.297,58.582 14.672,57.457 
		13.297,58.707 	"/>
	<polygon fill="#E01E1E" points="9.047,55.832 15.672,50.207 15.047,52.457 18.172,49.832 13.922,54.707 13.297,53.582 
		11.922,54.832 	"/>
	<polygon fill="#C61867" points="50.423,46.832 50.923,42.499 51.756,44.499 54.589,39.832 54.589,45.499 59.589,41.665 
		56.423,46.332 59.923,44.999 56.923,49.332 	"/>
	<path fill="#C61867" d="M17.589,44.665l-5.166-5.166l1.166,3.833c0,0-5-0.501-4-0.167s2.167,1.667,2.167,1.667l-2.167,0.833
		l1.667,1.5l2.167,0.5l3.333-1.666L17.589,44.665z"/>
	<polygon fill="#E01E1E" points="37.005,55.666 41.339,54.916 40.089,56.416 43.589,56.499 39.005,57.916 38.422,56.249 
		35.672,56.083 	"/>
</g>
</svg>
