<?xml version="1.0" encoding="utf-8"?>
<!-- Generator: Adobe Illustrator 16.0.0, SVG Export Plug-In . SVG Version: 6.00 Build 0)  -->
<!DOCTYPE svg PUBLIC "-//W3C//DTD SVG 1.1//EN" "http://www.w3.org/Graphics/SVG/1.1/DTD/svg11.dtd">
<svg version="1.1" id="Layer_1" xmlns="http://www.w3.org/2000/svg" xmlns:xlink="http://www.w3.org/1999/xlink" x="0px" y="0px"
	 width="66px" height="66px" viewBox="0 0 66 66" enable-background="new 0 0 66 66" xml:space="preserve">
<g>
	<g>
		<g>
			<g>
				<g>
					<g>
						<g>
							<g>
								<g>
									<g>
										<g>
											<g>
												<g>
													<path fill="#1BCEB8" d="M64,61.617C64,62.934,62.934,64,61.617,64H4.381C3.066,64,2,62.934,2,61.617V4.382
														C2,3.066,3.066,2,4.381,2h57.236C62.934,2,64,3.066,64,4.382V61.617z"/>
													<path fill="#0DBFBA" d="M59.907,62.029c1.238,0,2.093-1.066,2.093-2.307V12H4"/>
													<g>
														<path fill="#FDFFFF" d="M51.393,7.001C51.393,8.198,50.419,9,49.22,9H6.001C4.804,9,5.028,8.198,5.028,7.001l0,0
															C5.028,5.801,4.804,5,6.001,5H49.22C50.419,5,51.393,5.801,51.393,7.001L51.393,7.001z"/>
														<path fill="#E6F3F4" d="M5.028,7.053L5.028,7.053C5.028,5.853,4.804,5,6.001,5H49.22c1.199,0,2.173,0.912,2.173,2.112
															l0,0"/>
													</g>
													<g>
														<g>
															<circle opacity="0.4" fill="#B1BCBC" cx="55.34" cy="7.159" r="1.137"/>
															<circle fill="#FFFFFF" cx="55.34" cy="6.705" r="1.137"/>
															<path fill="#E8EFEE" d="M54.537,5.9c0.444-0.441,1.164-0.442,1.608,0c0.444,0.445,0.444,1.165,0,1.609"/>
														</g>
														<g>
															<circle opacity="0.4" fill="#B1BCBC" cx="59.822" cy="7.159" r="1.137"/>
															<circle fill="#FFFFFF" cx="59.822" cy="6.705" r="1.137"/>
															<path fill="#E8EFEE" d="M59.019,5.9c0.444-0.441,1.164-0.442,1.608,0c0.444,0.445,0.444,1.165,0,1.609"/>
														</g>
													</g>
													<path fill="#1BCEB8" d="M14.629,6.011c-0.025-0.038-0.07-0.06-0.116-0.06h-0.301c-0.063,0-0.121,0.044-0.14,0.105
														l-0.239,0.84c-0.002,0.006-0.002,0.011-0.004,0.013c-0.003-0.004-0.005-0.013-0.007-0.018l-0.258-0.839
														c-0.02-0.06-0.074-0.102-0.14-0.102h-0.256c-0.062,0-0.117,0.042-0.138,0.102l-0.275,0.866c0,0,0,0-0.002,0.002
														c0-0.004,0-0.01-0.002-0.012l-0.221-0.849c-0.019-0.063-0.073-0.109-0.142-0.109h-0.311
														c-0.027,0-0.056,0.012-0.078,0.028c-0.023-0.017-0.051-0.028-0.079-0.028h-0.3c-0.066,0-0.123,0.044-0.14,0.105
														l-0.239,0.84c-0.002,0.006-0.002,0.011-0.005,0.013c0-0.004-0.002-0.013-0.004-0.018l-0.263-0.839
														c-0.017-0.06-0.073-0.102-0.137-0.102h-0.254c-0.064,0-0.119,0.042-0.138,0.102l-0.279,0.866c0,0,0,0,0,0.002
														c0-0.004-0.003-0.01-0.003-0.012L9.939,6.061C9.925,5.997,9.865,5.951,9.8,5.951H9.488
														c-0.027,0-0.053,0.012-0.078,0.028C9.387,5.963,9.361,5.951,9.332,5.951H9.031c-0.065,0-0.122,0.044-0.14,0.105
														l-0.238,0.84c0,0.006-0.003,0.011-0.003,0.013C8.648,6.905,8.645,6.896,8.643,6.892L8.384,6.053
														c-0.019-0.06-0.076-0.102-0.14-0.102H7.99c-0.063,0-0.12,0.042-0.138,0.102L7.576,6.919c0,0,0,0,0,0.002
														c-0.003-0.004-0.003-0.01-0.005-0.012l-0.22-0.849c-0.017-0.063-0.074-0.109-0.14-0.109H6.898
														c-0.044,0-0.089,0.021-0.114,0.06C6.757,6.047,6.748,6.095,6.761,6.138l0.506,1.675c0.02,0.06,0.074,0.103,0.138,0.103
														h0.277c0.062,0,0.116-0.041,0.138-0.098l0.269-0.796c0.007-0.02,0.013-0.039,0.019-0.058
														C8.111,6.98,8.117,6.998,8.122,7.016l0.256,0.799c0.019,0.06,0.076,0.101,0.138,0.101h0.277
														c0.061,0,0.116-0.041,0.137-0.101l0.479-1.486l0.448,1.484c0.018,0.06,0.074,0.103,0.138,0.103h0.277
														c0.062,0,0.116-0.041,0.138-0.098l0.269-0.796c0.007-0.02,0.013-0.039,0.018-0.058
														c0.006,0.017,0.013,0.034,0.017,0.052l0.256,0.799c0.02,0.06,0.074,0.101,0.138,0.101h0.277
														c0.062,0,0.116-0.041,0.138-0.101l0.478-1.486l0.449,1.484c0.017,0.06,0.073,0.103,0.138,0.103h0.274
														c0.063,0,0.119-0.041,0.138-0.098l0.271-0.796c0.007-0.02,0.013-0.039,0.02-0.058c0.004,0.017,0.009,0.034,0.015,0.052
														l0.256,0.799c0.02,0.06,0.074,0.101,0.138,0.101h0.277c0.063,0,0.118-0.041,0.136-0.101l0.541-1.675
														C14.665,6.095,14.656,6.047,14.629,6.011z"/>
												</g>
											</g>
										</g>
									</g>
								</g>
							</g>
						</g>
					</g>
				</g>
			</g>
		</g>
	</g>
	<g>
		<path fill="#08AFA7" d="M33,52.344c1.509,0,2.897-0.344,4.02-1.344H28.98C30.103,52,31.49,52.344,33,52.344z"/>
		<path fill="#08AFA7" d="M44.689,48h-1.14c0.003,0,0.147-0.372,0.147-0.46c0-4.219-3.697-0.054-3.697-10.165v-1.836
			c0-2.878-1.953-5.327-4.497-6.284c0.668-0.63,1.021-1.517,1.021-2.505c0-0.255-0.067-0.502-0.12-0.741
			c-0.042-0.193-0.118-0.381-0.192-0.562c-0.028-0.07-0.076-0.135-0.109-0.202c-0.06-0.122-0.125-0.242-0.197-0.354
			c-0.046-0.071-0.101-0.137-0.152-0.204c-0.075-0.101-0.153-0.197-0.239-0.289c-0.06-0.063-0.122-0.122-0.185-0.181
			c-0.092-0.084-0.187-0.162-0.287-0.236c-0.068-0.051-0.138-0.1-0.211-0.146c-0.107-0.068-0.221-0.128-0.337-0.184
			c-0.074-0.036-0.146-0.074-0.224-0.104c-0.132-0.053-0.27-0.091-0.408-0.127c-0.069-0.018-0.135-0.042-0.206-0.056
			c-0.212-0.041-0.431-0.066-0.655-0.066c-1.903,0-3.452,1.549-3.452,3.452c0,0.215,0.025,0.423,0.063,0.627
			c0.012,0.061,0.027,0.119,0.041,0.179c0.035,0.147,0.08,0.291,0.134,0.431c0.022,0.056,0.042,0.111,0.065,0.166
			c0.165,0.368,0.391,0.701,0.667,0.987c0.038,0.04-0.062,0.077-0.021,0.115C27.953,30.212,26,32.66,26,35.539v1.83
			c0,0.438,0.075,0.84,0.037,1.225c-0.01,0.088,0.053,0.176,0.043,0.262c-0.039,0.369-0.047,0.719-0.095,1.041
			c-0.005,0.033,0.008,0.062,0.003,0.094c-0.045,0.297-0.084,0.572-0.135,0.832c-0.011,0.059-0.018,0.119-0.03,0.176
			c-0.055,0.27-0.111,0.52-0.171,0.752c-0.01,0.037-0.019,0.07-0.029,0.105c-0.056,0.205-0.112,0.393-0.172,0.568
			c-0.012,0.035-0.023,0.072-0.035,0.107c-0.066,0.188-0.134,0.359-0.204,0.516c-0.015,0.033-0.029,0.062-0.044,0.094
			c-0.062,0.137-0.127,0.262-0.191,0.375c-0.012,0.021-0.022,0.043-0.033,0.062c-0.072,0.123-0.146,0.232-0.22,0.334
			c-0.019,0.025-0.038,0.051-0.057,0.074c-0.066,0.088-0.134,0.168-0.2,0.24c-0.01,0.01-0.02,0.021-0.028,0.031
			c-0.073,0.078-0.146,0.145-0.218,0.209c-0.024,0.02-0.049,0.041-0.072,0.061c-0.062,0.051-0.123,0.1-0.184,0.143
			c-0.037,0.027-0.074,0.053-0.111,0.078c-0.034,0.025-0.068,0.049-0.103,0.07c-0.263,0.172-0.506,0.314-0.711,0.508
			c-0.001,0.002-0.002,0.002-0.003,0.004c-0.062,0.059-0.118,0.121-0.172,0.191c-0.001,0.002-0.002,0.004-0.004,0.006l0,0
			c-0.256,0.342-0.418,1.06-0.418,2.013c0,0.088,0.004,0.46,0.007,0.46h-1.14C20.744,48,20,48.049,20,48.615v0.682
			C20,49.863,20.744,50,21.311,50h23.379C45.255,50,46,49.863,46,49.297v-0.682C46,48.049,45.255,48,44.689,48z M33,24.699
			c1.131,0,2.051,0.92,2.051,2.051s-0.92,2.051-2.051,2.051s-2.051-0.92-2.051-2.051S31.869,24.699,33,24.699z"/>
	</g>
	<g>
		<path fill="#FFFFFF" d="M33,50.344c1.509,0,2.897-0.344,4.02-1.344H28.98C30.103,50,31.49,50.344,33,50.344z"/>
		<path fill="#FFFFFF" d="M44.689,45h-1.14c0.003,0,0.147-0.204,0.147-0.294c0-4.219-3.697,0.112-3.697-9.997v-1.837
			c0-2.878-1.953-5.327-4.497-6.284c0.668-0.63,1.021-1.517,1.021-2.505c0-0.255-0.067-0.502-0.12-0.741
			c-0.042-0.193-0.118-0.381-0.192-0.562c-0.028-0.07-0.076-0.135-0.109-0.202c-0.06-0.122-0.125-0.242-0.197-0.354
			c-0.046-0.071-0.101-0.137-0.152-0.204c-0.075-0.101-0.153-0.197-0.239-0.289c-0.06-0.063-0.122-0.122-0.185-0.181
			c-0.092-0.084-0.187-0.162-0.287-0.236c-0.068-0.051-0.138-0.1-0.211-0.146c-0.107-0.068-0.221-0.128-0.337-0.184
			c-0.074-0.036-0.146-0.074-0.224-0.104c-0.132-0.053-0.27-0.091-0.408-0.127c-0.069-0.018-0.135-0.042-0.206-0.056
			c-0.212-0.041-0.431-0.066-0.655-0.066c-1.903,0-3.452,1.549-3.452,3.452c0,0.215,0.025,0.423,0.063,0.627
			c0.012,0.061,0.027,0.119,0.041,0.179c0.035,0.147,0.08,0.291,0.134,0.431c0.022,0.056,0.042,0.111,0.065,0.166
			c0.165,0.368,0.391,0.701,0.667,0.987c0.038,0.04-0.062,0.077-0.021,0.115C27.953,27.545,26,29.993,26,32.872v1.829
			c0,0.439,0.075,0.84,0.037,1.227c-0.01,0.088,0.053,0.176,0.043,0.26c-0.039,0.369-0.047,0.721-0.095,1.043
			c-0.005,0.031,0.008,0.061,0.003,0.094c-0.045,0.297-0.084,0.572-0.135,0.832c-0.011,0.059-0.018,0.117-0.03,0.174
			c-0.055,0.27-0.111,0.521-0.171,0.752c-0.01,0.037-0.019,0.07-0.029,0.107c-0.056,0.203-0.112,0.393-0.172,0.566
			c-0.012,0.037-0.023,0.074-0.035,0.107c-0.066,0.188-0.134,0.359-0.204,0.518c-0.015,0.031-0.029,0.062-0.044,0.094
			c-0.062,0.135-0.127,0.26-0.191,0.375c-0.012,0.02-0.022,0.041-0.033,0.061c-0.072,0.123-0.146,0.234-0.22,0.336
			c-0.019,0.025-0.038,0.049-0.057,0.074c-0.066,0.086-0.134,0.168-0.2,0.24c-0.01,0.01-0.02,0.021-0.028,0.031
			c-0.073,0.076-0.146,0.145-0.218,0.207c-0.024,0.021-0.049,0.043-0.072,0.062c-0.062,0.051-0.123,0.098-0.184,0.143
			c-0.037,0.027-0.074,0.053-0.111,0.078c-0.034,0.023-0.068,0.047-0.103,0.07c-0.263,0.172-0.506,0.312-0.711,0.508l-0.003,0.002
			c-0.062,0.059-0.118,0.123-0.172,0.193c-0.001,0.002-0.002,0.002-0.004,0.004l0,0c-0.256,0.344-0.418,0.894-0.418,1.847
			c0,0.09,0.004,0.294,0.007,0.294h-1.14C20.744,45,20,45.383,20,45.947v0.684C20,47.195,20.744,48,21.311,48h23.379
			C45.255,48,46,47.195,46,46.631v-0.684C46,45.383,45.255,45,44.689,45z M33,22.032c1.131,0,2.051,0.92,2.051,2.051
			s-0.92,2.051-2.051,2.051s-2.051-0.92-2.051-2.051S31.869,22.032,33,22.032z"/>
	</g>
</g>
</svg>
