<?xml version="1.0" encoding="utf-8"?>
<!-- Generator: Adobe Illustrator 16.0.0, SVG Export Plug-In . SVG Version: 6.00 Build 0)  -->
<!DOCTYPE svg PUBLIC "-//W3C//DTD SVG 1.1//EN" "http://www.w3.org/Graphics/SVG/1.1/DTD/svg11.dtd">
<svg version="1.1" id="Layer_1" xmlns="http://www.w3.org/2000/svg" xmlns:xlink="http://www.w3.org/1999/xlink" x="0px" y="0px"
	 width="66px" height="66px" viewBox="0 0 66 66" enable-background="new 0 0 66 66" xml:space="preserve">
<g>
	<g>
		<path fill="#0AB2E5" d="M32.999,42.263c-5.107,0-9.263-4.154-9.263-9.263c0-5.107,4.155-9.263,9.263-9.263
			c5.106,0,9.263,4.156,9.263,9.263C42.262,38.108,38.105,42.263,32.999,42.263z M32.999,26.662c-3.495,0-6.338,2.843-6.338,6.338
			c0,3.494,2.843,6.338,6.338,6.338s6.338-2.844,6.338-6.338C39.337,29.505,36.494,26.662,32.999,26.662z"/>
	</g>
	<path fill="#0C91C4" d="M32.999,26.581c-4.623,0-8.454,3.408-9.142,7.842c0.688,4.431,4.519,7.84,9.142,7.84
		s8.454-3.409,9.142-7.84C41.453,29.989,37.622,26.581,32.999,26.581z M39.337,35.843c0,3.495-2.843,6.338-6.338,6.338
		s-6.338-2.843-6.338-6.338c0-0.489,0.062-0.963,0.167-1.42c-0.105-0.459-0.167-0.933-0.167-1.423c0-3.495,2.843-6.338,6.338-6.338
		s6.338,2.843,6.338,6.338c0,0.49-0.062,0.963-0.167,1.423C39.275,34.88,39.337,35.354,39.337,35.843z"/>
	<g>
		<path fill="#0AB2E5" d="M32.999,36.657c-2.016,0-3.656-1.643-3.656-3.657c0-2.016,1.641-3.656,3.656-3.656
			s3.656,1.641,3.656,3.656C36.655,35.015,35.015,36.657,32.999,36.657z M32.999,31.293c-0.94,0-1.706,0.766-1.706,1.707
			s0.766,1.706,1.706,1.706s1.706-0.765,1.706-1.706S33.939,31.293,32.999,31.293z"/>
	</g>
	<g>
		<path fill="#0C91C4" d="M36.494,34.015c-0.379-1.301-1.451-2.309-2.799-2.57c0.592,0.267,1.01,0.862,1.01,1.555
			c0,0.382-0.13,0.731-0.342,1.015c0.212,0.284,0.342,0.635,0.342,1.015c0,0.694-0.418,1.29-1.01,1.557
			C35.043,36.325,36.115,35.318,36.494,34.015z"/>
		<path fill="#0C91C4" d="M29.504,34.015c0.379,1.304,1.452,2.311,2.799,2.571c-0.593-0.267-1.01-0.862-1.01-1.557
			c0-0.38,0.131-0.73,0.342-1.015c-0.211-0.283-0.342-0.633-0.342-1.015c0-0.693,0.417-1.288,1.01-1.555
			C30.956,31.706,29.883,32.713,29.504,34.015z"/>
	</g>
	<g>
		<g>
			<path fill="#0AB2E5" d="M32.999,2c-1.501,0.852-2.646,5.087-2.646,10.2c0,5.111,1.146,9.349,2.646,10.198V2z"/>
			<path fill="#0C91C4" d="M32.999,22.398c1.501-0.849,2.646-5.086,2.646-10.198c0-5.113-1.146-9.349-2.646-10.2V22.398z"/>
		</g>
		<g>
			<path fill="#0AB2E5" d="M32.999,64c1.501-0.852,2.646-5.087,2.646-10.2c0-5.111-1.146-9.349-2.646-10.198V64z"/>
			<path fill="#0C91C4" d="M32.999,43.602c-1.501,0.85-2.646,5.087-2.646,10.198c0,5.113,1.146,9.349,2.646,10.2V43.602z"/>
		</g>
	</g>
	<g>
		<g>
			<path fill="#0AB2E5" d="M54.92,11.079c-1.664-0.46-5.467,1.727-9.083,5.343c-3.614,3.613-5.802,7.418-5.341,9.081L54.92,11.079z"
				/>
			<path fill="#0C91C4" d="M40.496,25.503c1.662,0.46,5.467-1.726,9.08-5.341c3.617-3.616,5.804-7.419,5.344-9.083L40.496,25.503z"
				/>
		</g>
		<g>
			<path fill="#0AB2E5" d="M11.079,54.92c1.663,0.458,5.467-1.728,9.082-5.342c3.614-3.614,5.803-7.42,5.341-9.083L11.079,54.92z"/>
			<path fill="#0C91C4" d="M25.502,40.495c-1.662-0.46-5.467,1.729-9.08,5.343c-3.616,3.614-5.803,7.417-5.343,9.082L25.502,40.495z
				"/>
		</g>
	</g>
	<g>
		<g>
			<path fill="#0AB2E5" d="M64,33c-0.852-1.501-5.088-2.646-10.201-2.646c-5.112,0-9.349,1.144-10.199,2.646H64z"/>
			<path fill="#0C91C4" d="M43.6,33c0.852,1.5,5.087,2.645,10.199,2.645c5.113,0,9.35-1.145,10.201-2.645H43.6z"/>
		</g>
		<g>
			<path fill="#0AB2E5" d="M2,33c0.852,1.5,5.085,2.645,10.199,2.643c5.111,0.002,9.35-1.143,10.197-2.643H2z"/>
			<path fill="#0C91C4" d="M22.396,33c-0.848-1.501-5.086-2.646-10.197-2.646C7.085,30.354,2.851,31.499,2,33H22.396z"/>
		</g>
	</g>
	<g>
		<g>
			<path fill="#0AB2E5" d="M54.921,54.92c0.459-1.663-1.728-5.468-5.345-9.082c-3.613-3.614-7.418-5.803-9.08-5.343L54.921,54.92z"
				/>
			<path fill="#0C91C4" d="M40.496,40.495c-0.46,1.663,1.727,5.469,5.341,9.083c3.616,3.616,7.421,5.8,9.084,5.342L40.496,40.495z"
				/>
		</g>
		<g>
			<path fill="#0AB2E5" d="M11.079,11.08c-0.459,1.664,1.726,5.466,5.343,9.082c3.613,3.615,7.418,5.803,9.08,5.341L11.079,11.08z"
				/>
			<path fill="#0C91C4" d="M25.502,25.503c0.462-1.662-1.727-5.468-5.341-9.081c-3.615-3.617-7.419-5.803-9.082-5.342L25.502,25.503
				z"/>
		</g>
	</g>
</g>
</svg>
