<?xml version="1.0" encoding="utf-8"?>
<!-- Generator: Adobe Illustrator 16.0.0, SVG Export Plug-In . SVG Version: 6.00 Build 0)  -->
<!DOCTYPE svg PUBLIC "-//W3C//DTD SVG 1.1//EN" "http://www.w3.org/Graphics/SVG/1.1/DTD/svg11.dtd">
<svg version="1.1" id="Layer_1" xmlns="http://www.w3.org/2000/svg" xmlns:xlink="http://www.w3.org/1999/xlink" x="0px" y="0px"
	 width="66px" height="66px" viewBox="0 0 66 66" enable-background="new 0 0 66 66" xml:space="preserve">
<g>
	<g>
		<circle fill="#E28FAF" cx="32.998" cy="33" r="30.727"/>
		<path fill="#C97396" d="M54.725,11.273c11.999,12,11.999,31.454,0,43.454c-11.999,11.999-31.454,11.998-43.455,0"/>
	</g>
	<g>
		<polygon fill="#E6EDEC" points="56.481,20.623 54.825,15.99 33.001,6.776 11.177,15.99 10.348,19.218 10.113,19.312 1.5,38.353 
			33.001,61.695 64.5,38.353 		"/>
		<polyline fill="#C9D1CF" points="1.5,38.353 33.001,61.695 37.939,51.597 		"/>
		<path fill="#E6EDEC" d="M10.348,19.218"/>
		<path fill="#E6EDEC" d="M10.113,19.312"/>
		<polyline fill="#C9D1CF" points="33.001,61.695 64.5,38.353 56.481,20.623 54.825,15.99 33.001,6.776 		"/>
		<polygon fill="#C9D1CF" points="26.941,12.843 10.186,19.377 33.001,38.054 56.991,23.342 55.962,19.58 33.001,15.432 		"/>
		<g>
			<g>
				<g>
					<polygon fill="#2F423F" points="26.862,12.758 19.629,18.953 10.115,19.34 9.118,10.078 14.018,4.671 21.287,5.295 					"/>
				</g>
				<g>
					<polygon fill="#F2ADC5" points="24.862,14.603 19.7,19.022 12.911,19.299 12.201,12.69 15.698,8.833 20.882,9.279 					"/>
				</g>
				<g>
					<polyline fill="#D88BA9" points="20.882,9.279 24.862,14.603 19.7,19.022 12.911,19.299 					"/>
				</g>
			</g>
			<g>
				<g>
					<polygon fill="#2F423F" points="39.137,12.758 46.371,18.953 55.885,19.34 56.882,10.078 51.982,4.671 44.713,5.295 					"/>
				</g>
				<g>
					<polygon fill="#F2ADC5" points="41.138,14.603 46.3,19.022 53.089,19.299 53.799,12.69 50.302,8.833 45.117,9.279 					"/>
				</g>
				<g>
					<polyline fill="#D88BA9" points="45.117,9.279 41.138,14.603 46.3,19.022 53.089,19.299 					"/>
				</g>
			</g>
		</g>
		<polygon fill="#C9D1CF" points="28.511,38.472 33.293,43.207 37,39.547 37,37.898 		"/>
		<polygon fill="#3F5450" points="37.585,39 28.415,39 27.352,34 38.648,34 		"/>
		<polygon fill="#2F423F" points="35.459,39 30.542,39 27.352,34 38.648,34 		"/>
		<polygon fill="#3F5450" points="35.459,35 30.542,35 27.352,34 38.648,34 		"/>
		<g>
			<path fill="#2F423F" d="M39.367,43.045l-3.78-0.23l-2.28-1.419c-0.102-0.062-0.205-0.079-0.305-0.07
				c-0.104-0.009-0.208,0.008-0.308,0.07l-2.281,1.419l-3.78,0.23c-0.39,0.022-0.696,0.432-0.677,1.018
				C25.969,44.637,26.283,45,26.661,45c0.01,0,0.02,0,0.028,0l3.905-0.153c0.086-0.005,0.167,0.011,0.246-0.037l2.162-1.325
				l2.158,1.356c0.078,0.048,0.161-0.004,0.242,0.001L39.309,45c0.009,0,0.019,0,0.03,0c0.376,0,0.689-0.363,0.706-0.938
				C40.061,43.477,39.756,43.067,39.367,43.045z"/>
			<path fill="#2F423F" d="M33.001,43.506l2.158,1.346l0,0L39.309,45c0.009,0,0.019,0,0.03,0c0.376,0,0.689-0.363,0.706-0.938
				c0.016-0.586-0.289-1.037-0.678-1.06l-3.78-0.21l-2.28-1.408c-0.102-0.062-0.205-0.073-0.305-0.064"/>
		</g>
		<g>
			<g>
				<g>
					<polygon fill="#2F423F" points="32.913,26.215 25.874,32.35 16.165,32.796 15.167,23.535 22.382,22.742 27.336,18.752 					"/>
				</g>
				<g>
					<polyline fill="#3F5450" points="22.382,22.742 27.336,18.752 32.913,26.215 25.874,32.35 16.165,32.796 					"/>
				</g>
			</g>
			<g>
				<g>
					<polygon fill="#2F423F" points="33.087,26.215 40.126,32.35 49.835,32.796 50.833,23.535 43.619,22.742 38.664,18.752 					"/>
				</g>
				<g>
					<polyline fill="#3F5450" points="43.619,22.742 38.664,18.752 33.087,26.215 40.126,32.35 49.835,32.796 					"/>
				</g>
			</g>
		</g>
		<g>
			<g>
				<path fill="#89DBEF" d="M25.94,26.914c0,1.108-1.005,2.006-2.25,2.006c-1.239,0-2.25-0.898-2.25-2.006s1.011-2.007,2.25-2.007
					C24.935,24.906,25.94,25.806,25.94,26.914z"/>
				<path fill="#16AFC4" d="M25.278,25.494c0.883,0.784,0.876,2.056,0,2.84c-0.875,0.783-2.303,0.783-3.179-0.001"/>
			</g>
			<g>
				<path fill="#89DBEF" d="M44.56,26.914c0,1.108-1.009,2.006-2.25,2.006c-1.239,0-2.25-0.898-2.25-2.006s1.011-2.007,2.25-2.007
					C43.55,24.906,44.56,25.806,44.56,26.914z"/>
				<path fill="#16AFC4" d="M43.897,25.494c0.884,0.784,0.875,2.056,0,2.84c-0.875,0.783-2.303,0.783-3.179-0.001"/>
			</g>
		</g>
		<polygon fill="#2F423F" points="21.267,53 33.001,61.695 44.735,53 		"/>
	</g>
</g>
</svg>
