<?xml version="1.0" encoding="utf-8"?>
<!-- Generator: Adobe Illustrator 16.0.0, SVG Export Plug-In . SVG Version: 6.00 Build 0)  -->
<!DOCTYPE svg PUBLIC "-//W3C//DTD SVG 1.1//EN" "http://www.w3.org/Graphics/SVG/1.1/DTD/svg11.dtd">
<svg version="1.1" id="Layer_1" xmlns="http://www.w3.org/2000/svg" xmlns:xlink="http://www.w3.org/1999/xlink" x="0px" y="0px"
	 width="66px" height="66px" viewBox="0 0 66 66" enable-background="new 0 0 66 66" xml:space="preserve">
<g>
	<g>
		<g>
			<g>
				<g>
					<path fill-rule="evenodd" clip-rule="evenodd" fill="#32A6CE" d="M50.151,27.482c-1.526,0-2.732,0.402-3.655,0.588l-0.285,2.32
						c0.461-0.223,1.917-0.627,3.124-0.664c1.208-0.037,1.917,0.222,1.669,1.252c-3.586,0-6,0.735-6.497,3.057
						c-0.711,3.979,3.657,4.053,5.396,2.321L49.692,37.5h3.193l1.385-6.521C54.837,28.291,52.388,27.444,50.151,27.482z
						 M50.365,34.155c-0.178,0.847-0.85,1.118-1.668,1.155c-0.71,0.038-1.349-0.445-0.888-1.182
						c0.355-0.627,1.349-0.629,1.952-0.629c0.249,0,0.532,0,0.782,0C50.471,33.5,50.436,33.86,50.365,34.155z"/>
				</g>
				<g>
					<path fill-rule="evenodd" clip-rule="evenodd" fill="#1A80AD" d="M46.212,30.391c0.461-0.223,1.917-0.627,3.124-0.664
						c1.208-0.037,1.917,0.222,1.669,1.252c-3.586,0-6,0.735-6.497,3.057c-0.711,3.979,3.657,4.053,5.396,2.321L49.692,37.5h3.193
						l1.385-6.521c0.567-2.688-1.882-3.441-4.119-3.404 M50.365,34.155c-0.178,0.847-0.85,1.118-1.668,1.155
						c-0.71,0.038-1.349-0.445-0.888-1.182c0.355-0.627,1.349-0.629,1.952-0.629c0.249,0,0.532,0,0.782,0
						C50.471,33.5,50.436,33.86,50.365,34.155z"/>
				</g>
				<g>
					<polygon fill-rule="evenodd" clip-rule="evenodd" fill="#32A6CE" points="57.004,24.5 54.36,37.5 57.605,37.5 60.281,24.5 
						57.004,24.5 57.004,24.5 					"/>
				</g>
				<g>
					<polygon fill-rule="evenodd" clip-rule="evenodd" fill="#1A80AD" points="59.296,24.5 54.36,37.5 57.605,37.5 60.281,24.5 
						57.004,24.5 57.004,24.5 					"/>
				</g>
				<g>
					<path fill-rule="evenodd" clip-rule="evenodd" fill="#32A6CE" d="M42.093,24.5H36.15l-2.632,13h3.451l0.889-4h2.455
						c2.42,0,4.413-1.421,4.946-3.925C45.864,26.738,43.8,24.5,42.093,24.5z M41.986,29c-0.214,0.92-1.138,1.5-2.03,1.5h-1.6
						l0.712-3h1.708C41.666,27.5,42.2,28.079,41.986,29z"/>
				</g>
				<g>
					<path fill-rule="evenodd" clip-rule="evenodd" fill="#1A80AD" d="M42.093,24.5H38.13l-4.612,13h3.451l0.889-4h2.455
						c2.42,0,4.413-1.421,4.946-3.925C45.864,26.738,43.8,24.5,42.093,24.5z M41.986,29c-0.214,0.92-1.138,1.5-2.03,1.5h-1.6
						l0.712-3h1.708C41.666,27.5,42.2,28.079,41.986,29z"/>
				</g>
			</g>
			<g>
				<g>
					<path fill-rule="evenodd" clip-rule="evenodd" fill="#21789E" d="M19.035,27.482c-1.508,0-2.7,0.402-3.578,0.588l-0.28,2.32
						c0.421-0.223,1.859-0.627,3.052-0.664c1.191-0.037,1.893,0.222,1.681,1.252c-3.541,0-5.925,0.735-6.416,3.057
						c-0.703,3.979,3.612,4.053,5.294,2.321L18.579,37.5h3.191l1.367-6.521C23.699,28.291,21.244,27.444,19.035,27.482z
						 M19.281,34.155c-0.176,0.847-0.879,1.118-1.685,1.155c-0.7,0.038-1.298-0.445-0.842-1.182
						c0.351-0.627,1.333-0.629,1.894-0.629c0.28,0,0.525,0,0.807,0C19.384,33.5,19.314,33.86,19.281,34.155z"/>
				</g>
				<g>
					<path fill-rule="evenodd" clip-rule="evenodd" fill="#1A5B80" d="M15.177,30.391c0.421-0.223,1.859-0.627,3.052-0.664
						c1.191-0.037,1.893,0.222,1.681,1.252c-3.541,0-5.925,0.735-6.416,3.057c-0.703,3.979,3.612,4.053,5.294,2.321L18.579,37.5
						h3.191l1.367-6.521c0.562-2.688-1.894-3.441-4.103-3.404 M19.281,34.155c-0.176,0.847-0.879,1.118-1.685,1.155
						c-0.7,0.038-1.298-0.445-0.842-1.182c0.351-0.627,1.333-0.629,1.894-0.629c0.28,0,0.525,0,0.807,0
						C19.384,33.5,19.314,33.86,19.281,34.155z"/>
				</g>
				<g>
					<polygon fill-rule="evenodd" clip-rule="evenodd" fill="#21789E" points="24.527,27.5 27.718,27.5 28.234,33.142 31.355,27.5 
						34.65,27.5 27.067,41.5 23.5,41.5 25.832,37.282 24.527,27.5 24.527,27.5 					"/>
				</g>
				<g>
					<path fill-rule="evenodd" clip-rule="evenodd" fill="#1A5B80" d="M24.527,27.656"/>
					<polyline fill-rule="evenodd" clip-rule="evenodd" fill="#1A5B80" points="27.718,27.656 28.234,33.22 31.355,27.5 34.65,27.5 
						27.067,41.5 23.5,41.5 25.832,37.36 					"/>
				</g>
				<g>
					<path fill-rule="evenodd" clip-rule="evenodd" fill="#21789E" d="M11.096,24.5H5.139L2.5,37.5h3.497l0.856-4h2.496
						c2.391,0,4.388-1.421,4.923-3.925C14.878,26.738,12.846,24.5,11.096,24.5z M10.99,29c-0.213,0.92-1.104,1.5-1.998,1.5h-1.64
						l0.75-3h1.711C10.67,27.5,11.24,28.079,10.99,29z"/>
				</g>
				<g>
					<path fill-rule="evenodd" clip-rule="evenodd" fill="#1A5B80" d="M11.096,24.5H8.403L2.5,37.5h3.497l0.856-4h2.496
						c2.391,0,4.388-1.421,4.923-3.925C14.878,26.738,12.846,24.5,11.096,24.5z M10.99,29c-0.213,0.92-1.104,1.5-1.998,1.5h-1.64
						l0.75-3h1.711C10.67,27.5,11.24,28.079,10.99,29z"/>
				</g>
			</g>
		</g>
		<g>
			<path fill-rule="evenodd" clip-rule="evenodd" fill="#06435E" d="M18.414,31.037c-2.705,0.203-4.502,1.023-4.92,2.998
				c-0.703,3.979,3.612,4.053,5.294,2.321L18.579,37.5h3.191l0.486-2.437L18.414,31.037z M19.281,34.155
				c-0.176,0.847-0.879,1.118-1.685,1.155c-0.7,0.038-1.298-0.445-0.842-1.182c0.351-0.627,1.333-0.629,1.894-0.629
				c0.28,0,0.525,0,0.807,0C19.384,33.5,19.314,33.86,19.281,34.155z"/>
		</g>
		<polygon fill-rule="evenodd" clip-rule="evenodd" fill="#06435E" points="28.379,32.956 28.233,33.287 30.303,35.299 34.65,27.5 
			31.355,27.5 		"/>
		<polygon fill-rule="evenodd" clip-rule="evenodd" fill="#06435E" points="5.997,37.5 6.85,33.496 2.845,37.5 		"/>
		<polygon fill-rule="evenodd" clip-rule="evenodd" fill="#2273AA" points="36.969,37.5 37.857,33.305 37.854,33.395 33.842,37.5 		
			"/>
		<g>
			<path fill-rule="evenodd" clip-rule="evenodd" fill="#2273AA" d="M49.45,31.041c-2.716,0.208-4.521,1.029-4.942,2.994
				c-0.711,3.979,3.657,4.053,5.396,2.321L49.692,37.5h3.193l0.476-2.361L49.45,31.041z M50.365,34.155
				c-0.178,0.847-0.85,1.118-1.668,1.155c-0.71,0.038-1.349-0.445-0.888-1.182c0.355-0.627,1.349-0.629,1.952-0.629
				c0.249,0,0.532,0,0.782,0C50.471,33.5,50.436,33.86,50.365,34.155z"/>
		</g>
		<polygon fill-rule="evenodd" clip-rule="evenodd" fill="#2273AA" points="56.679,31.604 54.36,37.5 57.605,37.5 58.468,33.486 		
			"/>
	</g>
	<g>
		<g>
			<path fill="#32A6CE" d="M60.983,26.601v-1.433h-0.536v-0.191h1.289v0.191h-0.538v1.433H60.983z"/>
		</g>
		<g>
			<path fill="#32A6CE" d="M61.948,26.601v-1.624h0.323l0.385,1.149c0.036,0.105,0.061,0.188,0.078,0.239
				c0.018-0.059,0.047-0.145,0.085-0.26l0.391-1.129H63.5v1.624h-0.208v-1.36l-0.474,1.36h-0.193l-0.471-1.382v1.382H61.948z"/>
		</g>
	</g>
</g>
</svg>
