<?xml version="1.0" encoding="utf-8"?>
<!-- Generator: Adobe Illustrator 16.0.0, SVG Export Plug-In . SVG Version: 6.00 Build 0)  -->
<!DOCTYPE svg PUBLIC "-//W3C//DTD SVG 1.1//EN" "http://www.w3.org/Graphics/SVG/1.1/DTD/svg11.dtd">
<svg version="1.1" id="Layer_1" xmlns="http://www.w3.org/2000/svg" xmlns:xlink="http://www.w3.org/1999/xlink" x="0px" y="0px"
	 width="66px" height="66px" viewBox="0 0 66 66" enable-background="new 0 0 66 66" xml:space="preserve">
<g>
	<g>
		<rect x="18" y="50.083" fill="#750C41" width="10" height="12"/>
		<rect x="37" y="50.083" fill="#750C41" width="9" height="12"/>
		<path fill="#750C41" d="M26.641,29.295c-0.439,4.057-5.865,6.795-12.121,6.117c-6.254-0.68-12.605-6.554-12.164-10.61
			c0.44-4.057,7.504-4.759,13.758-4.081C22.367,21.399,27.08,25.238,26.641,29.295z"/>
		<path fill="#EF378B" d="M59.535,41.472c0,12.343-11.607,15.644-25.924,15.644c-14.319,0-25.926-3.301-25.926-15.644
			c0-12.342,11.606-22.347,25.926-22.347C47.928,19.125,59.535,29.13,59.535,41.472z"/>
		<path fill="#D61E69" d="M59.535,42.281c0,11.703-11.607,14.834-25.924,14.834c-14.319,0-25.926-3.131-25.926-14.834
			c0-11.702,11.606-21.188,25.926-21.188C47.928,21.093,59.535,30.579,59.535,42.281z"/>
		<path fill="#C61867" d="M59.535,41.472C60.1,53.971,47.928,57.115,33.611,57.115c-14.319,0-25.926-3.301-25.926-15.644"/>
		<rect x="42" y="50.083" fill="#EF378B" width="9" height="12"/>
		<polyline fill="#D61E69" points="42,50.083 51,50.083 51,62.083 		"/>
		<ellipse fill="#D61E69" cx="20.521" cy="47.36" rx="12.663" ry="8.214"/>
		<path fill="#D61E69" d="M34.976,29.614c-0.952,4.436-7.267,6.841-14.104,5.373S7.684,26.295,8.637,21.859
			s8.844-4.401,15.682-2.934S35.928,25.179,34.976,29.614z"/>
		<path fill="#EF378B" d="M8.637,21.859c0.953-4.436,8.844-4.401,15.682-2.934s11.609,6.253,10.657,10.688"/>
		<ellipse fill="#D61E69" cx="7.772" cy="43.596" rx="3.509" ry="6.503"/>
		<ellipse fill="#EF599D" cx="6.403" cy="43.596" rx="2.14" ry="6.503"/>
		<ellipse fill="#C61867" cx="6.115" cy="43.308" rx="0.664" ry="3.037"/>
		<circle fill="#63113A" cx="14.831" cy="35.082" r="1.026"/>
		<circle fill="#841E56" cx="14.639" cy="34.729" r="0.545"/>
		<ellipse fill="#EF378B" cx="23.429" cy="42.27" rx="5.562" ry="2.182"/>
		<path fill="#D61E69" d="M63.217,40.083c0,0.473-0.385,1-0.855,1h-7.872c-0.474,0-0.856-0.527-0.856-1l0,0c0-0.473,0.383-1,0.856-1
			h7.872C62.832,39.083,63.217,39.61,63.217,40.083L63.217,40.083z"/>
		<path fill="#EF378B" d="M45.1,24.654c0,2.712-3.85,4.909-8.602,4.909c-4.746,0-8.596-2.197-8.596-4.909
			c0-2.711,3.85-4.909,8.596-4.909C41.25,19.745,45.1,21.943,45.1,24.654z"/>
		<path fill="#D61E69" d="M42.296,22.583c0,0.292-0.173,0.5-0.385,0.5H31.9c-0.212,0-0.385-0.208-0.385-0.5l0,0
			c0-0.292,0.173-0.5,0.385-0.5h10.011C42.123,22.083,42.296,22.291,42.296,22.583L42.296,22.583z"/>
		<path fill="#63113A" d="M42.296,23.583c0,0.292-0.173,0.5-0.385,0.5H31.9c-0.212,0-0.385-0.208-0.385-0.5l0,0
			c0-0.292,0.173-0.5,0.385-0.5h10.011C42.123,23.083,42.296,23.291,42.296,23.583L42.296,23.583z"/>
		<rect x="23" y="50.083" fill="#EF378B" width="9" height="12"/>
		<polyline fill="#D61E69" points="23,50.083 32,50.083 32,62.083 		"/>
	</g>
	<g>
		<circle fill="#B5750F" cx="36.424" cy="17.232" r="5.625"/>
		<circle fill="#DD981D" cx="36.424" cy="16.514" r="5.625"/>
		<path fill="#CE8106" d="M36.424,10.889c3.105,0,5.625,2.519,5.625,5.625s-2.52,5.625-5.625,5.625"/>
		<circle fill="#EFB65B" cx="36.424" cy="16.514" r="3.625"/>
		<path fill="#E2A750" d="M38.987,13.95c1.415,1.416,1.415,3.712,0,5.127c-1.415,1.416-3.711,1.415-5.127,0"/>
	</g>
	<g>
		<circle fill="#B5750F" cx="47.719" cy="10.377" r="5.624"/>
		<circle fill="#DD981D" cx="47.21" cy="9.869" r="5.625"/>
		<path fill="#CE8106" d="M43.232,5.892c2.197-2.196,5.76-2.196,7.956,0c2.196,2.197,2.196,5.759,0,7.955"/>
		<circle fill="#EFB65B" cx="47.211" cy="9.869" r="3.625"/>
		<path fill="#E2A750" d="M47.211,6.244c2.002,0,3.625,1.623,3.625,3.625s-1.623,3.624-3.625,3.625"/>
	</g>
	<g>
		<circle fill="#B5750F" cx="59.834" cy="7.749" r="3.831"/>
		<circle fill="#DD981D" cx="59.346" cy="7.748" r="3.831"/>
		<path fill="#CE8106" d="M55.516,7.747c-0.001-2.115,1.715-3.83,3.83-3.83c2.116,0,3.831,1.715,3.831,3.831"/>
		<circle fill="#EFB65B" cx="59.346" cy="7.748" r="2.469"/>
		<path fill="#E2A750" d="M57.6,6.003c0.965-0.965,2.527-0.964,3.492,0c0.963,0.964,0.964,2.525,0,3.491"/>
	</g>
</g>
</svg>
