<?xml version="1.0" encoding="utf-8"?>
<!-- Generator: Adobe Illustrator 16.0.0, SVG Export Plug-In . SVG Version: 6.00 Build 0)  -->
<!DOCTYPE svg PUBLIC "-//W3C//DTD SVG 1.1//EN" "http://www.w3.org/Graphics/SVG/1.1/DTD/svg11.dtd">
<svg version="1.1" id="Layer_1" xmlns="http://www.w3.org/2000/svg" xmlns:xlink="http://www.w3.org/1999/xlink" x="0px" y="0px"
	 width="66px" height="66px" viewBox="0 0 66 66" enable-background="new 0 0 66 66" xml:space="preserve">
<g>
	<path fill="#4C5254" d="M45,59.663c0,2.509-2.034,4.543-4.543,4.543H26.543c-2.509,0-4.543-2.034-4.543-4.543V22.749
		c0-2.509,2.034-4.543,4.543-4.543h13.914c2.509,0,4.543,2.034,4.543,4.543V59.663z"/>
	<path fill="#2F423F" d="M22,22.749c0-2.51,1.677-4.543,4.187-4.543h13.627c3.289,0,5.187,2.033,5.187,4.543v36.914
		c0,2.51-2.034,4.543-4.543,4.543"/>
	<g>
		<g>
			<path fill="#3AC2F2" d="M33.001,1.794L33.001,1.794c-6.533,0-12.674,2.545-17.293,7.16l2.83,2.832
				c3.862-3.863,8.998-5.988,14.463-5.988c5.462,0,10.599,2.125,14.461,5.988l2.83-2.83C45.675,4.339,39.534,1.794,33.001,1.794z"/>
			<g>
				<path fill="#0AA06E" d="M33,9.144c-4.391,0-8.521,1.711-11.625,4.814l2.828,2.83c2.351-2.348,5.474-3.643,8.798-3.641
					c3.322,0,6.447,1.293,8.795,3.643l2.83-2.832C41.522,10.855,37.393,9.144,33,9.144L33,9.144z"/>
			</g>
		</g>
		<g>
			<g>
				<path fill="#009CC6" d="M33.001,5.798c5.462,0,10.599,2.125,14.461,5.988l2.83-2.83c-4.617-4.617-10.758-7.162-17.291-7.162H33"
					/>
			</g>
			<path fill="#3AC2F2" d="M33,9.144c-4.391,0-8.521,1.711-11.625,4.814l2.828,2.83c2.351-2.348,5.474-3.643,8.798-3.641
				c3.322,0,6.447,1.293,8.795,3.643l2.83-2.832C41.522,10.855,37.393,9.144,33,9.144L33,9.144z"/>
			<g>
				<path fill="#009CC6" d="M33.001,13.148c3.322,0,6.447,1.293,8.795,3.643l2.83-2.832c-3.104-3.104-7.233-4.814-11.625-4.814H33"
					/>
			</g>
		</g>
	</g>
	<g>
		<path fill="#F15249" d="M41.078,24.207c0,1.189-0.963,1.999-2.153,1.999H35.54c-1.188,0-2.153-0.81-2.153-1.999l0,0
			c0-1.189,0.965-2.001,2.153-2.001h3.385C40.115,22.206,41.078,23.017,41.078,24.207L41.078,24.207z"/>
		<path fill="#D82E2E" d="M41.078,24.138L41.078,24.138c0,1.189-0.963,2.068-2.153,2.068H35.54c-1.188,0-2.153-0.921-2.153-2.11l0,0
			"/>
	</g>
	<g>
		<g>
			<circle fill="#37CC85" cx="26.497" cy="30.902" r="2.184"/>
			<path fill="#0AA06E" d="M28.042,29.357c0.853,0.854,0.853,2.236,0,3.09c-0.854,0.852-2.236,0.852-3.09,0"/>
		</g>
		<g>
			<circle fill="#37CC85" cx="33" cy="30.902" r="2.184"/>
			<path fill="#0AA06E" d="M34.544,29.357c0.854,0.854,0.854,2.236,0,3.09c-0.854,0.852-2.235,0.852-3.089,0"/>
		</g>
		<g>
			<circle fill="#37CC85" cx="39.503" cy="30.902" r="2.184"/>
			<path fill="#0AA06E" d="M41.047,29.357c0.854,0.854,0.854,2.236,0,3.09c-0.854,0.852-2.235,0.852-3.089,0"/>
		</g>
	</g>
	<g>
		<g>
			<circle fill="#37CC85" cx="26.497" cy="38.402" r="2.184"/>
			<path fill="#0AA06E" d="M28.042,36.857c0.853,0.854,0.853,2.236,0,3.09c-0.854,0.852-2.236,0.852-3.09,0"/>
		</g>
		<g>
			<circle fill="#37CC85" cx="33" cy="38.402" r="2.184"/>
			<path fill="#0AA06E" d="M34.544,36.857c0.854,0.854,0.854,2.236,0,3.09c-0.854,0.852-2.235,0.852-3.089,0"/>
		</g>
		<g>
			<circle fill="#37CC85" cx="39.503" cy="38.402" r="2.184"/>
			<path fill="#0AA06E" d="M41.047,36.857c0.854,0.854,0.854,2.236,0,3.09c-0.854,0.852-2.235,0.852-3.089,0"/>
		</g>
	</g>
	<g>
		<g>
			<circle fill="#37CC85" cx="26.497" cy="45.902" r="2.184"/>
			<path fill="#0AA06E" d="M28.042,44.357c0.853,0.854,0.853,2.236,0,3.09c-0.854,0.852-2.236,0.852-3.09,0"/>
		</g>
		<g>
			<circle fill="#37CC85" cx="33" cy="45.902" r="2.184"/>
			<path fill="#0AA06E" d="M34.544,44.357c0.854,0.854,0.854,2.236,0,3.09c-0.854,0.852-2.235,0.852-3.089,0"/>
		</g>
		<g>
			<circle fill="#37CC85" cx="39.503" cy="45.902" r="2.184"/>
			<path fill="#0AA06E" d="M41.047,44.357c0.854,0.854,0.854,2.236,0,3.09c-0.854,0.852-2.235,0.852-3.089,0"/>
		</g>
	</g>
	<g>
		<path fill="#3AC2F2" d="M30,59.243c0,0.532-0.432,0.963-0.964,0.963h-3.072c-0.532,0-0.964-0.431-0.964-0.963v-8.074
			c0-0.532,0.432-0.963,0.964-0.963h3.072c0.532,0,0.964,0.431,0.964,0.963V59.243z"/>
		<path fill="#009CC6" d="M29.036,50.206c0.532,0,0.964,0.432,0.964,0.963v8.074c0,0.531-0.432,0.963-0.964,0.963h-3.072
			c-0.532,0-0.964-0.432-0.964-0.963"/>
	</g>
	<g>
		<path fill="#3AC2F2" d="M37,59.243c0,0.532-0.432,0.963-0.964,0.963h-3.072c-0.532,0-0.964-0.431-0.964-0.963v-8.074
			c0-0.532,0.432-0.963,0.964-0.963h3.072c0.532,0,0.964,0.431,0.964,0.963V59.243z"/>
		<path fill="#009CC6" d="M36.036,50.206c0.532,0,0.964,0.432,0.964,0.963v8.074c0,0.531-0.432,0.963-0.964,0.963h-3.072
			c-0.532,0-0.964-0.432-0.964-0.963"/>
	</g>
	<path fill="#757B7C" d="M41,51.706c0,0.276-0.224,0.5-0.5,0.5h-2c-0.276,0-0.5-0.224-0.5-0.5l0,0c0-0.276,0.224-0.5,0.5-0.5h2
		C40.776,51.206,41,51.429,41,51.706L41,51.706z"/>
	<path fill="#757B7C" d="M41,54.706c0,0.276-0.224,0.5-0.5,0.5h-2c-0.276,0-0.5-0.224-0.5-0.5l0,0c0-0.276,0.224-0.5,0.5-0.5h2
		C40.776,54.206,41,54.429,41,54.706L41,54.706z"/>
	<path fill="#757B7C" d="M41,57.706c0,0.276-0.224,0.5-0.5,0.5h-2c-0.276,0-0.5-0.224-0.5-0.5l0,0c0-0.276,0.224-0.5,0.5-0.5h2
		C40.776,57.206,41,57.429,41,57.706L41,57.706z"/>
</g>
</svg>
