<?xml version="1.0" encoding="utf-8"?>
<!-- Generator: Adobe Illustrator 16.0.0, SVG Export Plug-In . SVG Version: 6.00 Build 0)  -->
<!DOCTYPE svg PUBLIC "-//W3C//DTD SVG 1.1//EN" "http://www.w3.org/Graphics/SVG/1.1/DTD/svg11.dtd">
<svg version="1.1" id="Layer_1" xmlns="http://www.w3.org/2000/svg" xmlns:xlink="http://www.w3.org/1999/xlink" x="0px" y="0px"
	 width="66px" height="66px" viewBox="0 0 66 66" enable-background="new 0 0 66 66" xml:space="preserve">
<g>
	<path fill="#C17E52" d="M60.833,57.833c0,1.657-1.343,3-3,3H8.167c-1.656,0-3-1.343-3-3V8.167c0-1.657,1.344-3,3-3h49.667
		c1.657,0,3,1.343,3,3V57.833z"/>
	<path fill="#B56841" d="M60.833,8.167v49.666c0,1.657-1.343,3-3,3H8.167"/>
	<path fill="#A86743" d="M5.167,8.167c0-1.657,1.344-3,3-3h49.667c1.657,0,3,1.343,3,3v49.666c0,1.657-1.343,3-3,3"/>
	<g>
		<path fill="#FFECB6" d="M45.571,25.43l-9.742-9.742c-1.561-1.562-4.096-1.562-5.656,0L20.43,25.43
			c-1.562,1.562-1.562,4.095,0,5.656c1.561,1.562,4.096,1.562,5.656,0L30,27.173v10.235c0,1.657,1.343,3,3,3s3-1.343,3-3V27.173
			l3.914,3.913c0.78,0.781,1.805,1.172,2.828,1.172s2.048-0.391,2.828-1.172C47.133,29.524,47.133,26.991,45.571,25.43z"/>
		<path fill="#EFD89C" d="M35.829,15.688c-1.561-1.562-4.096-1.562-5.656,0L21.43,24.43l5.656,5.656L30,27.173V33l5.697,5.698
			C35.886,38.306,36,37.872,36,37.408V27.173l3.914,3.913c0.78,0.781,1.805,1.172,2.828,1.172s2.048-0.391,2.828-1.172
			c1.562-1.562,1.562-4.095,0-5.656L35.829,15.688z"/>
		<path fill="#FFECB6" d="M41.122,44.484H24.877c-1.658,0-3,1.343-3,3s1.342,3,3,3h16.244c1.658,0,3-1.343,3-3
			S42.78,44.484,41.122,44.484z"/>
	</g>
</g>
</svg>
