<?xml version="1.0" encoding="utf-8"?>
<!-- Generator: Adobe Illustrator 16.0.0, SVG Export Plug-In . SVG Version: 6.00 Build 0)  -->
<!DOCTYPE svg PUBLIC "-//W3C//DTD SVG 1.1//EN" "http://www.w3.org/Graphics/SVG/1.1/DTD/svg11.dtd">
<svg version="1.1" id="Layer_1" xmlns="http://www.w3.org/2000/svg" xmlns:xlink="http://www.w3.org/1999/xlink" x="0px" y="0px"
	 width="66px" height="66px" viewBox="0 0 66 66" enable-background="new 0 0 66 66" xml:space="preserve">
<g>
	<g>
		<path fill="#1AC4FF" d="M59.025,17.973c-2.781-4.818-7.832-7.5-13.021-7.504c-2.602-4.493-7.447-7.525-13.011-7.525
			s-10.409,3.032-13.008,7.525c-5.192,0.004-10.241,2.686-13.021,7.504c-2.781,4.819-2.58,10.532,0.013,15.029
			C4.386,37.5,4.185,43.213,6.965,48.03c2.781,4.817,7.83,7.499,13.022,7.504c2.599,4.492,7.442,7.522,13.006,7.522
			s10.409-3.031,13.009-7.523c5.191-0.004,10.24-2.685,13.021-7.504c2.783-4.816,2.58-10.529-0.011-15.027
			C61.605,28.505,61.809,22.792,59.025,17.973z"/>
	</g>
	<g>
		<g>
			<g>
				<path fill="#2F5068" d="M19.967,41.477c-2.79,0-5.548-0.742-7.978-2.145C4.356,34.925,1.731,25.129,6.138,17.495
					C8.985,12.563,14.296,9.5,19.997,9.5c2.789,0,5.549,0.742,7.978,2.145c7.632,4.406,10.259,14.202,5.851,21.838
					C30.979,38.414,25.666,41.477,19.967,41.477z M19.997,11.409c-5.022,0-9.699,2.698-12.206,7.041
					C3.91,25.172,6.223,33.798,12.943,37.68c2.14,1.234,4.568,1.889,7.023,1.889c5.021,0,9.697-2.699,12.206-7.041
					c3.879-6.724,1.569-15.35-5.152-19.23C24.88,12.062,22.451,11.409,19.997,11.409z"/>
			</g>
			<g>
				<path fill="#2F5068" d="M45.993,56.502c-2.791,0-5.549-0.741-7.979-2.145c-3.697-2.135-6.344-5.582-7.448-9.705
					c-1.106-4.127-0.539-8.434,1.598-12.131c2.848-4.932,8.157-7.996,13.858-7.996c2.79,0,5.548,0.741,7.978,2.144
					c3.698,2.136,6.342,5.582,7.448,9.708c1.105,4.124,0.538,8.432-1.597,12.13C57.002,53.438,51.693,56.502,45.993,56.502z
					 M46.021,26.436c-5.022,0-9.699,2.697-12.205,7.041c-1.881,3.255-2.38,7.049-1.408,10.681c0.974,3.632,3.304,6.667,6.561,8.548
					c2.14,1.235,4.569,1.888,7.024,1.888c5.021,0,9.696-2.697,12.203-7.041c1.88-3.256,2.38-7.049,1.407-10.681
					s-3.302-6.668-6.559-8.549C50.905,27.088,48.477,26.436,46.021,26.436z"/>
			</g>
		</g>
		<g>
			<g>
				<g>
					<path fill="#2F5068" d="M32.993,33.96c-8.813,0-15.984-7.171-15.984-15.985S24.18,1.988,32.993,1.988
						c8.816,0,15.987,7.172,15.987,15.986S41.81,33.96,32.993,33.96z M32.993,3.897c-7.761,0-14.074,6.314-14.074,14.077
						c0,7.762,6.313,14.076,14.074,14.076c7.762,0,14.078-6.314,14.078-14.076C47.071,10.212,40.755,3.897,32.993,3.897z"/>
				</g>
				<g>
					<path fill="#2F5068" d="M32.993,64.012c-8.813,0-15.984-7.172-15.984-15.986S24.18,32.04,32.993,32.04
						c8.816,0,15.987,7.171,15.987,15.985S41.81,64.012,32.993,64.012z M32.993,33.949c-7.761,0-14.074,6.314-14.074,14.076
						c0,7.763,6.313,14.077,14.074,14.077c7.762,0,14.078-6.314,14.078-14.077C47.071,40.264,40.755,33.949,32.993,33.949z"/>
				</g>
			</g>
			<g>
				<g>
					<path fill="#2F5068" d="M19.998,56.502c-5.701,0-11.012-3.062-13.859-7.994c-4.405-7.634-1.781-17.431,5.852-21.839
						c2.429-1.401,5.186-2.144,7.976-2.144c5.7,0,11.013,3.064,13.861,7.996c4.406,7.633,1.78,17.43-5.852,21.838
						C25.547,55.761,22.786,56.502,19.998,56.502z M19.966,26.436c-2.455,0-4.883,0.652-7.021,1.887
						c-6.721,3.882-9.033,12.51-5.152,19.23c2.508,4.343,7.184,7.041,12.206,7.041c2.455,0,4.883-0.653,7.023-1.889
						c6.722-3.881,9.031-12.507,5.153-19.229C29.665,29.133,24.987,26.436,19.966,26.436z"/>
				</g>
				<g>
					<path fill="#2F5068" d="M46.021,41.477c-5.7,0-11.01-3.062-13.857-7.994c-2.137-3.697-2.704-8.006-1.599-12.131
						s3.752-7.572,7.449-9.707c2.43-1.402,5.188-2.145,7.979-2.145c5.701,0,11.01,3.063,13.857,7.996
						c2.135,3.697,2.702,8.006,1.599,12.13c-1.106,4.125-3.751,7.571-7.45,9.706C51.57,40.734,48.812,41.477,46.021,41.477z
						 M45.993,11.409c-2.455,0-4.884,0.653-7.022,1.888c-3.258,1.881-5.589,4.916-6.562,8.549c-0.971,3.632-0.472,7.426,1.41,10.684
						c2.505,4.342,7.183,7.039,12.203,7.039c2.455,0,4.884-0.654,7.023-1.889c3.259-1.881,5.587-4.916,6.56-8.547
						c0.973-3.633,0.475-7.426-1.408-10.682C55.69,14.107,51.015,11.409,45.993,11.409z"/>
				</g>
			</g>
		</g>
	</g>
	<g>
		<path fill="#EA789B" d="M47.071,17.975c0-2.363-0.592-4.59-1.627-6.548c-2.268,0.091-4.494,0.728-6.474,1.87
			c-2.023,1.168-3.685,2.781-4.89,4.704c1.659,3.136,2.248,6.769,1.615,10.312c2.704-2.276,6.124-3.633,9.738-3.768
			C46.476,22.583,47.071,20.348,47.071,17.975z"/>
		<path fill="#1DFAFF" d="M27.975,11.645c2.051,1.184,3.728,2.766,5.016,4.582c1.312-1.848,3.004-3.415,5.024-4.582
			c1.93-1.115,4.071-1.805,6.269-2.043c-2.569-3.453-6.666-5.704-11.29-5.704c-4.622,0-8.72,2.251-11.288,5.704
			C23.904,9.84,26.044,10.529,27.975,11.645z"/>
		<path fill="#1AC4FF" d="M21.705,9.602c2.199,0.238,4.339,0.928,6.27,2.043c2.051,1.184,3.728,2.766,5.016,4.582
			c1.312-1.848,3.004-3.415,5.024-4.582c1.93-1.115,4.071-1.805,6.269-2.043"/>
		<path fill="#FF9100" d="M44.12,26.564c-3.659,0.502-6.996,2.43-9.254,5.347C38.621,31.408,41.907,29.426,44.12,26.564z"/>
		<path fill="#EA789B" d="M27.59,33c-3.385-1.221-6.235-3.547-8.124-6.549c-2.283,0.082-4.527,0.721-6.521,1.871
			c-2.045,1.182-3.676,2.807-4.854,4.68c1.178,1.873,2.808,3.496,4.853,4.678c1.994,1.15,4.237,1.789,6.521,1.872
			C21.354,36.549,24.205,34.223,27.59,33z"/>
		<path fill="#1DFAFF" d="M7.791,18.45c-2.312,4.005-2.411,8.683-0.702,12.634c1.273-1.747,2.912-3.266,4.901-4.415
			c1.993-1.149,4.207-1.847,6.478-2.063c-0.929-2.022-1.459-4.264-1.459-6.631c0-2.302,0.498-4.486,1.379-6.467
			C13.992,12.018,10.026,14.576,7.791,18.45z"/>
		<path fill="#1AC4FF" d="M7.089,31.084c1.273-1.747,2.912-3.266,4.901-4.415c1.993-1.149,4.207-1.847,6.478-2.063
			c-0.929-2.022-1.459-4.264-1.459-6.631c0-2.302,0.498-4.486,1.379-6.467"/>
		<path fill="#FFE600" d="M44.124,39.438c-2.217-2.863-5.503-4.848-9.26-5.35C37.122,37.009,40.461,38.937,44.124,39.438z"/>
		<path fill="#1DFAFF" d="M38.014,54.357c-2.021-1.166-3.711-2.734-5.023-4.58c-1.288,1.816-2.965,3.396-5.015,4.582
			c-1.93,1.113-4.07,1.803-6.269,2.043c2.568,3.451,6.665,5.7,11.286,5.7c4.624,0,8.719-2.251,11.288-5.702
			C42.084,56.162,39.943,55.473,38.014,54.357z"/>
		<path fill="#1AC4FF" d="M44.281,56.4c-2.197-0.238-4.338-0.928-6.268-2.043c-2.021-1.166-3.711-2.734-5.023-4.58
			c-1.288,1.816-2.965,3.396-5.015,4.582c-1.93,1.113-4.07,1.803-6.269,2.043"/>
		<path fill="#1DFAFF" d="M11.989,39.332c-1.988-1.148-3.627-2.666-4.9-4.412c-1.708,3.951-1.607,8.627,0.703,12.633
			c2.236,3.875,6.201,6.434,10.598,6.941c-0.882-1.98-1.381-4.166-1.381-6.469c0-2.367,0.53-4.606,1.457-6.629
			C16.196,41.18,13.981,40.482,11.989,39.332z"/>
		<path fill="#1AC4FF" d="M18.39,54.494c-0.882-1.98-1.381-4.166-1.381-6.469c0-2.367,0.53-4.606,1.457-6.629
			c-2.27-0.217-4.484-0.914-6.477-2.064c-1.988-1.148-3.627-2.666-4.9-4.412"/>
		<path fill="#1DFAFF" d="M58.196,47.552c1.88-3.256,2.38-7.049,1.407-10.681c-0.182-0.676-0.424-1.322-0.695-1.952
			c-1.294,1.774-2.947,3.281-4.909,4.413c-1.991,1.15-4.205,1.848-6.476,2.064c0.926,2.022,1.457,4.262,1.457,6.629
			c0,2.303-0.5,4.488-1.382,6.469C51.995,53.986,55.961,51.428,58.196,47.552z"/>
		<path fill="#1AC4FF" d="M58.908,34.919c-1.294,1.774-2.947,3.281-4.909,4.413c-1.991,1.15-4.205,1.848-6.476,2.064
			c0.926,2.022,1.457,4.262,1.457,6.629c0,2.303-0.5,4.488-1.382,6.469"/>
		<path fill="#FFA9C8" d="M57.915,33.002c-1.203-1.913-2.856-3.518-4.87-4.68c-1.994-1.15-4.239-1.789-6.523-1.871
			c-1.886,3.002-4.74,5.328-8.124,6.549c3.386,1.223,6.239,3.549,8.126,6.552c2.284-0.083,4.527-0.722,6.521-1.872
			C55.059,36.518,56.712,34.913,57.915,33.002z"/>
		<path fill="#EA789B" d="M47.071,48.025c0-2.372-0.596-4.605-1.636-6.568c-3.613-0.133-7.035-1.489-9.737-3.767
			c0.633,3.543,0.043,7.177-1.617,10.312c1.205,1.924,2.866,3.535,4.888,4.703c1.98,1.143,4.207,1.779,6.476,1.869
			C46.479,52.617,47.071,50.391,47.071,48.025z"/>
		<path fill="#FFA9C8" d="M27.021,52.705c2.054-1.187,3.692-2.82,4.873-4.705c-0.558-1.053-1.015-2.168-1.329-3.348
			c-0.618-2.31-0.694-4.671-0.283-6.955c-2.7,2.273-6.12,3.627-9.729,3.76c-1.04,1.963-1.635,4.196-1.635,6.568
			c0,2.365,0.591,4.592,1.626,6.551C22.813,54.486,25.04,53.848,27.021,52.705z"/>
		<path fill="#1DFAFF" d="M53.999,26.669c1.962,1.133,3.615,2.641,4.91,4.416c0.271-0.63,0.515-1.276,0.695-1.952
			c0.973-3.633,0.475-7.426-1.408-10.682c-2.235-3.876-6.2-6.436-10.596-6.943c0.881,1.98,1.38,4.165,1.38,6.467
			c0,2.367-0.532,4.608-1.459,6.631C49.792,24.822,52.008,25.52,53.999,26.669z"/>
		<path fill="#1AC4FF" d="M47.601,11.508c0.881,1.98,1.38,4.165,1.38,6.467c0,2.367-0.532,4.608-1.459,6.631
			c2.271,0.217,4.486,0.914,6.478,2.063c1.962,1.133,3.615,2.641,4.91,4.416"/>
		<path fill="#FFE600" d="M21.866,39.438c3.661-0.501,6.999-2.43,9.259-5.35C27.366,34.59,24.079,36.574,21.866,39.438z"/>
		<path fill="#FFE600" d="M32.989,20.16c-0.223,0.547-0.423,1.105-0.581,1.686c-0.806,3.015-0.584,6.137,0.585,8.975
			C34.428,27.325,34.354,23.502,32.989,20.16z"/>
		<path fill="#FFA9C8" d="M18.919,17.975c0,2.373,0.595,4.608,1.637,6.57c3.607,0.135,7.026,1.488,9.727,3.761
			c-0.41-2.284-0.333-4.646,0.283-6.954c0.316-1.178,0.771-2.294,1.33-3.349c-1.182-1.884-2.82-3.519-4.875-4.706
			c-1.98-1.143-4.209-1.779-6.478-1.87C19.51,13.385,18.919,15.611,18.919,17.975z"/>
		<path fill="#FF9100" d="M32.408,44.157c0.157,0.581,0.358,1.14,0.582,1.687c1.365-3.342,1.44-7.168,0.004-10.664
			C31.824,38.018,31.601,41.142,32.408,44.157z"/>
		<path fill="#FF9100" d="M21.867,26.564c2.215,2.863,5.501,4.846,9.256,5.348C28.863,28.994,25.527,27.066,21.867,26.564z"/>
	</g>
</g>
</svg>
