<?xml version="1.0" encoding="utf-8"?>
<!-- Generator: Adobe Illustrator 16.0.0, SVG Export Plug-In . SVG Version: 6.00 Build 0)  -->
<!DOCTYPE svg PUBLIC "-//W3C//DTD SVG 1.1//EN" "http://www.w3.org/Graphics/SVG/1.1/DTD/svg11.dtd">
<svg version="1.1" id="Layer_1" xmlns="http://www.w3.org/2000/svg" xmlns:xlink="http://www.w3.org/1999/xlink" x="0px" y="0px"
	 width="66px" height="66px" viewBox="0 0 66 66" enable-background="new 0 0 66 66" xml:space="preserve">
<g>
	<g>
		<circle fill="#FF9700" cx="33" cy="33" r="30.016"/>
		<path fill="#FF6D00" d="M63.016,33c0,16.577-13.439,30.016-30.016,30.016"/>
		<path fill="#FFC200" d="M2.984,33C2.984,16.423,16.423,2.984,33,2.984"/>
		<path fill="#2F5068" d="M33,64C15.907,64,2,50.094,2,33S15.907,2,33,2s31,13.906,31,31S50.093,64,33,64z M33,3.969
			C16.992,3.969,3.968,16.992,3.968,33S16.992,62.031,33,62.031S62.032,49.008,62.032,33S49.008,3.969,33,3.969z"/>
	</g>
	<g>
		<polygon fill="#707A7F" points="33,3.103 7.196,47 58.803,47 		"/>
		<polygon fill="#4D5B60" points="39.446,14.009 33,3.072 7.196,47 20.088,47 		"/>
		<path fill="#2F5068" d="M58.803,48H7.196c-0.353,0-0.678-0.257-0.854-0.562c-0.175-0.307-0.173-0.717,0.005-1.021L32.151,2.502
			c0.354-0.602,1.344-0.609,1.697-0.008l25.804,43.893c0.179,0.305,0.181,0.746,0.005,1.053C59.482,47.746,59.156,48,58.803,48z
			 M8.917,46h48.166L33,5.029L8.917,46z"/>
	</g>
	<g>
		<polygon fill="#FFC200" points="33,46.756 45.788,25 20.212,25 		"/>
		<polygon fill="#FF9700" points="33,46.756 45.788,25 28.985,25 		"/>
		<path fill="#2F5068" d="M33,47.865c-0.349,0-0.672-0.186-0.849-0.486L19.362,25.624c-0.179-0.305-0.181-0.752-0.005-1.059
			C19.533,24.26,19.858,24,20.212,24h25.576c0.352,0,0.678,0.26,0.854,0.565c0.174,0.307,0.172,0.719-0.006,1.023L33.849,47.361
			C33.672,47.662,33.349,47.865,33,47.865z M21.932,26L33,44.829L44.067,26H21.932z"/>
	</g>
</g>
</svg>
