<?xml version="1.0" encoding="utf-8"?>
<!-- Generator: Adobe Illustrator 16.0.0, SVG Export Plug-In . SVG Version: 6.00 Build 0)  -->
<!DOCTYPE svg PUBLIC "-//W3C//DTD SVG 1.1//EN" "http://www.w3.org/Graphics/SVG/1.1/DTD/svg11.dtd">
<svg version="1.1" id="Layer_1" xmlns="http://www.w3.org/2000/svg" xmlns:xlink="http://www.w3.org/1999/xlink" x="0px" y="0px"
	 width="66px" height="66px" viewBox="0 0 66 66" enable-background="new 0 0 66 66" xml:space="preserve">
<g>
	<g>
		<g>
			<circle fill="#19CBF4" cx="9.311" cy="42.271" r="1.062"/>
		</g>
		<g>
			<circle fill="#19CBF4" cx="9.311" cy="46.333" r="1.062"/>
		</g>
		<g>
			<circle fill="#19CBF4" cx="9.311" cy="50.396" r="1.062"/>
		</g>
	</g>
	<g>
		<g>
			<g>
				<g>
					<g>
						<path fill="#646B68" d="M33,20.27c-9.482,0-17.752,5.121-22.258,12.73C15.248,40.609,23.518,45.73,33,45.73
							c9.484,0,17.754-5.121,22.258-12.73C50.754,25.391,42.484,20.27,33,20.27z"/>
					</g>
					<g>
						<path fill="#4A5450" d="M10.742,33C15.248,40.609,23.518,45.73,33,45.73c9.484,0,17.754-5.121,22.258-12.73"/>
					</g>
					<g>
						<path fill="#0F261E" d="M33,48.23c-9.959,0-19.312-5.348-24.408-13.957c-0.465-0.785-0.465-1.762,0-2.547
							C13.688,23.117,23.041,17.77,33,17.77s19.312,5.348,24.41,13.957c0.465,0.785,0.465,1.762,0,2.547
							C52.312,42.883,42.959,48.23,33,48.23z M13.705,33C18.041,39.346,25.303,43.23,33,43.23c7.699,0,14.961-3.885,19.297-10.23
							C47.961,26.654,40.699,22.77,33,22.77C25.303,22.77,18.041,26.654,13.705,33z"/>
					</g>
				</g>
				<g>
					<g>
						<g>
							<line fill="#4A5450" x1="3.488" y1="33" x2="10.895" y2="33"/>
						</g>
						<g>
							<path fill="#0F261E" d="M10.895,35.5H3.488c-1.381,0-2.5-1.119-2.5-2.5s1.119-2.5,2.5-2.5h7.406c1.381,0,2.5,1.119,2.5,2.5
								S12.275,35.5,10.895,35.5z"/>
						</g>
					</g>
					<g>
						<g>
							<line fill="#4A5450" x1="55.104" y1="33" x2="62.512" y2="33"/>
						</g>
						<g>
							<path fill="#0F261E" d="M62.512,35.5h-7.408c-1.381,0-2.5-1.119-2.5-2.5s1.119-2.5,2.5-2.5h7.408c1.383,0,2.5,1.119,2.5,2.5
								S63.895,35.5,62.512,35.5z"/>
						</g>
					</g>
				</g>
			</g>
			<g>
				<g>
					<g>
						<line fill="#4A5450" x1="28.168" y1="8.333" x2="37.834" y2="8.333"/>
					</g>
					<g>
						<path fill="#0F261E" d="M37.834,10.833h-9.666c-1.381,0-2.5-1.119-2.5-2.5s1.119-2.5,2.5-2.5h9.666c1.381,0,2.5,1.119,2.5,2.5
							S39.215,10.833,37.834,10.833z"/>
					</g>
				</g>
				<g>
					<g>
						<line fill="#4A5450" x1="28.168" y1="57.667" x2="37.834" y2="57.667"/>
					</g>
					<g>
						<path fill="#0F261E" d="M37.834,60.167h-9.666c-1.381,0-2.5-1.119-2.5-2.5s1.119-2.5,2.5-2.5h9.666c1.381,0,2.5,1.119,2.5,2.5
							S39.215,60.167,37.834,60.167z"/>
					</g>
				</g>
			</g>
		</g>
		<g>
			<g>
				<circle fill="#19CBF4" cx="33.001" cy="33.001" r="6.583"/>
			</g>
			<g>
				<path fill="#6CEAFF" d="M39.584,33.001c0,3.635-2.947,6.582-6.582,6.582c-3.637,0-6.584-2.947-6.584-6.582"/>
			</g>
			<g>
				<path fill="#0F261E" d="M33.002,42.083c-5.01,0-9.084-4.074-9.084-9.082c0-5.009,4.074-9.084,9.084-9.084
					c5.008,0,9.082,4.075,9.082,9.084C42.084,38.009,38.01,42.083,33.002,42.083z M33.002,28.917c-2.252,0-4.084,1.832-4.084,4.084
					c0,2.251,1.832,4.082,4.084,4.082c2.25,0,4.082-1.831,4.082-4.082C37.084,30.749,35.252,28.917,33.002,28.917z"/>
			</g>
		</g>
	</g>
</g>
</svg>
