<?xml version="1.0" encoding="utf-8"?>
<!-- Generator: Adobe Illustrator 16.0.0, SVG Export Plug-In . SVG Version: 6.00 Build 0)  -->
<!DOCTYPE svg PUBLIC "-//W3C//DTD SVG 1.1//EN" "http://www.w3.org/Graphics/SVG/1.1/DTD/svg11.dtd">
<svg version="1.1" id="Layer_1" xmlns="http://www.w3.org/2000/svg" xmlns:xlink="http://www.w3.org/1999/xlink" x="0px" y="0px"
	 width="66px" height="66px" viewBox="0 0 66 66" enable-background="new 0 0 66 66" xml:space="preserve">
<g>
	<path fill="#00233F" d="M53,61.809c0,1.484-1.203,2.688-2.688,2.688H15.688c-1.484,0-2.688-1.203-2.688-2.688V5.691
		c0-1.484,1.203-2.688,2.688-2.688h34.625C51.797,3.004,53,4.207,53,5.691V61.809z"/>
	<path fill="#0C466D" d="M53,60.309c0,1.484-1.203,2.688-2.688,2.688H15.688c-1.484,0-2.688-1.203-2.688-2.688V4.191
		c0-1.484,1.203-2.688,2.688-2.688h34.625C51.797,1.504,53,2.707,53,4.191V60.309z"/>
	<path fill="#00233F" d="M13,4.191c0-1.484,1.203-2.688,2.688-2.688h34.625C51.797,1.504,53,2.707,53,4.191v56.117
		c0,1.484-1.203,2.688-2.688,2.688"/>
	<path fill="#00233F" d="M50.277,54.55c0,1.281-1.039,2.321-2.322,2.321h-29.91c-1.283,0-2.322-1.04-2.322-2.321V8.074
		c0-1.283,1.039-2.322,2.322-2.322h29.91c1.283,0,2.322,1.039,2.322,2.322V54.55z"/>
	<path fill="#35DBDB" d="M50.277,52.925c0,1.281-1.039,2.321-2.322,2.321h-29.91c-1.283,0-2.322-1.04-2.322-2.321V6.449
		c0-1.283,1.039-2.322,2.322-2.322h29.91c1.283,0,2.322,1.039,2.322,2.322V52.925z"/>
	<path fill="#1FC5C9" d="M15.723,6.449c0-1.283,1.039-2.322,2.322-2.322h29.91c1.283,0,2.322,1.039,2.322,2.322v46.476
		c0,1.281-1.039,2.321-2.322,2.321"/>
	<path fill="#12AAB2" d="M47.955,4.127c1.283,0,2.322,1.039,2.322,2.322v46.476c0,1.281-1.039,2.321-2.322,2.321"/>
	<path fill="#57F2EE" d="M18.045,55.246c-1.283,0-2.322-1.04-2.322-2.321V6.449c0-1.283,1.039-2.322,2.322-2.322"/>
	<path fill="#03355B" stroke="#71A7BF" stroke-width="0.25" stroke-miterlimit="10" d="M39.084,60.45
		c0,0.653-0.53,1.184-1.184,1.184H28.1c-0.653,0-1.184-0.53-1.184-1.184v-1.479c0-0.654,0.53-1.185,1.184-1.185H37.9
		c0.653,0,1.184,0.53,1.184,1.185V60.45z"/>
	<g>
		<path fill="#71A7BF" d="M22.905,58.647c0,0.092-0.075,0.166-0.167,0.166h-3.334c-0.092,0-0.166-0.074-0.166-0.166l0,0
			c0-0.092,0.074-0.166,0.166-0.166h3.334C22.83,58.481,22.905,58.556,22.905,58.647L22.905,58.647z"/>
		<path fill="#71A7BF" d="M22.905,59.71c0,0.092-0.075,0.166-0.167,0.166h-3.334c-0.092,0-0.166-0.074-0.166-0.166l0,0
			c0-0.092,0.074-0.166,0.166-0.166h3.334C22.83,59.544,22.905,59.618,22.905,59.71L22.905,59.71z"/>
		<path fill="#71A7BF" d="M22.905,60.772c0,0.092-0.075,0.166-0.167,0.166h-3.334c-0.092,0-0.166-0.074-0.166-0.166l0,0
			c0-0.092,0.074-0.166,0.166-0.166h3.334C22.83,60.606,22.905,60.681,22.905,60.772L22.905,60.772z"/>
	</g>
	<g>
		<path fill="#71A7BF" d="M45.572,58.647c0,0.092-0.075,0.166-0.167,0.166h-3.334c-0.092,0-0.166-0.074-0.166-0.166l0,0
			c0-0.092,0.074-0.166,0.166-0.166h3.334C45.497,58.481,45.572,58.556,45.572,58.647L45.572,58.647z"/>
		<path fill="#71A7BF" d="M45.406,61.544c-0.092,0-0.166-0.062-0.166-0.136v-2.696c0-0.074,0.074-0.135,0.166-0.135l0,0
			c0.092,0,0.166,0.061,0.166,0.135v2.696C45.572,61.482,45.498,61.544,45.406,61.544L45.406,61.544z"/>
	</g>
	<path fill="#1FC5C9" d="M20.677,2.813c0,0.143-0.115,0.258-0.259,0.258h-1.734c-0.143,0-0.258-0.115-0.258-0.258l0,0
		c0-0.143,0.115-0.258,0.258-0.258h1.734C20.562,2.556,20.677,2.671,20.677,2.813L20.677,2.813z"/>
	<circle fill="#1FC5C9" cx="47.093" cy="2.813" r="0.667"/>
</g>
</svg>
