<?xml version="1.0" encoding="utf-8"?>
<!-- Generator: Adobe Illustrator 16.0.0, SVG Export Plug-In . SVG Version: 6.00 Build 0)  -->
<!DOCTYPE svg PUBLIC "-//W3C//DTD SVG 1.1//EN" "http://www.w3.org/Graphics/SVG/1.1/DTD/svg11.dtd">
<svg version="1.1" id="Layer_1" xmlns="http://www.w3.org/2000/svg" xmlns:xlink="http://www.w3.org/1999/xlink" x="0px" y="0px"
	 width="66px" height="66px" viewBox="0 0 66 66" enable-background="new 0 0 66 66" xml:space="preserve">
<g>
	<path fill="#A1E5F7" d="M53.136,51c4.716-5,7.614-11.898,7.614-19.294C60.75,16.381,48.326,3.851,33,3.851S5.25,16.434,5.25,31.759
		C5.25,39.154,8.148,46,12.864,51H53.136z"/>
	<path fill="#61CCF2" d="M13,51h40.136c4.716-5,7.614-11.898,7.614-19.294c0-15.325-12.355-27.645-27.682-27.645"/>
	<path fill="#BCBCBC" d="M59.603,57.5c0,3.683-0.17,6.5-3.853,6.5H9.937c-3.682,0-3.667-2.817-3.667-6.5l0,0
		c0-3.683,2.985-6.5,6.667-6.5h39.999C56.618,51,59.603,53.817,59.603,57.5L59.603,57.5z"/>
	<path fill="#A5A5A5" d="M59.603,57.457L59.603,57.457c0,3.682-0.17,6.543-3.853,6.543H9.937c-3.682,0-3.667-2.923-3.667-6.605l0,0"
		/>
	<circle fill="#D7F7FF" cx="17.001" cy="20.579" r="1.667"/>
	<circle fill="#D7F7FF" cx="20.959" cy="15.87" r="0.458"/>
	<circle fill="#D7F7FF" cx="16.917" cy="30.495" r="2.083"/>
	<circle fill="#D7F7FF" cx="23.417" cy="25.579" r="0.417"/>
	<circle fill="#D7F7FF" cx="19.375" cy="25.204" r="0.292"/>
	<circle fill="#D7F7FF" cx="22.917" cy="20.245" r="0.667"/>
	<circle fill="#D7F7FF" cx="29.125" cy="12.87" r="0.542"/>
	<circle fill="#D7F7FF" cx="25.084" cy="9.746" r="1"/>
	<circle fill="#D7F7FF" cx="13.459" cy="36.704" r="0.458"/>
	<circle fill="#D7F7FF" cx="16.876" cy="35.871" r="0.375"/>
	<circle fill="#D7F7FF" cx="11.959" cy="40.038" r="0.792"/>
	<circle fill="#D7F7FF" cx="12.167" cy="32.579" r="0.917"/>
	
		<ellipse transform="matrix(-0.917 -0.3988 0.3988 -0.917 13.132 44.7008)" fill="#D7F7FF" cx="11.216" cy="20.984" rx="2.544" ry="8.724"/>
	<path fill="#0EB1DD" d="M53.136,51c4.716-4.974,7.614-12.108,7.614-19.504c0-15.325-12.424-27.75-27.75-27.75"/>
	<circle fill="#A1E5F7" cx="30.875" cy="20.787" r="0.875"/>
	<circle fill="#A1E5F7" cx="29.333" cy="25.329" r="0.25"/>
	<circle fill="#A1E5F7" cx="35.833" cy="17.913" r="1.833"/>
	<circle fill="#A1E5F7" cx="42.458" cy="29.37" r="0.708"/>
	<circle fill="#A1E5F7" cx="29.5" cy="18.913" r="0.417"/>
	<circle fill="#A1E5F7" cx="27.208" cy="26.288" r="0.458"/>
	<circle fill="#A1E5F7" cx="26.042" cy="32.038" r="1.042"/>
	<circle fill="#A1E5F7" cx="36.375" cy="23.87" r="0.958"/>
	<circle fill="#A1E5F7" cx="33.458" cy="12.787" r="0.875"/>
	<circle fill="#A1E5F7" cx="33.167" cy="8.329" r="0.583"/>
	<circle fill="#A1E5F7" cx="32.75" cy="23.829" r="0.583"/>
	<circle fill="#A1E5F7" cx="35" cy="28.745" r="1.333"/>
	<circle fill="#A1E5F7" cx="39.125" cy="25.954" r="0.375"/>
	<circle fill="#A1E5F7" cx="38.458" cy="21.371" r="0.625"/>
	<g>
		<rect x="27" y="41" fill="#0A9ACC" width="12" height="9"/>
		<path fill="#0A9ACC" d="M40.833,40.5c0,0.428-0.467,0.5-1.043,0.5H26.208c-0.576,0-1.041-0.072-1.041-0.5l0,0
			c0-0.43,0.465-0.5,1.041-0.5H39.79C40.366,40,40.833,40.07,40.833,40.5L40.833,40.5z"/>
	</g>
	<circle fill="#61CCF2" cx="43.125" cy="14.37" r="0.292"/>
	<circle fill="#61CCF2" cx="46.376" cy="20.621" r="1.875"/>
	<circle fill="#61CCF2" cx="49.417" cy="30.413" r="0.417"/>
	<circle fill="#61CCF2" cx="50.125" cy="33.954" r="0.458"/>
	<circle fill="#61CCF2" cx="54.417" cy="32.579" r="0.333"/>
	<circle fill="#61CCF2" cx="55.334" cy="38.412" r="1.25"/>
	<circle fill="#61CCF2" cx="51.959" cy="39.121" r="0.292"/>
	<circle fill="#61CCF2" cx="45.626" cy="25.454" r="0.375"/>
	<circle fill="#61CCF2" cx="51.959" cy="25.537" r="2.208"/>
	<circle fill="#61CCF2" cx="52.876" cy="30.454" r="0.875"/>
	<circle fill="#61CCF2" cx="41.542" cy="19.37" r="0.458"/>
	<circle fill="#61CCF2" cx="38.334" cy="10.496" r="0.5"/>
	<circle fill="#61CCF2" cx="44.792" cy="17.038" r="0.292"/>
	<circle fill="#61CCF2" cx="51.583" cy="20.413" r="0.667"/>
	<circle fill="#61CCF2" cx="49.459" cy="15.954" r="1.375"/>
	<ellipse fill="#61CCF2" cx="56.417" cy="24.412" rx="0" ry="0.75"/>
	<circle fill="#61CCF2" cx="43.084" cy="11.162" r="1"/>
	<circle fill="#61CCF2" cx="40.875" cy="7.788" r="0.708"/>
	<path fill="#EDB311" d="M35.594,3.376c0,0.829-0.771,1.624-1.6,1.624h-1.988c-0.828,0-1.6-0.783-1.6-1.611l0,0
		C30.406,2.56,31.125,2,31.953,2h2.234C35.016,2,35.594,2.548,35.594,3.376L35.594,3.376z"/>
	<path fill="#EA8D13" d="M35.594,3.376L35.594,3.376c0,0.883-0.716,1.624-1.6,1.624h-1.988c-0.884,0-1.6-0.729-1.6-1.611l0,0"/>
	<path fill="#0A9ACC" d="M51,50c0,0.553-0.447,1-1,1H16c-0.553,0-1-0.447-1-1l0,0c0-0.553,0.447-1,1-1h34C50.553,49,51,49.447,51,50
		L51,50z"/>
	<polygon fill="#0A9ACC" points="40.691,40.766 33,40.457 25.309,40.766 33,33.075 	"/>
	<path fill="#0A9ACC" d="M43,49.219C43,49.65,42.65,50,42.219,50h-0.438C41.35,50,41,49.65,41,49.219v-4.438
		C41,44.35,41.35,44,41.781,44h0.438C42.65,44,43,44.35,43,44.781V49.219z"/>
	<path fill="#0A9ACC" d="M46,49.219C46,49.65,45.65,50,45.219,50h-0.438C44.35,50,44,49.65,44,49.219v-4.438
		C44,44.35,44.35,44,44.781,44h0.438C45.65,44,46,44.35,46,44.781V49.219z"/>
	<path fill="#0A9ACC" d="M49,49.219C49,49.65,48.65,50,48.219,50h-0.438C47.35,50,47,49.65,47,49.219v-4.438
		C47,44.35,47.35,44,47.781,44h0.438C48.65,44,49,44.35,49,44.781V49.219z"/>
	<path fill="#0A9ACC" d="M50,47.688C50,47.86,49.86,48,49.688,48h-9.375C40.14,48,40,47.86,40,47.688v-0.375
		C40,47.14,40.14,47,40.312,47h9.375C49.86,47,50,47.14,50,47.312V47.688z"/>
	<circle fill="#61CCF2" cx="31.5" cy="44.267" r="2.25"/>
	<rect x="31" y="41" fill="#0A9ACC" width="1" height="8"/>
	<rect x="28" y="44" fill="#0A9ACC" width="7" height="1"/>
	<rect x="36" y="33" fill="#0A9ACC" width="3" height="8"/>
	<path fill="#0A9ACC" d="M40,33.219C40,33.65,39.65,34,39.219,34h-3.438C35.35,34,35,33.65,35,33.219v-0.438
		C35,32.35,35.35,32,35.781,32h3.438C39.65,32,40,32.35,40,32.781V33.219z"/>
	<polygon fill="#0A9ACC" points="23.148,46 23.923,46 22.807,44 23.34,44 22.359,42 22.734,42 21.111,38.596 19.49,42 19.865,42 
		18.886,44 19.418,44 18.302,46 19.043,46 17.566,49 20.104,49 24.625,49 	"/>
	<polygon fill="#0A9ACC" points="18.925,47 19.379,47 18.725,46 19.037,46 18.462,45 18.682,45 17.729,43.003 16.778,45 16.998,45 
		16.424,46 16.736,46 16.081,47 16.516,47 15.649,49 17.139,49 19.791,49 	"/>
	<polygon fill="#0A9ACC" points="26.175,47 26.629,47 25.975,46 26.287,46 25.712,45 25.932,45 24.979,43.003 24.028,45 24.248,45 
		23.674,46 23.986,46 23.331,47 23.766,47 22.899,49 24.389,49 27.041,49 	"/>
	<g>
		<g>
			<circle fill="#BCBCBC" cx="14.875" cy="57.694" r="1.531"/>
			<path fill="#A5A5A5" d="M13.345,57.694c0-0.846,0.686-1.531,1.53-1.531c0.846,0,1.531,0.686,1.531,1.531"/>
		</g>
		<g>
			<circle fill="#BCBCBC" cx="22.125" cy="57.694" r="1.531"/>
			<path fill="#A5A5A5" d="M20.595,57.694c0-0.846,0.686-1.531,1.53-1.531c0.846,0,1.531,0.686,1.531,1.531"/>
		</g>
		<g>
			<circle fill="#BCBCBC" cx="29.375" cy="57.694" r="1.531"/>
			<path fill="#A5A5A5" d="M27.845,57.694c0-0.846,0.686-1.531,1.53-1.531c0.846,0,1.531,0.686,1.531,1.531"/>
		</g>
		<g>
			<circle fill="#BCBCBC" cx="36.625" cy="57.694" r="1.531"/>
			<path fill="#A5A5A5" d="M35.095,57.694c0-0.846,0.686-1.531,1.53-1.531c0.846,0,1.531,0.686,1.531,1.531"/>
		</g>
		<g>
			<circle fill="#BCBCBC" cx="43.875" cy="57.694" r="1.531"/>
			<path fill="#A5A5A5" d="M42.345,57.694c0-0.846,0.686-1.531,1.53-1.531c0.846,0,1.531,0.686,1.531,1.531"/>
		</g>
		<g>
			<circle fill="#BCBCBC" cx="51.125" cy="57.694" r="1.531"/>
			<path fill="#A5A5A5" d="M49.595,57.694c0-0.846,0.686-1.531,1.53-1.531c0.846,0,1.531,0.686,1.531,1.531"/>
		</g>
	</g>
</g>
</svg>
