<?xml version="1.0" encoding="utf-8"?>
<!-- Generator: Adobe Illustrator 16.0.0, SVG Export Plug-In . SVG Version: 6.00 Build 0)  -->
<!DOCTYPE svg PUBLIC "-//W3C//DTD SVG 1.1//EN" "http://www.w3.org/Graphics/SVG/1.1/DTD/svg11.dtd">
<svg version="1.1" id="Layer_1" xmlns="http://www.w3.org/2000/svg" xmlns:xlink="http://www.w3.org/1999/xlink" x="0px" y="0px"
	 width="66px" height="66px" viewBox="0 0 66 66" enable-background="new 0 0 66 66" xml:space="preserve">
<g>
	<g>
		<g>
			<path fill="#F7441C" d="M53.716,32.779c-1.328,0-2.578,0.254-3.753,0.762c-0.247-2.926-1.155-5.604-2.726-8.031
				c-1.567-2.428-3.62-4.346-6.158-5.75c-2.539-1.402-5.281-2.105-8.223-2.105c-1.271,0-2.364,0.156-3.653,0.467
				c-0.596,0.195-0.709,0.801-0.709,1.814V51.77c0,0.115-0.143,0.254-0.055,0.408c0.088,0.156,0.124,0.264,0.299,0.322l25.052,0.029
				c2.674,0,4.944-0.967,6.857-2.896c1.917-1.932,2.858-4.262,2.858-6.994c0-2.711-0.959-5.029-2.876-6.963
				C58.717,33.746,56.406,32.779,53.716,32.779z"/>
			<path fill="#F7441C" d="M53.716,32.779c-1.328,0-2.578,0.254-3.753,0.762c-0.247-2.926-1.155-5.604-2.726-8.031
				c-1.567-2.428-3.62-4.346-6.158-5.75c-2.539-1.402-5.281-2.105-8.223-2.105c-1.271,0-2.364,0.156-3.653,0.467
				c-0.596,0.195-0.709,0.801-0.709,1.814V51.77c0,0.115-0.143,0.254-0.055,0.408c0.088,0.156,0.124,0.264,0.299,0.322l25.052,0.029
				c2.674,0,4.944-0.967,6.857-2.896c1.917-1.932,2.858-4.262,2.858-6.994c0-2.711-0.959-5.029-2.876-6.963
				C58.717,33.746,56.406,32.779,53.716,32.779z"/>
			<path fill="#FF7639" d="M60.624,35.676c-1.913-1.93-4.218-2.896-6.908-2.896c-1.328,0-2.578,0.254-3.753,0.762
				c-0.247-2.926-1.155-5.604-2.726-8.031c-1.567-2.428-3.62-4.346-6.158-5.75c-2.539-1.402-5.281-2.105-8.223-2.105
				c-1.271,0-2.363,0.156-3.653,0.467c-0.463,0.154-0.25,0.477-0.354,1.129c0.758-0.109,0.834-0.082,1.585-0.082
				c2.941,0,5.684,0.703,8.223,2.105c2.538,1.404,4.591,3.322,6.158,5.75c1.57,2.428,2.479,5.105,2.726,8.031
				c1.175-0.508,2.425-0.762,3.753-0.762c2.69,0,4.995,0.967,6.908,2.896c1.917,1.934,2.87,4.252,2.87,6.963
				c0,2.732-0.953,5.062-2.87,6.994c-0.224,0.227-0.456,0.439-0.691,0.637c1.131-0.482,2.169-1.197,3.113-2.15
				c1.917-1.932,2.87-4.262,2.87-6.994C63.494,39.928,62.541,37.609,60.624,35.676z"/>
			<path fill="#F7441C" d="M4.602,35.617c-0.576,0-1.071,0.211-1.485,0.631c-0.413,0.418-0.622,0.932-0.622,1.535v8.486
				c0,0.779,0.104,1.59,0.661,1.988c0.559,0.4,1.331,0.32,1.967,0.203c0.596-0.115,0.892-0.33,1.134-0.643
				c0.238-0.312,0.238-0.828,0.238-1.549v-8.486c0-0.604-0.086-1.117-0.5-1.535C5.582,35.828,5.198,35.617,4.602,35.617z"/>
			<path fill="#F4921E" d="M10.238,27.982c-0.578,0-0.893,0.209-1.305,0.629c-0.413,0.418-0.439,0.922-0.439,1.506v19.779
				c0,0.564,0.016,0.988,0.411,1.273c0.392,0.281,0.809,0.424,1.424,0.424c0.635,0,1.165-0.143,1.557-0.424
				c0.397-0.285,0.608-0.709,0.608-1.273V30.117c0-0.584-0.268-1.088-0.68-1.506C11.398,28.191,10.834,27.982,10.238,27.982z"/>
			<path fill="#F7441C" d="M16.903,30.588c-0.599,0-1.229,0.213-1.651,0.643c-0.423,0.428-0.758,0.945-0.758,1.549v18.203l0,0
				c0,0,0.165,0.703,0.569,0.984c0.404,0.283,1.174,0.6,1.81,0.6c0.613,0,1.377-0.16,1.771-0.443c0.395-0.281,0.85-0.725,0.85-1.291
				V32.779c0-0.604-0.449-1.121-0.863-1.549C18.217,30.801,17.479,30.588,16.903,30.588z"/>
			<path fill="#F4921E" d="M24.098,18.883c-0.635-0.156-1.163,0.029-1.778,0.557c-0.614,0.525-0.825,1.268-0.825,2.223V50.92l0,0
				c0,1.072,0.576,1.609,2,1.609s2-0.537,2-1.609V21.662C25.494,20.023,25.078,19.098,24.098,18.883z"/>
			<path fill="#FF7639" d="M5.994,36.248c-0.412-0.42-0.856-0.631-1.453-0.631c-0.576,0-1.041,0.211-1.455,0.631
				c-0.413,0.418-0.592,0.932-0.592,1.535v3.391c0-0.604,0.209-1.117,0.622-1.535c0.414-0.42,0.909-0.631,1.485-0.631
				c0.597,0,0.98,0.211,1.393,0.631c0.414,0.418,0.5,0.932,0.5,1.535v-3.391C6.494,37.18,6.408,36.666,5.994,36.248z"/>
			<path fill="#FFB91D" d="M11.814,28.611c-0.416-0.42-0.95-0.629-1.546-0.629c-0.578,0-0.907,0.209-1.319,0.629
				c-0.413,0.418-0.455,0.922-0.455,1.506v3.391c0-0.584,0.026-1.088,0.439-1.506c0.412-0.42,0.817-0.629,1.396-0.629
				c0.596,0,1.115,0.209,1.53,0.629c0.413,0.418,0.635,0.922,0.635,1.506v-3.391C12.494,29.533,12.227,29.029,11.814,28.611z"/>
			<g>
				<polygon fill="#FF7639" points="14.738,50.832 14.737,50.832 14.738,50.842 				"/>
				<path fill="#FF7639" d="M18.631,31.23c-0.414-0.43-1.031-0.643-1.606-0.643c-0.599,0-1.289,0.213-1.712,0.643
					c-0.423,0.428-0.818,0.945-0.818,1.549v3.391c0-0.604,0.335-1.121,0.758-1.549c0.423-0.43,0.992-0.643,1.59-0.643
					c0.576,0,1.345,0.213,1.758,0.643c0.414,0.428,0.895,0.945,0.895,1.549v-3.391C19.494,32.176,19.045,31.658,18.631,31.23z"/>
			</g>
			<path fill="#FFB91D" d="M24.098,18.883c-0.635-0.156-1.163,0.029-1.778,0.557c-0.614,0.525-0.825,1.268-0.825,2.223v3.391
				c0-0.955,0.248-1.697,0.863-2.223c0.615-0.527,1.136-0.713,1.77-0.557c0.981,0.215,1.367,1.141,1.367,2.779v-3.391
				C25.494,20.023,25.078,19.098,24.098,18.883z"/>
		</g>
		<path fill="#F4921E" d="M50.003,33.527c-0.013,0.004-0.026,0.008-0.04,0.014c-0.247-2.926-1.155-5.604-2.726-8.031
			c-1.567-2.428-3.62-4.346-6.158-5.75c-2.539-1.402-5.281-2.105-8.223-2.105c-1.271,0-2.364,0.156-3.653,0.467
			c-0.596,0.195-0.709,0.801-0.709,1.814V51.77c0,0.115-0.143,0.254-0.055,0.408c0.088,0.156,0.124,0.264,0.299,0.322l2.415,0.004
			C40.028,50.91,47.813,43.227,50.003,33.527z"/>
		<path fill="#FFB91D" d="M29.203,20.301c1.289-0.311,2.476-0.467,3.746-0.467c2.941,0,5.637,0.703,8.176,2.105
			c2.538,1.404,4.568,3.322,6.136,5.75c1.318,2.041,2.151,4.258,2.538,6.648c0.071-0.271,0.147-0.539,0.21-0.811
			c-0.013,0.004-0.029,0.008-0.043,0.014c-0.247-2.926-1.157-5.604-2.728-8.031c-1.566-2.428-3.62-4.346-6.158-5.75
			c-2.539-1.402-5.282-2.105-8.224-2.105c-1.271,0-2.363,0.156-3.653,0.467c-0.596,0.195-0.709,0.801-0.709,1.814v2.18
			C28.494,21.102,28.607,20.496,29.203,20.301z"/>
	</g>
	<circle fill="#F4921E" cx="53.113" cy="16.521" r="2.24"/>
	<circle fill="#F4921E" cx="43.607" cy="16.098" r="0.605"/>
	<circle fill="#F4921E" cx="47.301" cy="19.549" r="0.908"/>
	<circle fill="#F7441C" cx="48.512" cy="14.221" r="0.787"/>
	<circle fill="#F7441C" cx="50.752" cy="22.273" r="0.484"/>
	<circle fill="#F7441C" cx="54.566" cy="21.729" r="0.424"/>
	<circle fill="#F7441C" cx="54.143" cy="28.207" r="2.422"/>
	<circle fill="#FFB91D" cx="58.018" cy="18.883" r="0.605"/>
	<circle fill="#FFB91D" cx="58.381" cy="22.758" r="0.605"/>
	<circle fill="#FFB91D" cx="59.773" cy="26.814" r="0.424"/>
	<circle fill="#FFB91D" cx="61.105" cy="20.275" r="0.787"/>
</g>
</svg>
