<?xml version="1.0" encoding="utf-8"?>
<!-- Generator: Adobe Illustrator 16.0.0, SVG Export Plug-In . SVG Version: 6.00 Build 0)  -->
<!DOCTYPE svg PUBLIC "-//W3C//DTD SVG 1.1//EN" "http://www.w3.org/Graphics/SVG/1.1/DTD/svg11.dtd">
<svg version="1.1" id="Layer_1" xmlns="http://www.w3.org/2000/svg" xmlns:xlink="http://www.w3.org/1999/xlink" x="0px" y="0px"
	 width="66px" height="66px" viewBox="0 0 66 66" enable-background="new 0 0 66 66" xml:space="preserve">
<g>
	<g>
		<path fill="#0D4972" d="M64.484,41.573c0,9.485,0.617,17.177-5.904,17.177H7.419c-6.521,0-5.904-7.691-5.904-17.177V17.555
			C1.516,8.069,6.8,7.25,13.323,7.25h39.356c6.521,0,11.805,0.819,11.805,10.305V41.573z"/>
		<path fill="#00233F" d="M1.516,17.555C1.516,8.069,6.8,7.25,13.323,7.25h39.356c6.521,0,11.805,0.819,11.805,10.305v24.019
			c0,9.485,0.617,17.177-5.904,17.177"/>
	</g>
	<g>
		<path fill="#36C9B4" d="M22.988,55.026C12.614,55.026,8.1,47.653,8.1,40.61c0-7.047,12.053-7.269,20.165-4.254
			c9.73,3.614,17.407-2.793,17.407,4.254C45.672,47.653,33.366,55.026,22.988,55.026z"/>
		<path fill="#36C9B4" d="M56.074,21.793c5.69,5.089,6.172,13.828,1.087,19.517c-5.093,5.689-11.944,4.059-17.63-1.026
			c-5.689-5.089-8.069-11.713-2.979-17.407C41.646,17.19,50.383,16.704,56.074,21.793z"/>
		<path fill="#36C9B4" d="M13.001,51.7c-4.661-1.982-6.836-7.375-4.854-12.037c1.99-4.674,6.646-5.108,11.311-3.124
			c4.667,1.987,11.369,7.203,9.381,11.864C26.856,53.072,17.665,53.689,13.001,51.7z"/>
		<path fill="#36C9B4" d="M42.015,42.964c-0.998,1.569-5.167,0.695-9.309-1.94c-4.145-2.646-6.695-6.056-5.694-7.617
			c0.992-1.565,5.163-0.695,9.31,1.945C40.463,37.991,43.011,41.401,42.015,42.964z"/>
		<path fill="#36C9B4" d="M28.079,36.238c-1.275-0.287-1.813-2.745-1.201-5.489c0.617-2.745,2.149-4.74,3.422-4.454
			c1.279,0.278,1.814,2.74,1.201,5.489C30.887,34.528,29.357,36.521,28.079,36.238z"/>
		<path fill="#36C9B4" d="M9.606,45.43c-2.167-1.14-2.055-5.614,0.247-9.996c2.301-4.384,7.886-8.973,10.052-7.834
			c2.167,1.137,0.096,7.573-2.206,11.953C15.395,43.938,11.776,46.564,9.606,45.43z"/>
		<path fill="#36C9B4" d="M20.204,28.317c0.336,1.16-1.296,2.657-3.643,3.324c-2.347,0.673-5.881,0.242-6.217-0.918
			c-0.33-1.162,2.667-2.619,5.012-3.294C17.7,26.76,19.875,27.156,20.204,28.317z"/>
		<path fill="#36C9B4" d="M30.431,28.083c-1.174,0-2.123-0.948-2.123-2.123c0-1.174,0.948-2.126,2.123-2.126
			c1.175,0,2.128,0.952,2.128,2.126C32.56,27.135,31.606,28.083,30.431,28.083z"/>
		<path fill="#36C9B4" d="M12.146,31.605c-0.296,0.83-2.059,0.957-3.932,0.283C6.342,31.22,5.065,30,5.364,29.175
			c0.295-0.828,2.057-0.957,3.929-0.283C11.167,29.562,12.445,30.776,12.146,31.605z"/>
	</g>
	<path fill="#36C9B4" d="M19.945,12.504c0,0.228-0.185,0.411-0.412,0.411H7.006c-0.227,0-0.411-0.184-0.411-0.411l0,0
		c0-0.228,0.185-0.412,0.411-0.412h12.528C19.761,12.092,19.945,12.276,19.945,12.504L19.945,12.504z"/>
	<path fill="#36C9B4" d="M60.985,12.504c0,0.228-0.185,0.411-0.412,0.411H26.29c-0.227,0-0.412-0.184-0.412-0.411l0,0
		c0-0.228,0.185-0.412,0.412-0.412h34.284C60.801,12.092,60.985,12.276,60.985,12.504L60.985,12.504z"/>
	<path fill="#36C9B4" d="M19.945,15.553c0,0.228-0.185,0.411-0.412,0.411H7.006c-0.227,0-0.411-0.184-0.411-0.411l0,0
		c0-0.228,0.185-0.412,0.411-0.412h12.528C19.761,15.141,19.945,15.325,19.945,15.553L19.945,15.553z"/>
	<path fill="#36C9B4" d="M19.945,18.602c0,0.228-0.185,0.411-0.412,0.411H7.006c-0.227,0-0.411-0.184-0.411-0.411l0,0
		c0-0.228,0.185-0.412,0.411-0.412h12.528C19.761,18.189,19.945,18.374,19.945,18.602L19.945,18.602z"/>
	<path fill="#36C9B4" d="M47.142,53.239c0,0.578-0.469,1.047-1.047,1.047h-1.204c-0.578,0-1.046-0.469-1.046-1.047v-1.203
		c0-0.578,0.468-1.046,1.046-1.046h1.204c0.578,0,1.047,0.468,1.047,1.046V53.239z"/>
	<path fill="#36C9B4" d="M53.075,53.239c0,0.578-0.468,1.047-1.047,1.047h-1.203c-0.578,0-1.046-0.469-1.046-1.047v-1.203
		c0-0.578,0.468-1.046,1.046-1.046h1.203c0.579,0,1.047,0.468,1.047,1.046V53.239z"/>
	<path fill="#36C9B4" d="M59.008,53.239c0,0.578-0.468,1.047-1.047,1.047h-1.203c-0.578,0-1.046-0.469-1.046-1.047v-1.203
		c0-0.578,0.468-1.046,1.046-1.046h1.203c0.579,0,1.047,0.468,1.047,1.046V53.239z"/>
	<rect x="27.81" y="11.186" fill="#36C9B4" width="0.505" height="2.884"/>
	<rect x="29.375" y="11.186" fill="#36C9B4" width="0.505" height="2.451"/>
	<rect x="30.941" y="11.186" fill="#36C9B4" width="0.505" height="2.884"/>
	<rect x="32.505" y="11.186" fill="#36C9B4" width="0.506" height="2.451"/>
	<rect x="34.072" y="11.186" fill="#36C9B4" width="0.505" height="2.884"/>
	<rect x="35.637" y="11.186" fill="#36C9B4" width="0.506" height="2.451"/>
	<rect x="37.203" y="11.186" fill="#36C9B4" width="0.505" height="2.884"/>
	<rect x="38.769" y="11.186" fill="#36C9B4" width="0.505" height="2.451"/>
	<rect x="40.334" y="11.186" fill="#36C9B4" width="0.505" height="2.884"/>
	<rect x="41.898" y="11.186" fill="#36C9B4" width="0.506" height="2.451"/>
	<rect x="43.465" y="11.186" fill="#36C9B4" width="0.505" height="2.884"/>
	<rect x="45.03" y="11.186" fill="#36C9B4" width="0.505" height="2.451"/>
	<rect x="46.596" y="11.186" fill="#36C9B4" width="0.505" height="2.884"/>
	<rect x="48.16" y="11.186" fill="#36C9B4" width="0.506" height="2.451"/>
	<rect x="49.727" y="11.186" fill="#36C9B4" width="0.505" height="2.884"/>
	<rect x="51.292" y="11.186" fill="#36C9B4" width="0.505" height="2.451"/>
	<rect x="52.857" y="11.186" fill="#36C9B4" width="0.505" height="2.884"/>
	<rect x="54.423" y="11.186" fill="#36C9B4" width="0.505" height="2.451"/>
	<rect x="55.989" y="11.186" fill="#36C9B4" width="0.505" height="2.884"/>
	<rect x="57.554" y="11.186" fill="#36C9B4" width="0.505" height="2.451"/>
	<rect x="59.12" y="11.186" fill="#36C9B4" width="0.505" height="2.884"/>
	<rect x="60.685" y="11.186" fill="#36C9B4" width="0.505" height="2.451"/>
	<polyline fill="#36C9B4" points="6.1,23.299 8.82,23.299 10.859,21.26 10.859,27.069 14.444,23.484 15.495,23.484 16.422,22.558 
		16.422,24.041 17.658,22.805 19.512,22.805 	"/>
</g>
</svg>
