<?xml version="1.0" encoding="utf-8"?>
<!-- Generator: Adobe Illustrator 16.0.0, SVG Export Plug-In . SVG Version: 6.00 Build 0)  -->
<!DOCTYPE svg PUBLIC "-//W3C//DTD SVG 1.1//EN" "http://www.w3.org/Graphics/SVG/1.1/DTD/svg11.dtd">
<svg version="1.1" id="Layer_1" xmlns="http://www.w3.org/2000/svg" xmlns:xlink="http://www.w3.org/1999/xlink" x="0px" y="0px"
	 width="66px" height="66px" viewBox="0 0 66 66" enable-background="new 0 0 66 66" xml:space="preserve">
<g>
	<g>
		<path fill="#0C91C4" d="M64,46.813c0,0.627-0.637,0.691-1.267,0.691L3.138,48.22C2.51,48.22,2,47.71,2,47.081l0,0
			c0-0.629,0.51-1.139,1.138-1.139h59.708C63.475,45.942,64,46.185,64,46.813L64,46.813z"/>
		<path fill="#0C91C4" d="M5.066,47.95c0.117,0.412,0.191,0.844,0.191,1.295c0,1.389-0.603,2.627-1.547,3.5
			c0.499,0.178,1.029,0.277,1.59,0.293c3.827,0.1,7.797-2.139,7.797-4.775c0-0.105-0.025-0.207-0.031-0.312H5.066z"/>
		<path fill="#147A99" d="M3.711,52.745c0.441,0.158,0.915,0.244,1.406,0.273c3.541-0.217,6.943-2.312,6.943-4.756
			c0-0.105-0.025-0.207-0.033-0.312H5.066c0.117,0.412,0.191,0.844,0.191,1.295C5.258,50.634,4.655,51.872,3.711,52.745z"/>
	</g>
	<g>
		<g>
			<g>
				<path fill="#2D3A34" d="M37.788,20.632c0,4.238-4.515,7.674-10.079,7.674c-5.562,0-10.076-3.436-10.076-7.674
					s4.514-7.674,10.076-7.674C33.273,12.958,37.788,16.394,37.788,20.632z"/>
				<circle fill="#EBF0F2" cx="28.356" cy="19.185" r="0.862"/>
				<circle fill="#EBF0F2" cx="34.027" cy="19.185" r="0.863"/>
			</g>
			<path fill="#2D3A34" d="M35.336,36.374c0,3.898-3.532,5.043-7.742,5.043c-4.209,0-7.512-1.145-7.512-5.043
				c0-3.895,3.418-12.879,7.627-12.879C31.919,23.495,35.336,32.479,35.336,36.374z"/>
		</g>
		<path fill="#2D3A34" d="M24.628,28.759c-0.316,1.291-1.62,2.078-2.909,1.76c-1.287-0.32-7.579-2.98-7.263-4.27
			c0.319-1.287,7.128-0.717,8.415-0.398C24.16,26.169,24.947,27.47,24.628,28.759z"/>
		<path fill="#2D3A34" d="M30.232,28.958c0.316-1.289,1.621-2.076,2.91-1.758c1.287,0.32,7.578,2.98,7.264,4.268
			c-0.322,1.289-7.131,0.717-8.418,0.398C30.7,31.55,29.912,30.245,30.232,28.958z"/>
		<path fill="#2D3A34" d="M31.855,38.278c1.051-0.814,2.561-0.625,3.375,0.426c0.813,1.047,4.104,7.035,3.057,7.848
			c-1.051,0.814-6.041-3.854-6.854-4.9C30.619,40.603,30.806,39.093,31.855,38.278z"/>
		<path fill="#2D3A34" d="M23.264,38.155c-1.048-0.816-2.561-0.625-3.373,0.422c-0.814,1.051-4.105,7.037-3.059,7.85
			c1.052,0.816,6.039-3.854,6.854-4.9C24.5,40.478,24.312,38.968,23.264,38.155z"/>
	</g>
</g>
</svg>
