<?xml version="1.0" encoding="utf-8"?>
<!-- Generator: Adobe Illustrator 16.0.0, SVG Export Plug-In . SVG Version: 6.00 Build 0)  -->
<!DOCTYPE svg PUBLIC "-//W3C//DTD SVG 1.1//EN" "http://www.w3.org/Graphics/SVG/1.1/DTD/svg11.dtd">
<svg version="1.1" id="Layer_1" xmlns="http://www.w3.org/2000/svg" xmlns:xlink="http://www.w3.org/1999/xlink" x="0px" y="0px"
	 width="66px" height="66px" viewBox="0 0 66 66" enable-background="new 0 0 66 66" xml:space="preserve">
<g>
	<ellipse fill="#770808" cx="32.833" cy="9.128" rx="13.312" ry="4.062"/>
	<ellipse fill="#4C0505" cx="32.833" cy="10.794" rx="13.312" ry="4.062"/>
	<path fill="#B70D0D" d="M59.677,50.317l4.281-1.303L48.315,6.464l-7.174-0.5c-1.117,3.803-4.338,6.553-8.142,6.553
		c-3.802,0-7.024-2.75-8.142-6.553l-7.174,0.5L2.042,49.015l4.281,1.303l13.982-26.734c1.207,2.715,1.894,4.648,1.894,11.094
		c0,3.543-3.562,15.908-3.949,19.172c3.028,4.404,10.373,7.086,14.75,7.086c4.378,0,11.722-2.682,14.75-7.086
		c-0.388-3.264-3.949-15.629-3.949-19.172c0-6.445,0.687-8.379,1.894-11.094L59.677,50.317z"/>
	<path fill="#DD1D1D" d="M59.677,48.317l4.281,0.697L48.315,6.464l-7.174-0.5c-1.117,3.803-4.338,8.553-8.142,8.553
		c-3.802,0-7.024-4.75-8.142-8.553l-7.174,0.5L2.042,49.015l4.281-0.697l13.982-30.734c1.207,2.715,2.894,10.648,2.894,17.094
		c0,3.543-4.562,15.908-4.949,19.172c3.028,4.404,10.373,2.086,14.75,2.086c4.378,0,11.722,2.318,14.75-2.086
		c-0.388-3.264-4.949-15.629-4.949-19.172c0-6.445,1.687-14.379,2.894-17.094L59.677,48.317z"/>
	<g>
		<g>
			
				<rect x="21.499" y="19.775" transform="matrix(0.7076 -0.7066 0.7066 0.7076 -8.1005 21.9735)" fill="#F9EC75" width="2.001" height="2"/>
			<polygon fill="#F9C430" points="23.915,20.774 22.499,22.188 21.085,20.774 22.501,21.36 			"/>
		</g>
		<g>
			
				<rect x="26.749" y="19.775" transform="matrix(0.7076 -0.7066 0.7066 0.7076 -6.5653 25.6832)" fill="#F9EC75" width="2.001" height="2"/>
			<polygon fill="#F9C430" points="29.165,20.774 27.749,22.188 26.335,20.774 27.751,21.36 			"/>
		</g>
		<g>
			
				<rect x="31.999" y="19.775" transform="matrix(0.7076 -0.7066 0.7066 0.7076 -5.0302 29.393)" fill="#F9EC75" width="2.001" height="2"/>
			<polygon fill="#F9C430" points="34.415,20.774 32.999,22.188 31.585,20.774 33.001,21.36 			"/>
		</g>
		<g>
			
				<rect x="37.249" y="19.775" transform="matrix(0.7076 -0.7066 0.7066 0.7076 -3.4951 33.1027)" fill="#F9EC75" width="2.001" height="2"/>
			<polygon fill="#F9C430" points="39.665,20.774 38.249,22.188 36.835,20.774 38.251,21.36 			"/>
		</g>
		<g>
			
				<rect x="42.499" y="19.775" transform="matrix(0.7076 -0.7066 0.7066 0.7076 -1.96 36.8125)" fill="#F9EC75" width="2.001" height="2"/>
			<polygon fill="#F9C430" points="44.915,20.774 43.499,22.188 42.085,20.774 43.501,21.36 			"/>
		</g>
	</g>
	<g>
		<circle fill="#F9C430" cx="22" cy="23.46" r="0.187"/>
		<circle fill="#F9C430" cx="23.375" cy="23.46" r="0.188"/>
		<circle fill="#F9C430" cx="24.75" cy="23.46" r="0.188"/>
		<circle fill="#F9C430" cx="26.125" cy="23.46" r="0.188"/>
		<circle fill="#F9C430" cx="27.5" cy="23.46" r="0.187"/>
		<circle fill="#F9C430" cx="28.875" cy="23.46" r="0.188"/>
		<circle fill="#F9C430" cx="30.25" cy="23.46" r="0.188"/>
		<circle fill="#F9C430" cx="31.625" cy="23.46" r="0.188"/>
		<circle fill="#F9C430" cx="33" cy="23.46" r="0.187"/>
		<circle fill="#F9C430" cx="34.375" cy="23.46" r="0.188"/>
		<circle fill="#F9C430" cx="35.75" cy="23.46" r="0.188"/>
		<circle fill="#F9C430" cx="37.125" cy="23.46" r="0.188"/>
		<circle fill="#F9C430" cx="38.5" cy="23.46" r="0.187"/>
		<circle fill="#F9C430" cx="39.875" cy="23.46" r="0.188"/>
		<circle fill="#F9C430" cx="41.25" cy="23.46" r="0.188"/>
		<circle fill="#F9C430" cx="42.625" cy="23.46" r="0.188"/>
		<circle fill="#F9C430" cx="44" cy="23.46" r="0.187"/>
	</g>
	<g>
		<circle fill="#F9C430" cx="22" cy="18.335" r="0.187"/>
		<circle fill="#F9C430" cx="23.375" cy="18.335" r="0.188"/>
		<circle fill="#F9C430" cx="24.75" cy="18.335" r="0.188"/>
		<circle fill="#F9C430" cx="26.125" cy="18.335" r="0.188"/>
		<circle fill="#F9C430" cx="27.5" cy="18.335" r="0.187"/>
		<circle fill="#F9C430" cx="28.875" cy="18.335" r="0.188"/>
		<circle fill="#F9C430" cx="30.25" cy="18.335" r="0.188"/>
		<circle fill="#F9C430" cx="31.625" cy="18.335" r="0.188"/>
		<circle fill="#F9C430" cx="33" cy="18.335" r="0.187"/>
		<circle fill="#F9C430" cx="34.375" cy="18.335" r="0.188"/>
		<circle fill="#F9C430" cx="35.75" cy="18.335" r="0.188"/>
		<circle fill="#F9C430" cx="37.125" cy="18.335" r="0.188"/>
		<circle fill="#F9C430" cx="38.5" cy="18.335" r="0.187"/>
		<circle fill="#F9C430" cx="39.875" cy="18.335" r="0.188"/>
		<circle fill="#F9C430" cx="41.25" cy="18.335" r="0.188"/>
		<circle fill="#F9C430" cx="42.625" cy="18.335" r="0.188"/>
		<circle fill="#F9C430" cx="44" cy="18.335" r="0.187"/>
	</g>
</g>
</svg>
