<?xml version="1.0" encoding="utf-8"?>
<!-- Generator: Adobe Illustrator 16.0.0, SVG Export Plug-In . SVG Version: 6.00 Build 0)  -->
<!DOCTYPE svg PUBLIC "-//W3C//DTD SVG 1.1//EN" "http://www.w3.org/Graphics/SVG/1.1/DTD/svg11.dtd">
<svg version="1.1" id="Layer_1" xmlns="http://www.w3.org/2000/svg" xmlns:xlink="http://www.w3.org/1999/xlink" x="0px" y="0px"
	 width="66px" height="66px" viewBox="0 0 66 66" enable-background="new 0 0 66 66" xml:space="preserve">
<g>
	<g>
		<g>
			<path fill="#17E5A1" d="M61.121,24.133H49.573V18.84H16.427v5.293H4.878v-5.775c0-6.102,4.962-11.066,11.066-11.066h34.109
				c6.104,0,11.067,4.965,11.067,11.066V24.133z"/>
		</g>
		<g>
			<path fill="#15CC93" d="M61.121,24.133H49.573V18.84H16.427v5.293H4.878v-5.775c0-6.102,4.962-8.441,11.066-8.441h34.109
				c6.104,0,11.067,2.34,11.067,8.441V24.133z"/>
		</g>
		<path fill="#04A6AA" d="M59.584,24.133c-1.927-3.266-5.472-5.467-9.53-5.467H15.944c-4.059,0-7.603,2.201-9.528,5.467h10.011
			V18.84h33.146v5.293H59.584z"/>
		<g>
			<path fill="#04A6AA" d="M17.5,24.873c0,0.691-0.559,1.25-1.25,1.25H4.584c-0.691,0-1.25-0.559-1.25-1.25l0,0
				c0-0.689,0.559-1.25,1.25-1.25H16.25C16.941,23.623,17.5,24.184,17.5,24.873L17.5,24.873z"/>
			<path fill="#04A6AA" d="M62.666,24.873c0,0.691-0.559,1.25-1.25,1.25H49.75c-0.691,0-1.25-0.559-1.25-1.25l0,0
				c0-0.689,0.559-1.25,1.25-1.25h11.666C62.107,23.623,62.666,24.184,62.666,24.873L62.666,24.873z"/>
		</g>
	</g>
	<path fill="#15CC93" d="M61.154,55.041c0.003-0.166,0.012-0.332,0.012-0.5c0-15.555-12.609-28.166-28.166-28.166
		S4.833,38.986,4.833,54.541c0,0.168,0.01,0.334,0.013,0.5H61.154z"/>
	<path fill="#04A6AA" d="M61.154,55.041c0.003-0.166,0.012-0.332,0.012-0.5c0-15.555-12.609-24.25-28.166-24.25
		S4.833,38.986,4.833,54.541c0,0.168,0.01,0.334,0.013,0.5H61.154z"/>
	<path fill="#04A6AA" d="M62.166,56.625c0,1.15-0.932,2.084-2.082,2.084H5.918c-1.152,0-2.084-0.934-2.084-2.084l0,0
		c0-1.15,0.932-2.084,2.084-2.084h54.166C61.234,54.541,62.166,55.475,62.166,56.625L62.166,56.625z"/>
	<g>
		<path fill="#FFECB6" d="M31.354,50.383h-4.78c2.99-2.9,5.246-5.406,5.246-8.537c0-2.629-1.708-5.281-5.519-5.281
			c-1.805,0-3.531,0.621-4.866,1.748c-0.283,0.244-0.376,0.645-0.222,0.986l0.658,1.459c0.107,0.238,0.322,0.412,0.577,0.473
			s0.524-0.006,0.726-0.174c0.49-0.41,1.495-1.1,2.703-1.1c1.477,0,2.193,0.703,2.193,2.139c-0.021,1.936-1.615,3.762-5.434,7.396
			l-1.622,1.574c-0.161,0.156-0.253,0.375-0.253,0.602v1.27c0,0.463,0.375,0.838,0.84,0.838h9.752c0.466,0,0.839-0.375,0.839-0.838
			v-1.717C32.193,50.758,31.82,50.383,31.354,50.383z"/>
		<path fill="#FFECB6" d="M44.4,46.316H43.1v-8.654c0-0.463-0.376-0.838-0.838-0.838h-2.234c-0.273,0-0.53,0.135-0.689,0.357
			l-6.813,9.754c-0.098,0.141-0.15,0.307-0.15,0.479v1.363c0,0.463,0.375,0.838,0.837,0.838h6.259v3.322
			c0,0.463,0.377,0.838,0.839,0.838h1.953c0.462,0,0.838-0.375,0.838-0.838v-3.322H44.4c0.461,0,0.836-0.375,0.836-0.838v-1.621
			C45.236,46.691,44.861,46.316,44.4,46.316z M36.907,46.316l2.562-3.568v3.568H36.907z"/>
	</g>
</g>
</svg>
