<?xml version="1.0" encoding="utf-8"?>
<!-- Generator: Adobe Illustrator 16.0.0, SVG Export Plug-In . SVG Version: 6.00 Build 0)  -->
<!DOCTYPE svg PUBLIC "-//W3C//DTD SVG 1.1//EN" "http://www.w3.org/Graphics/SVG/1.1/DTD/svg11.dtd">
<svg version="1.1" id="Layer_1" xmlns="http://www.w3.org/2000/svg" xmlns:xlink="http://www.w3.org/1999/xlink" x="0px" y="0px"
	 width="66px" height="66px" viewBox="0 0 66 66" enable-background="new 0 0 66 66" xml:space="preserve">
<g>
	<path fill="#151918" d="M37,52.768c0,1.712-1.79,2.732-3.5,2.732l0,0c-1.71,0-3.5-1.021-3.5-2.732v-7.999
		c0-1.711,1.29-3.097,3-3.097l0,0c1.71,0,4,1.386,4,3.097V52.768z"/>
	<path fill="#C5D1CA" d="M42,18.403c0,1.71-1.386,3.097-3.096,3.097H27.096c-1.71,0-3.096-1.387-3.096-3.097V6.597
		c0-1.71,1.386-3.097,3.096-3.097h11.808C40.614,3.5,42,4.887,42,6.597V18.403z"/>
	<path fill="#BCC9C1" d="M24,6.597C24,4.888,25.387,3.5,27.096,3.5h11.808C40.613,3.5,42,4.888,42,6.597v12.15
		c0,1.71-1.5,3.026-3.209,3.026"/>
	<path fill="#B0BFB5" d="M32,3.5v17.623c0,0.374,0.626,0.679,1,0.679s1-0.305,1-0.679V3.5H32z"/>
	<path fill="#D7E2DB" d="M24,6.597C24,4.888,25.387,3.5,27.096,3.5h11.808C40.613,3.5,42,4.888,42,6.597"/>
	<path fill="#363F3E" d="M44,44.849c0,2.448-1.988,4.651-4.438,4.651H26.438c-2.45,0-4.438-2.203-4.438-4.651V20.63
		c0-2.451,1.988-3.13,4.438-3.13h13.124c2.45,0,4.438,0.679,4.438,3.13V44.849z"/>
	<path fill="#151918" d="M22,20.544c0-2.451,1.988-3.044,4.438-3.044h13.124c2.45,0,4.438,0.679,4.438,3.13v24.219
		c0,2.448-1.988,4.651-4.438,4.651"/>
	<circle fill="#151918" cx="33" cy="36.123" r="6.194"/>
	<path fill="#363F3E" d="M28.621,31.744c2.418-2.419,6.339-2.419,8.758,0c2.419,2.418,2.419,6.34,0,8.758"/>
	<g>
		<g>
			<path fill="#616D65" d="M29,10.547c0,0.61-0.388,1.104-1,1.104l0,0c-0.608,0-1-0.493-1-1.104V8.453c0-0.61,0.392-1.104,1-1.104
				l0,0c0.612,0,1,0.493,1,1.104V10.547z"/>
			<path fill="#7A877F" d="M28,8.891c-0.608,0-1,0.494-1,1.104v0.553c0,0.61,0.392,1.104,1,1.104c0.612,0,1-0.493,1-1.104V9.994
				C29,9.385,28.612,8.891,28,8.891z"/>
		</g>
		<g>
			<path fill="#616D65" d="M39,10.547c0,0.61-0.392,1.104-1.002,1.104l0,0c-0.607,0-0.998-0.493-0.998-1.104V8.453
				c0-0.61,0.391-1.104,0.998-1.104l0,0C38.608,7.35,39,7.843,39,8.453V10.547z"/>
			<path fill="#7A877F" d="M37.998,8.891C37.391,8.891,37,9.385,37,9.994v0.553c0,0.61,0.391,1.104,0.998,1.104
				c0.61,0,1.002-0.493,1.002-1.104V9.994C39,9.385,38.608,8.891,37.998,8.891z"/>
		</g>
	</g>
	<path fill="#151918" d="M35,61.145c0,0.749-0.606,1.355-1.355,1.355h-0.29C32.606,62.5,32,61.894,32,61.145v-7.289
		c0-0.749,0.606-1.355,1.355-1.355h0.29c0.749,0,1.355,0.606,1.355,1.355V61.145z"/>
</g>
</svg>
