<?xml version="1.0" encoding="utf-8"?>
<!-- Generator: Adobe Illustrator 16.0.0, SVG Export Plug-In . SVG Version: 6.00 Build 0)  -->
<!DOCTYPE svg PUBLIC "-//W3C//DTD SVG 1.1//EN" "http://www.w3.org/Graphics/SVG/1.1/DTD/svg11.dtd">
<svg version="1.1" id="Layer_1" xmlns="http://www.w3.org/2000/svg" xmlns:xlink="http://www.w3.org/1999/xlink" x="0px" y="0px"
	 width="66px" height="66px" viewBox="0 0 66 66" enable-background="new 0 0 66 66" xml:space="preserve">
<g>
	<ellipse fill="#A1AFB2" cx="19.141" cy="58.95" rx="9.895" ry="1.537"/>
	<g>
		<g>
			<path fill="#BA6831" d="M48.813,29.269c-4.475,1.28-9.607-2.94-11.471-9.427c-1.861-6.486,0.254-12.787,4.725-14.07
				c4.471-1.278,11.982,2.256,13.846,8.737C57.776,21,53.28,27.981,48.813,29.269z"/>
			<path fill="#994F1D" d="M48.813,29.269c-4.475,1.28-9.607-2.94-11.471-9.427c-1.861-6.486,0.254-12.787,4.725-14.07
				c4.471-1.278,10.875,2.572,12.736,9.062C56.667,21.317,53.28,27.981,48.813,29.269z"/>
			<path fill="#F9C1AC" d="M46.565,58.894c-8.523,2.444-15.762-6.616-19.404-19.312c-3.642-12.691-2.311-24.214,6.213-26.66
				c8.521-2.444,18.383,5.863,22.025,18.557C59.043,44.176,55.083,56.449,46.565,58.894z"/>
			<path fill="#F2B09C" d="M46.565,58.894c-8.523,2.444-15.762-6.616-19.404-19.312c-3.642-12.691-2.311-24.214,6.213-26.66"/>
			<path fill="#994F1D" d="M39.055,39.901c-1.668-1.733-1.828-11.169,3.884-8.66c4.39,1.921,1.302,8.599,1.302,8.599
				c3.393-3.574,7.361-0.164,7.361-0.164l2.928-10.828c-4.168-11.186-13.24-18.196-21.156-15.926
				c-5.68,1.629-8.164,7.295-8.112,14.646C27.315,42.877,39.055,39.901,39.055,39.901z"/>
			<g>
				<g>
					<path fill="#113E49" d="M47.538,48.168c-0.861,0.253-1.357,1.15-1.109,2.012s1.144,1.359,2.008,1.111
						c0.859-0.246,1.357-1.146,1.114-2.007C49.305,48.426,48.403,47.928,47.538,48.168z"/>
					<path d="M47.538,48.168c-0.861,0.253-1.357,1.15-1.109,2.012s1.144,1.359,2.008,1.111"/>
					<g>
						<path fill="#FFD3C5" d="M43.851,47.588c0.022,0.082,0.079,0.16,0.165,0.208c0.98,0.542,1.689,1.433,1.995,2.505l0.003,0.006
							c0.307,1.07,0.176,2.202-0.366,3.176c-0.091,0.162-0.036,0.373,0.132,0.465c0.164,0.095,0.373,0.035,0.466-0.129
							c0.632-1.137,0.782-2.451,0.424-3.702l-0.003-0.001c-0.355-1.258-1.182-2.288-2.322-2.922
							c-0.162-0.094-0.375-0.031-0.465,0.132C43.833,47.411,43.827,47.502,43.851,47.588z"/>
					</g>
				</g>
			</g>
			<path fill="#CC753A" d="M49.746,26.135l-1.925,2.293l6.66,23.204c2.551-5.271,3.791-12.835,1.633-20.356
				c-2.158-7.524-7.225-13.28-12.18-16.396l2.965,10.334L49.746,26.135z"/>
			<path fill="#BA6831" d="M49.746,26.135l-1.925,2.293l6.66,23.204c2.551-5.271,2.497-12.464,0.336-19.985
				c-2.158-7.528-5.928-13.651-10.883-16.768l2.965,10.334L49.746,26.135z"/>
		</g>
		<g>
			<g>
				<g>
					<g>
						<path fill="#232728" d="M20.141,52.5c-9.109-8.012-8.749,1.917-6.833-9.25c1.75-10.2,9.605-0.367,16.375,1.845
							c6.765,2.211,6.638,2.946,4.952,8.101C32.953,58.35,26.338,57.951,20.141,52.5z"/>
					</g>
				</g>
				<g>
					<g>
						<g>
							<path fill="#F9C1AC" d="M9.883,54.988c-0.406,0.695-1.58,3.992-0.893,4.396c0.693,0.403,2.994-2.238,3.398-2.93
								c0.405-0.692,0.172-1.585-0.52-1.986C11.176,54.062,10.289,54.297,9.883,54.988z"/>
							<g>
								<g>
									<path fill="#232728" d="M16.055,48.545c-0.82-0.58-3.029-1.146-3.609-0.327l-2.121,5.307
										c-0.582,0.819-0.381,1.948,0.436,2.53l0,0c0.818,0.575,1.951,0.377,2.528-0.439l5.048-4.865
										C18.911,49.934,16.875,49.121,16.055,48.545L16.055,48.545z"/>
								</g>
							</g>
						</g>
					</g>
				</g>
				<g>
					<g>
						<g>
							<path fill="#F9C1AC" d="M14.966,54.238c-0.406,0.695-1.58,3.992-0.892,4.396c0.693,0.403,2.992-2.238,3.396-2.93
								c0.406-0.692,0.174-1.585-0.519-1.986C16.26,53.312,15.372,53.547,14.966,54.238z"/>
							<g>
								<g>
									<path fill="#232728" d="M21.138,47.795c-0.821-0.58-3.028-1.146-3.609-0.327l-2.121,5.307
										c-0.582,0.819-0.382,1.948,0.436,2.53l0,0c0.818,0.575,1.952,0.377,2.528-0.439L23.418,50
										C23.994,49.184,21.959,48.371,21.138,47.795L21.138,47.795z"/>
								</g>
							</g>
						</g>
					</g>
				</g>
			</g>
			<g>
				<g>
					<g>
						<g>
							<path fill="#F2B09C" d="M28.471,47.691c-0.777,0.82-0.749,2.104,0.069,2.887l4.523,4.299
								c0.817,0.774,2.106,0.742,2.885-0.073l0,0c0.771-0.816,0.735-2.104-0.079-2.875l-4.521-4.305
								C30.538,46.85,29.247,46.881,28.471,47.691L28.471,47.691z"/>
							<path fill="#F9C1AC" d="M33.753,55.42c0.749,0.743,5.644,4.4,6.396,3.647c0.743-0.751-2.949-5.622-3.697-6.368
								c-0.752-0.744-1.965-0.744-2.705,0.008C33,53.459,33.001,54.672,33.753,55.42z"/>
						</g>
					</g>
				</g>
			</g>
		</g>
	</g>
</g>
</svg>
