<?xml version="1.0" encoding="utf-8"?>
<!-- Generator: Adobe Illustrator 16.0.0, SVG Export Plug-In . SVG Version: 6.00 Build 0)  -->
<!DOCTYPE svg PUBLIC "-//W3C//DTD SVG 1.1//EN" "http://www.w3.org/Graphics/SVG/1.1/DTD/svg11.dtd">
<svg version="1.1" id="Layer_1" xmlns="http://www.w3.org/2000/svg" xmlns:xlink="http://www.w3.org/1999/xlink" x="0px" y="0px"
	 width="66px" height="66px" viewBox="0 0 66 66" enable-background="new 0 0 66 66" xml:space="preserve">
<g>
	<path fill="#18C99A" d="M61.451,26.869C61.451,44.049,48.714,65,33,65C17.285,65,4.549,44.049,4.549,26.869S17.285,1,33,1
		C48.714,1,61.451,9.689,61.451,26.869z"/>
	<path fill="#0BAD86" d="M61.451,26.869C61.451,44.049,48.714,65,33,65C17.285,65,4.549,44.049,4.549,26.869S17.285,3.79,33,3.79
		C48.714,3.79,61.451,9.689,61.451,26.869z"/>
	<path fill="#079B7E" d="M33,3.79c15.714,0,28.451,5.899,28.451,23.079S48.714,65,33,65"/>
	<g>
		<g>
			<path fill="#147F61" d="M25.801,34.541c4.229,5.24,4.908,11.709,1.517,14.445S18.391,54.24,14.161,49
				c-4.228-5.242-5.55-16.258-2.157-18.995C15.396,27.269,21.572,29.299,25.801,34.541z"/>
			<path fill="#1C6B54" d="M25.997,33.04c4.229,5.242,4.712,13.21,1.32,15.947s-9.568,0.705-13.798-4.537
				c-4.229-5.24-4.908-11.708-1.516-14.444C15.396,27.269,21.768,27.798,25.997,33.04z"/>
			
				<ellipse transform="matrix(0.7783 -0.6279 0.6279 0.7783 -20.4403 21.1012)" fill="#0D3F32" cx="19.66" cy="39.495" rx="7.89" ry="12.195"/>
			<path d="M27.317,48.986c-3.392,2.736-10.003,2.684-14.232-2.557c-4.228-5.242-4.474-13.688-1.081-16.424"/>
		</g>
		<g>
			<path fill="#147F61" d="M40.199,34.541c-4.229,5.24-4.908,11.709-1.517,14.445S47.609,54.24,51.838,49
				c4.229-5.242,5.551-16.258,2.158-18.995C50.604,27.269,44.428,29.299,40.199,34.541z"/>
			<path fill="#1C6B54" d="M40.004,33.04c-4.229,5.242-4.713,13.21-1.321,15.947s9.568,0.705,13.798-4.537
				c4.229-5.24,4.908-11.708,1.516-14.444C50.604,27.269,44.231,27.798,40.004,33.04z"/>
			
				<ellipse transform="matrix(-0.7783 -0.6279 0.6279 -0.7783 57.6065 99.3308)" fill="#0D3F32" cx="46.34" cy="39.495" rx="7.89" ry="12.195"/>
			<path d="M38.683,48.986c3.392,2.736,10.003,2.684,14.232-2.557c4.228-5.242,4.474-13.688,1.081-16.424"/>
		</g>
	</g>
	<g>
		<circle fill="#079B7E" cx="33" cy="19.77" r="8.369"/>
		<path fill="#157C72" d="M24.632,19.77c0-4.622,3.747-8.369,8.368-8.369s8.368,3.747,8.368,8.369"/>
	</g>
	<g>
		<circle fill="#079B7E" cx="33" cy="19.77" r="5.18"/>
		<path fill="#157C72" d="M33,14.589c2.859,0,5.18,2.319,5.18,5.18s-2.32,5.18-5.18,5.18"/>
	</g>
	<g>
		<circle fill="#0BAD86" cx="33.001" cy="19.769" r="2.669"/>
		<path fill="#079B7E" d="M34.887,17.881c1.042,1.042,1.042,2.733,0.002,3.775c-1.044,1.043-2.734,1.043-3.777,0"/>
	</g>
</g>
</svg>
