<?xml version="1.0" encoding="utf-8"?>
<!-- Generator: Adobe Illustrator 16.0.0, SVG Export Plug-In . SVG Version: 6.00 Build 0)  -->
<!DOCTYPE svg PUBLIC "-//W3C//DTD SVG 1.1//EN" "http://www.w3.org/Graphics/SVG/1.1/DTD/svg11.dtd">
<svg version="1.1" id="Layer_1" xmlns="http://www.w3.org/2000/svg" xmlns:xlink="http://www.w3.org/1999/xlink" x="0px" y="0px"
	 width="66px" height="66px" viewBox="0 0 66 66" enable-background="new 0 0 66 66" xml:space="preserve">
<g>
	<g>
		<path fill="#D32027" d="M22,12H7.968C4.672,12,2,14.414,2,17.777v30.446C2,51.586,4.672,54,7.968,54H22V12z"/>
		<path fill="#D32027" d="M58.031,12H44v42h14.031C61.327,54,64,51.586,64,48.223V17.777C64,14.414,61.327,12,58.031,12z"/>
		<g>
			<path fill="#BC1723" d="M58.031,12H44v30.073L57.84,54c3.297,0,6.16-2.414,6.16-5.777V17.777C64,14.414,61.327,12,58.031,12z"/>
			<polygon fill="#BC1723" points="22,12 7.968,12 22,23.928 			"/>
			<path fill="#AA0E21" d="M44,54h14.031C61.327,54,64,52,64,48H44V54z"/>
			<path fill="#AA0E21" d="M2,48c0,4,2.672,6,5.968,6H22v-6H2z"/>
			<path fill="#AA0E21" d="M58.031,12H44v10.618l20,6.23V17.777C64,14.414,61.327,12,58.031,12z"/>
			<polygon fill="#AA0E21" points="22,12 7.968,12 22,16.091 			"/>
		</g>
	</g>
	<rect x="20" y="12" fill="#FFFFFF" width="26" height="42"/>
	<polygon fill="#E9F3F4" points="46,42.073 46,12 20,12 20,23.928 	"/>
	<rect x="20" y="48" fill="#D3E9EA" width="26" height="6"/>
	<polygon fill="#D3E9EA" points="46,22.618 46,12 20,12 20,16.091 	"/>
	<path fill-rule="evenodd" clip-rule="evenodd" fill="#D32027" d="M42.323,33.161c-0.33-0.315-1.007-0.28-1.127-0.805
		c-0.159-1.286,0.432-2.035,0.806-2.894c-1.89,0.441-3.38,1.169-3.378-0.965c-1.085,1.326-2.251,2.652-2.732,2.412
		c-0.684-0.402,0.657-3.816,0.803-5.627c-0.661,0.303-1.931,0.965-1.931,0.965S34,23.994,33,22.882V22.87
		c0,0.002,0.001,0.003,0,0.005c-0.001-0.001,0-0.002,0-0.005v0.012c-1,1.112-1.764,3.365-1.764,3.365s-1.269-0.662-1.93-0.965
		c0.146,1.812,1.486,5.225,0.803,5.627c-0.484,0.241-1.648-1.085-2.732-2.412c0,2.134-1.489,1.406-3.378,0.965
		c0.373,0.858,0.964,1.608,0.804,2.894c-0.119,0.524-0.797,0.489-1.126,0.805c2.192,2.19,5.99,3.819,4.182,5.627l4.878-0.521
		C32.896,39.917,32.38,42,32.828,43c0.104,0,0.07,0,0.169,0c0.002,0,0.004,0,0.006,0c0.099,0,0.062,0,0.166,0
		c0.457-1-0.063-3.083,0.095-4.732l4.878,0.488C36.333,36.947,40.132,35.352,42.323,33.161z"/>
	<path fill-rule="evenodd" clip-rule="evenodd" fill="#AA0E21" d="M42.323,33.161c-0.33-0.315-1.007-0.28-1.127-0.805
		c-0.159-1.286,0.432-2.035,0.806-2.894c-1.89,0.441-3.38,1.169-3.378-0.965c-1.085,1.326-2.251,2.652-2.732,2.412
		c-0.684-0.402,0.657-3.816,0.803-5.627c-0.661,0.303-1.931,0.965-1.931,0.965S34,23.994,33,22.882V22.87
		c0,0.002,0.001,0.003,0,0.005c-0.001-0.001,0-0.002,0-0.005v0.012c0,0.062,0,0.14,0,0.208V43c0,0-0.069,0-0.003,0
		c0.002,0,0.004,0,0.006,0c0.099,0,0.062,0,0.166,0c0.457-1-0.063-3.083,0.095-4.732l4.878,0.488
		C36.333,36.947,40.132,35.352,42.323,33.161z"/>
</g>
</svg>
