<?xml version="1.0" encoding="utf-8"?>
<!-- Generator: Adobe Illustrator 16.0.0, SVG Export Plug-In . SVG Version: 6.00 Build 0)  -->
<!DOCTYPE svg PUBLIC "-//W3C//DTD SVG 1.1//EN" "http://www.w3.org/Graphics/SVG/1.1/DTD/svg11.dtd">
<svg version="1.1" id="Layer_1" xmlns="http://www.w3.org/2000/svg" xmlns:xlink="http://www.w3.org/1999/xlink" x="0px" y="0px"
	 width="66px" height="66px" viewBox="0 0 66 66" enable-background="new 0 0 66 66" xml:space="preserve">
<g>
	<polygon fill="#FFFCEE" points="53.243,63 12.923,63 2.249,3 63.917,3 	"/>
	<polyline fill="#EDE9D9" points="2.083,3 63.917,3 53.16,62.293 	"/>
	<path fill="#9E561B" d="M48.819,18.519c-3.047,0-5.809-0.643-7.869-1.683c-2.062,1.04-4.822,1.683-7.867,1.683
		s-5.807-0.643-7.867-1.683c-2.064,1.04-4.824,1.683-7.869,1.683c-2.807,0-5.381-0.686-7.383-1.588L17.688,58l30.787,0.2
		l7.727-41.27C54.2,17.833,51.626,18.519,48.819,18.519z"/>
	<g>
		<path fill="#FFFFFF" d="M37.56,30.72c-0.205-1.26-1.389-2.114-2.648-1.912l-9.217,1.484l5.199-6.351
			c0.811-0.986,0.664-2.441-0.322-3.249l-7.275-5.962c-0.986-0.808-2.441-0.663-3.25,0.323l-5.961,7.277
			c-0.809,0.986-0.664,2.44,0.322,3.249l7.277,5.962c0.604,0.495,1.383,0.629,2.084,0.434c-0.084,0.309-0.111,0.639-0.057,0.976
			l1.496,9.286c0.201,1.261,1.389,2.116,2.65,1.913l9.285-1.497c1.26-0.202,2.115-1.388,1.912-2.646L37.56,30.72z"/>
		<path fill="#FFFFFF" d="M49.995,15.939l-9.4-0.306c-1.275-0.041-2.344,0.959-2.385,2.233l-0.303,9.401
			c-0.043,1.276,0.959,2.342,2.232,2.384l9.402,0.305c1.275,0.042,2.342-0.959,2.383-2.233l0.305-9.402
			C52.271,17.047,51.271,15.98,49.995,15.939z"/>
	</g>
	<path fill="#894410" d="M48.476,58.2l7.727-41.127c-2.002,0.902-4.576,1.445-7.383,1.445c-3.047,0-5.809-0.643-7.869-1.683
		c-2.062,1.04-4.822,1.683-7.867,1.683s-5.807-0.643-7.867-1.683c-2.064,1.04-4.824,1.683-7.869,1.683
		c-2.807,0-5.381-0.543-7.383-1.445"/>
	<g>
		<path fill="#C9834F" d="M23.769,31.976c-0.084,0.309-0.111,0.639-0.057,0.976l1.496,9.286c0.201,1.261,1.389,2.116,2.65,1.913
			l9.285-1.497c1.26-0.202,2.115-1.388,1.912-2.646L37.56,30.72c-0.205-1.26-1.389-2.114-2.648-1.912l-9.217,1.484l5.199-6.351
			c0.811-0.986,0.664-2.441-0.322-3.249l-4.023-3.297c-0.463-0.174-0.922-0.353-1.332-0.56c-2.064,1.04-4.824,1.683-7.869,1.683
			c-0.047,0-0.088-0.007-0.135-0.007l-3.127,3.819c-0.809,0.986-0.664,2.44,0.322,3.249l7.277,5.962
			C22.288,32.037,23.067,32.171,23.769,31.976z"/>
		<path fill="#BA7343" d="M17.212,18.512"/>
		<path fill="#BA7343" d="M23.769,31.976c-0.084,0.309-0.111,0.639-0.057,0.976l1.496,9.286c0.201,1.261,1.389,2.116,2.65,1.913
			l9.285-1.497c1.26-0.202,2.115-1.388,1.912-2.646L37.56,30.72c-0.205-1.26-1.389-2.114-2.648-1.912l-9.217,1.484l5.199-6.351
			c0.811-0.986,0.664-2.441-0.322-3.249l-4.023-3.297c-0.463-0.174-0.922-0.353-1.332-0.56"/>
		<path fill="#A36236" d="M51.925,27.724l0.305-9.402c0.002-0.034-0.008-0.066-0.008-0.101c-1.08,0.182-2.213,0.298-3.402,0.298
			c-3.047,0-5.809-0.643-7.869-1.683c-0.805,0.406-1.742,0.729-2.736,0.999c0,0.011-0.004,0.022-0.004,0.032l-0.303,9.401
			c-0.043,1.276,0.959,2.342,2.232,2.384l9.402,0.305C50.817,29.999,51.884,28.998,51.925,27.724z"/>
		<path fill="#93552B" d="M49.542,29.957c1.275,0.042,2.342-0.959,2.383-2.233l0.305-9.402c0.002-0.034-0.008-0.066-0.008-0.101
			c-1.08,0.182-2.213,0.298-3.402,0.298c-3.047,0-5.809-0.643-7.869-1.683c-0.805,0.406-1.742,0.729-2.736,0.999
			c0,0.011-0.004,0.022-0.004,0.032"/>
	</g>
	<path fill="#FFFCEE" d="M60.878,6c0,0.662-0.537,1-1.197,1H6.487C5.825,7,5.29,6.662,5.29,6l0,0c0-0.661,0.535-1,1.197-1h53.193
		C60.341,5,60.878,5.339,60.878,6L60.878,6z"/>
	<path fill="#C9834F" d="M31.083,49c0,0.552-0.447,1-1,1l0,0c-0.553,0-1-0.448-1-1l0,0c0-0.552,0.447-1,1-1l0,0
		C30.636,48,31.083,48.448,31.083,49L31.083,49z"/>
	<path fill="#C9834F" d="M34.997,46.568c0,0.579-0.469,1.048-1.047,1.048l0,0c-0.58,0-1.049-0.469-1.049-1.048l0,0
		c0-0.578,0.469-1.047,1.049-1.047l0,0C34.528,45.521,34.997,45.99,34.997,46.568L34.997,46.568z"/>
	<path fill="#C9834F" d="M46.87,38.13c0,0.398-0.32,0.721-0.719,0.721l0,0c-0.398,0-0.721-0.322-0.721-0.721l0,0
		c0-0.397,0.322-0.72,0.721-0.72l0,0C46.55,37.41,46.87,37.732,46.87,38.13L46.87,38.13z"/>
	<path fill="#C9834F" d="M25.083,48.026c0,1.09-0.884,1.974-1.975,1.974h-0.051c-1.091,0-1.975-0.884-1.975-1.974v-0.053
		c0-1.09,0.884-1.974,1.975-1.974h0.051c1.091,0,1.975,0.884,1.975,1.974V48.026z"/>
	<path fill="#9E561B" d="M46.841,47.281c0,1.091-0.883,1.974-1.975,1.974l0,0c-1.092,0-1.973-0.883-1.973-1.974l0,0
		c0-1.089,0.881-1.974,1.973-1.974l0,0C45.958,45.308,46.841,46.192,46.841,47.281L46.841,47.281z"/>
	<path fill="#F4F0DF" d="M20.7,55.508c0.072,0.401-0.193,0.789-0.596,0.864l0,0c-0.402,0.074-0.789-0.191-0.861-0.594l-4.768-25.673
		c-0.076-0.403,0.189-0.789,0.59-0.864l0,0c0.404-0.074,0.791,0.19,0.867,0.593L20.7,55.508z"/>
	<path fill="#F4F0DF" d="M15.245,26.467c0.037,0.214-0.258,0.448-0.658,0.523l0,0c-0.404,0.073-0.762-0.04-0.799-0.255l-2.543-13.7
		c-0.041-0.215,0.252-0.448,0.654-0.523l0,0c0.402-0.075,0.76,0.038,0.801,0.254L15.245,26.467z"/>
	<ellipse fill="#894410" cx="33.082" cy="58.2" rx="15.394" ry="0.854"/>
</g>
</svg>
