<?xml version="1.0" encoding="utf-8"?>
<!-- Generator: Adobe Illustrator 16.0.0, SVG Export Plug-In . SVG Version: 6.00 Build 0)  -->
<!DOCTYPE svg PUBLIC "-//W3C//DTD SVG 1.1//EN" "http://www.w3.org/Graphics/SVG/1.1/DTD/svg11.dtd">
<svg version="1.1" id="Layer_1" xmlns="http://www.w3.org/2000/svg" xmlns:xlink="http://www.w3.org/1999/xlink" x="0px" y="0px"
	 width="66px" height="66px" viewBox="0 0 66 66" enable-background="new 0 0 66 66" xml:space="preserve">
<g>
	<g>
		<path fill="#EAE5D8" d="M57.796,24.666c0,12.035-11.103,15.779-24.796,15.779c-13.695,0-24.797-3.744-24.797-15.779
			S19.305,2.875,33,2.875C46.694,2.875,57.796,12.631,57.796,24.666z"/>
		<path fill="#FFFFFF" d="M56.319,24.017c0,11.676-10.771,15.309-24.059,15.309c-13.284,0-24.057-3.633-24.057-15.309
			S18.976,2.875,32.26,2.875C45.547,2.875,56.319,12.34,56.319,24.017z"/>
		<path fill="#F4F1E6" d="M32.26,2.875c13.287,0,24.059,9.465,24.059,21.141S45.547,39.326,32.26,39.326"/>
		<g>
			<ellipse fill="#FFB000" cx="32.3" cy="17.87" rx="9.972" ry="7.825"/>
			<path fill="#FF7900" d="M32.301,10.045c5.507,0,9.971,3.503,9.971,7.825c0,4.322-4.464,7.825-9.971,7.825"/>
		</g>
		
			<ellipse transform="matrix(0.7971 -0.6038 0.6038 0.7971 -3.0908 19.3888)" fill="#FFDA00" cx="27.309" cy="14.294" rx="4.193" ry="1.543"/>
		<circle fill="#F4F1E6" cx="17.805" cy="22.903" r="1.293"/>
		<circle fill="#FFFFFF" cx="47.536" cy="22.349" r="1.293"/>
		<circle fill="#F4F1E6" cx="15.404" cy="30.104" r="1.536"/>
		<circle fill="#FFFFFF" cx="44.583" cy="30.659" r="2.09"/>
		<circle fill="#F4F1E6" cx="18.728" cy="12.931" r="1.051"/>
		<circle fill="#FFFFFF" cx="39.965" cy="8.314" r="1.05"/>
	</g>
	<g>
		<path fill="#C95039" d="M58,43.133c-2-0.942-6.553-1.715-12.112-1.79c-6.189-0.086-11.299,0.658-12.698,1.658h-0.028
			c-1.16,1-6.425,1.969-12.83,1.881C14.553,44.805,10,44.088,8,43.091v7.357c2,0.974,6.549,1.721,12.232,1.797
			c6.416,0.088,11.723-0.706,12.878-1.834c-0.003,0.004-0.024,0.008-0.029,0.01c1.343-1.072,6.487-1.82,12.714-1.734
			C51.456,48.763,56,49.503,58,50.474V43.133z"/>
		<path fill="#AD361A" d="M58,43.133c-2-0.942-6.553-1.66-12.112-1.735c-5.456-0.074-10.081,0.485-12.078,1.35l-0.08,7.287
			c1.992-0.859,6.6-1.422,12.047-1.348C51.438,48.763,56,49.503,58,50.474V43.133z"/>
		<path fill="#ED8A72" d="M58,47.58c-2-0.957-6.556-1.688-12.174-1.765c-6.229-0.086-11.414,0.661-12.761,1.735
			c0.002-0.004,0.022-0.008,0.021-0.01c-1.146,1.127-6.409,1.92-12.819,1.83C14.54,49.294,10,48.539,8,47.554v1.021
			c2,0.98,6.557,1.73,12.268,1.809c6.405,0.088,11.72-0.705,12.869-1.832c-0.007,0.003-0.029,0.008-0.029,0.01
			c1.342-1.074,6.481-1.82,12.715-1.734C51.451,46.904,56,47.636,58,48.597V47.58z"/>
		<path fill="#ED8A72" d="M58,45.002c-2-0.948-6.562-1.667-12.14-1.745c-6.231-0.086-11.413,0.66-12.762,1.736
			c0.005-0.006,0.025-0.008,0.03-0.011c-1.149,1.126-6.409,1.919-12.834,1.833C14.535,46.738,10,45.972,8,44.98V46
			c2,0.99,6.544,1.752,12.296,1.829c6.416,0.087,11.721-0.705,12.871-1.833c-0.002,0.003-0.03,0.008-0.03,0.011
			c1.352-1.074,6.487-1.82,12.721-1.735C51.455,44.347,56,45.073,58,46.025V45.002z"/>
	</g>
	<g>
		<path fill="#C95039" d="M8,61.384c2,0.943,6.552,1.457,12.112,1.533c6.189,0.086,11.299-0.916,12.698-1.916h0.028
			c1.16-1,6.425-1.711,12.83-1.623C51.447,59.455,56,60.429,58,61.427V54.07c-2-0.975-6.549-1.721-12.232-1.797
			c-6.416-0.089-11.724,0.705-12.878,1.834c0.002-0.005,0.024-0.008,0.028-0.011c-1.342,1.072-6.486,1.821-12.713,1.735
			C14.543,55.754,10,55.014,8,54.044V61.384z"/>
		<path fill="#AD361A" d="M8,61.384c2,0.943,6.552,1.66,12.112,1.736c5.455,0.074,10.086-0.917,12.082-1.78l0.076-6.856
			c-1.992,0.859-6.6,1.421-12.047,1.348C14.561,55.754,10,55.014,8,54.044V61.384z"/>
		<path fill="#ED8A72" d="M8,56.938c2,0.958,6.556,1.688,12.173,1.765c6.23,0.086,11.415-0.66,12.762-1.735
			c-0.002,0.005-0.022,0.009-0.021,0.01c1.146-1.126,6.409-1.919,12.819-1.83C51.46,55.224,56,55.98,58,56.963v-1.021
			c-2-0.979-6.557-1.729-12.268-1.808c-6.405-0.088-11.72,0.705-12.869,1.832c0.007-0.004,0.029-0.008,0.029-0.01
			c-1.342,1.074-6.481,1.819-12.715,1.734C14.549,57.615,10,56.881,8,55.921V56.938z"/>
		<path fill="#ED8A72" d="M8,59.515c2,0.949,6.562,1.668,12.14,1.746c6.231,0.085,11.413-0.661,12.761-1.736
			c-0.004,0.005-0.024,0.008-0.03,0.01c1.15-1.125,6.41-1.919,12.834-1.832C51.464,57.781,56,58.546,58,59.539v-1.021
			c-2-0.989-6.545-1.751-12.296-1.829c-6.416-0.086-11.721,0.705-12.871,1.834c0.002-0.004,0.03-0.008,0.03-0.012
			c-1.352,1.074-6.488,1.82-12.721,1.735C14.545,60.17,10,59.445,8,58.494V59.515z"/>
	</g>
</g>
</svg>
