<?xml version="1.0" encoding="utf-8"?>
<!-- Generator: Adobe Illustrator 16.0.0, SVG Export Plug-In . SVG Version: 6.00 Build 0)  -->
<!DOCTYPE svg PUBLIC "-//W3C//DTD SVG 1.1//EN" "http://www.w3.org/Graphics/SVG/1.1/DTD/svg11.dtd">
<svg version="1.1" id="Layer_1" xmlns="http://www.w3.org/2000/svg" xmlns:xlink="http://www.w3.org/1999/xlink" x="0px" y="0px"
	 width="66px" height="66px" viewBox="0 0 66 66" enable-background="new 0 0 66 66" xml:space="preserve">
<g>
	<rect x="22" y="12" fill="#B51D1D" width="3" height="6"/>
	<rect x="42" y="12" fill="#B51D1D" width="3" height="6"/>
	<path fill="#F15249" d="M64,56.953C64,59.188,62.188,61,59.953,61H6.047C3.812,61,2,59.188,2,56.953V21.047
		C2,18.812,3.812,17,6.047,17h53.906C62.188,17,64,18.812,64,21.047V56.953z"/>
	<path fill="#0AA06E" d="M45,12.396C45,13.282,44.282,14,43.396,14H23.604C22.718,14,22,13.282,22,12.396V6.604
		C22,5.718,22.718,5,23.604,5h19.793C44.282,5,45,5.718,45,6.604V12.396z"/>
	<path fill="#007C56" d="M22,6.604C22,5.718,22.599,5,23.484,5h20.288C44.658,5,45,5.752,45,6.638v5.293
		c0,0.886,0,1.819-1.604,2.069"/>
	<line fill="#6965A8" x1="44" y1="14" x2="23" y2="14"/>
	<rect x="7" y="50" fill="#FFFFFF" width="9" height="1"/>
	<rect x="7" y="53" fill="#FFFFFF" width="9" height="1"/>
	<path fill="#C93131" d="M64,56.919V47.53L40.891,24.44L18.282,47.055L32.199,61h27.712C62.146,61,64,59.153,64,56.919z"/>
	<path fill="#B51D1D" d="M61.652,60.574l-28.45-28.458l-7.014,7.027L48.033,61h11.878C60.537,61,61.123,60.828,61.652,60.574z"/>
	<polygon fill="#FFFFFF" points="48,31 41,31 41,24 25,24 25,31 18,31 18,47 25,47 25,54 41,54 41,47 48,47 	"/>
	<polyline fill="#EAEAEA" points="41,47 48,47 48,31 41,31 41,24 25,24 25,31 	"/>
	<rect x="55" y="23" fill="#B51D1D" width="4" height="4"/>
</g>
</svg>
