<?xml version="1.0" encoding="utf-8"?>
<!-- Generator: Adobe Illustrator 16.0.0, SVG Export Plug-In . SVG Version: 6.00 Build 0)  -->
<!DOCTYPE svg PUBLIC "-//W3C//DTD SVG 1.1//EN" "http://www.w3.org/Graphics/SVG/1.1/DTD/svg11.dtd">
<svg version="1.1" id="Layer_1" xmlns="http://www.w3.org/2000/svg" xmlns:xlink="http://www.w3.org/1999/xlink" x="0px" y="0px"
	 width="66px" height="66px" viewBox="0 0 66 66" enable-background="new 0 0 66 66" xml:space="preserve">
<g>
	<g>
		<g>
			<path fill="#2F423F" d="M14.601,55.299c0,3.246,2.639,5.719,5.884,5.719h16.9c0.788,0,1.425-0.713,1.425-1.501
				c0-0.786-0.637-1.499-1.425-1.499h-16.9c-1.674,0-3.031-1.119-3.031-2.791c0-1.67,1.357-2.912,3.031-2.912
				c0.786,0,1.425-0.577,1.425-1.364c0-0.788-0.639-1.479-1.425-1.479C17.239,49.471,14.601,52.055,14.601,55.299z"/>
		</g>
		<path fill="#2F423F" d="M55.862,64.018h2.87c-0.171-3-2.733-6-5.867-6h-16.9c-0.788,0-1.427,0.714-1.427,1.501
			c0,0.788,0.639,1.499,1.427,1.499h16.9C54.426,61.018,55.698,63.018,55.862,64.018z"/>
	</g>
	<g>
		<g>
			<path fill="#32BA7C" d="M30.95,30.939c-6.626,6.622-17.356,6.617-23.983,0c-6.618-6.621-6.627-17.367,0-23.995
				c6.627-6.615,17.357-6.615,23.983,0C37.572,13.572,37.572,24.318,30.95,30.939z"/>
			<path fill="#0AA06E" d="M30.95,6.944c6.622,6.628,6.622,17.374,0,23.995c-6.626,6.622-17.356,6.617-23.983,0"/>
		</g>
		<g>
			<path fill="#FFC114" d="M26.316,11.587c4.061,4.065,4.057,10.647,0,14.71c-4.061,4.059-10.653,4.065-14.717,0
				c-4.058-4.063-4.058-10.646,0-14.71C15.663,7.526,22.256,7.526,26.316,11.587z"/>
			<path fill="#FCA12A" d="M11.6,11.587c4.063-4.061,10.656-4.061,14.717,0c4.061,4.065,4.057,10.647,0,14.71"/>
		</g>
		<g>
			<path fill="#F15249" d="M23.921,23.905c-2.742,2.738-7.182,2.736-9.922,0c-2.739-2.738-2.742-7.184,0-9.926
				c2.74-2.736,7.18-2.736,9.922,0C26.657,16.721,26.657,21.167,23.921,23.905z"/>
			<path fill="#D82E2E" d="M23.921,13.979c2.736,2.742,2.736,7.188,0,9.926c-2.742,2.738-7.182,2.736-9.922,0"/>
		</g>
		<path fill="#0AA06E" d="M25,47.055c0,3.293-2.67,5.963-5.964,5.963h-0.072c-3.294,0-5.964-2.67-5.964-5.963V34.98
			c0-3.293,2.665-5.083,5.959-5.083l0,0c3.294,0,6.041,1.79,6.041,5.083V47.055z"/>
		<rect x="34" y="11.018" fill="#0AA06E" width="9" height="16"/>
		<path fill="#32BA7C" d="M21.94,39.02c0,0.5-0.408,0.998-0.912,0.998h-4.141c-0.503,0-0.91-0.498-0.91-0.998l0,0
			c0-0.506,0.407-1.002,0.91-1.002h4.141C21.532,38.018,21.94,38.514,21.94,39.02L21.94,39.02z"/>
		<path fill="#32BA7C" d="M21.94,43.02c0,0.5-0.408,0.998-0.912,0.998h-4.141c-0.503,0-0.91-0.498-0.91-0.998l0,0
			c0-0.506,0.407-1.002,0.91-1.002h4.141C21.532,42.018,21.94,42.514,21.94,43.02L21.94,43.02z"/>
		<path fill="#32BA7C" d="M22,47.105c0,0.504-0.408,0.912-0.912,0.912h-4.176c-0.504,0-0.912-0.408-0.912-0.912V46.93
			c0-0.504,0.408-0.912,0.912-0.912h4.176c0.504,0,0.912,0.408,0.912,0.912V47.105z"/>
		<polygon fill="#32BA7C" points="49,29.792 42,26.811 42,11.075 49,8.093 		"/>
		<g>
			<path fill="#FFC114" d="M53.052,20.018c-0.636,0-1.149-0.365-1.149-1l0,0c0-0.634,0.514-1,1.149-1h9.799
				c0.635,0,1.149,0.366,1.149,1l0,0c0,0.635-0.515,1-1.149,1H53.052z"/>
			<path fill="#FFC114" d="M51.571,25.761c-0.594-0.223-0.895-0.887-0.67-1.48l0,0c0.223-0.594,0.885-0.895,1.48-0.67l9.168,3.458
				c0.597,0.222,0.896,0.886,0.67,1.48l0,0c-0.222,0.593-0.884,0.894-1.478,0.67L51.571,25.761z"/>
			<path fill="#FFC114" d="M51.571,12.125c-0.594,0.223-0.895,0.885-0.67,1.48l0,0c0.223,0.594,0.885,0.893,1.48,0.67l9.168-3.458
				c0.597-0.225,0.896-0.887,0.67-1.48l0,0c-0.222-0.596-0.884-0.895-1.478-0.671L51.571,12.125z"/>
		</g>
	</g>
</g>
</svg>
