<?xml version="1.0" encoding="utf-8"?>
<!-- Generator: Adobe Illustrator 16.0.0, SVG Export Plug-In . SVG Version: 6.00 Build 0)  -->
<!DOCTYPE svg PUBLIC "-//W3C//DTD SVG 1.1//EN" "http://www.w3.org/Graphics/SVG/1.1/DTD/svg11.dtd">
<svg version="1.1" id="Layer_1" xmlns="http://www.w3.org/2000/svg" xmlns:xlink="http://www.w3.org/1999/xlink" x="0px" y="0px"
	 width="66px" height="66px" viewBox="0 0 66 66" enable-background="new 0 0 66 66" xml:space="preserve">
<g>
	<path fill="#3757A6" d="M2,40v8.223C2,51.586,4.672,54,7.967,54h50.065C61.327,54,64,51.586,64,48.223V40H2z"/>
	<path fill="#E73B36" d="M58.032,12H7.967C4.672,12,2,14.414,2,17.777V26h62v-8.223C64,14.414,61.327,12,58.032,12z"/>
	<rect x="2" y="26" fill="#E9EFF4" width="62" height="14"/>
	<g>
		<g>
			<path fill="#234891" d="M57.752,54C61.047,54,64,51.586,64,48.223V40H41.391L57.752,54z"/>
			<path fill="#D82121" d="M58.032,12H7.967l16.643,14H64v-8.223C64,14.414,61.327,12,58.032,12z"/>
			<polygon fill="#CFDCE5" points="41.533,40 64,40 64,26 24.466,26 			"/>
			<path fill="#C10A0A" d="M58.032,12H7.967l46.261,14H64v-8.223C64,14.414,61.327,12,58.032,12z"/>
			<polygon fill="#BCCED8" points="64,28.848 64,26 53.833,26 			"/>
			<path fill="#234891" d="M64,48.067C64,51.656,61.327,54,58.032,54H7.967C4.672,54,2,51.352,2,47.989"/>
		</g>
	</g>
</g>
</svg>
