<?xml version="1.0" encoding="utf-8"?>
<!-- Generator: Adobe Illustrator 16.0.0, SVG Export Plug-In . SVG Version: 6.00 Build 0)  -->
<!DOCTYPE svg PUBLIC "-//W3C//DTD SVG 1.1//EN" "http://www.w3.org/Graphics/SVG/1.1/DTD/svg11.dtd">
<svg version="1.1" id="Layer_1" xmlns="http://www.w3.org/2000/svg" xmlns:xlink="http://www.w3.org/1999/xlink" x="0px" y="0px"
	 width="66px" height="66px" viewBox="0 0 66 66" enable-background="new 0 0 66 66" xml:space="preserve">
<g>
	<g>
		<g>
			<g>
				<g>
					<path fill="#8EA5A4" d="M64,61.617C64,62.934,62.934,64,61.617,64H4.381C3.066,64,2,62.934,2,61.617V4.381
						C2,3.066,3.066,2,4.381,2h57.236C62.934,2,64,3.066,64,4.381V61.617z"/>
					<path fill="#FDFFFF" d="M4,12v47.723C4,60.963,4.854,62,6.093,62h53.814C61.146,62,62,60.963,62,59.723V12H4z"/>
					<path fill="#E8EFEF" d="M59.907,62.029c1.238,0,2.093-1.066,2.093-2.307V12H4"/>
					<rect x="4" y="12" fill="#DCE5E5" width="58" height="3"/>
					<g>
						<path fill="#FDFFFF" d="M51.393,7.001C51.393,8.198,50.419,9,49.22,9H6.001C4.804,9,5.028,8.198,5.028,7.001l0,0
							C5.028,5.8,4.804,5,6.001,5H49.22C50.419,5,51.393,5.8,51.393,7.001L51.393,7.001z"/>
						<path fill="#E6EFEF" d="M5.028,7.053L5.028,7.053C5.028,5.852,4.804,5,6.001,5H49.22c1.199,0,2.173,0.911,2.173,2.112l0,0"/>
					</g>
					<g>
						<g>
							<circle opacity="0.4" fill="#B1BCBC" cx="55.34" cy="7.158" r="1.137"/>
							<circle fill="#FFFFFF" cx="55.34" cy="6.705" r="1.137"/>
							<path fill="#E8EFEE" d="M54.537,5.9c0.444-0.441,1.164-0.443,1.608,0c0.444,0.445,0.444,1.164,0,1.609"/>
						</g>
						<g>
							<circle opacity="0.4" fill="#B1BCBC" cx="59.822" cy="7.158" r="1.137"/>
							<circle fill="#FFFFFF" cx="59.822" cy="6.705" r="1.137"/>
							<path fill="#E8EFEE" d="M59.019,5.9c0.444-0.441,1.164-0.443,1.608,0c0.444,0.445,0.444,1.164,0,1.609"/>
						</g>
					</g>
					<path fill="#8EA5A4" d="M14.629,6.01c-0.025-0.037-0.07-0.059-0.116-0.059h-0.301c-0.063,0-0.121,0.043-0.14,0.105l-0.239,0.84
						c-0.002,0.006-0.002,0.01-0.004,0.012c-0.003-0.004-0.005-0.012-0.007-0.018l-0.258-0.838c-0.02-0.061-0.074-0.102-0.14-0.102
						h-0.256c-0.062,0-0.117,0.041-0.138,0.102l-0.275,0.865c0,0,0,0-0.002,0.002c0-0.004,0-0.01-0.002-0.012l-0.221-0.848
						c-0.019-0.064-0.073-0.109-0.142-0.109h-0.311c-0.027,0-0.056,0.012-0.078,0.027c-0.023-0.016-0.051-0.027-0.079-0.027h-0.3
						c-0.066,0-0.123,0.043-0.14,0.105l-0.239,0.84c-0.002,0.006-0.002,0.01-0.005,0.012c0-0.004-0.002-0.012-0.004-0.018
						l-0.263-0.838c-0.017-0.061-0.073-0.102-0.137-0.102h-0.254c-0.064,0-0.119,0.041-0.138,0.102l-0.279,0.865c0,0,0,0,0,0.002
						c0-0.004-0.003-0.01-0.003-0.012L9.939,6.061C9.925,5.996,9.865,5.951,9.8,5.951H9.488c-0.027,0-0.053,0.012-0.078,0.027
						C9.387,5.963,9.361,5.951,9.332,5.951H9.031c-0.065,0-0.122,0.043-0.14,0.105l-0.238,0.84c0,0.006-0.003,0.01-0.003,0.012
						C8.648,6.904,8.645,6.896,8.643,6.891L8.384,6.053c-0.019-0.061-0.076-0.102-0.14-0.102H7.99c-0.063,0-0.12,0.041-0.138,0.102
						L7.576,6.918c0,0,0,0,0,0.002C7.573,6.916,7.573,6.91,7.571,6.908l-0.22-0.848c-0.017-0.064-0.074-0.109-0.14-0.109H6.898
						c-0.044,0-0.089,0.021-0.114,0.059C6.757,6.047,6.748,6.094,6.761,6.137l0.506,1.676c0.02,0.059,0.074,0.102,0.138,0.102h0.277
						c0.062,0,0.116-0.041,0.138-0.098l0.269-0.795c0.007-0.02,0.013-0.039,0.019-0.059C8.111,6.98,8.117,6.998,8.122,7.016
						l0.256,0.799c0.019,0.059,0.076,0.1,0.138,0.1h0.277c0.061,0,0.116-0.041,0.137-0.1l0.479-1.486l0.448,1.484
						c0.018,0.059,0.074,0.102,0.138,0.102h0.277c0.062,0,0.116-0.041,0.138-0.098l0.269-0.795c0.007-0.02,0.013-0.039,0.018-0.059
						c0.006,0.018,0.013,0.035,0.017,0.053l0.256,0.799c0.02,0.059,0.074,0.1,0.138,0.1h0.277c0.062,0,0.116-0.041,0.138-0.1
						l0.478-1.486l0.449,1.484c0.017,0.059,0.073,0.102,0.138,0.102h0.274c0.063,0,0.119-0.041,0.138-0.098l0.271-0.795
						c0.007-0.02,0.013-0.039,0.02-0.059c0.004,0.018,0.009,0.035,0.015,0.053l0.256,0.799c0.02,0.059,0.074,0.1,0.138,0.1h0.277
						c0.063,0,0.118-0.041,0.136-0.1l0.541-1.676C14.665,6.094,14.656,6.047,14.629,6.01z"/>
				</g>
			</g>
		</g>
	</g>
	<g>
		<g>
			<path fill="#DCE5E5" d="M41.688,53H24.334C23.506,53,23,52.6,23,51.771V40.332c0-0.828,0.672-1.5,1.5-1.5s1.5,0.672,1.5,1.5V50
				h14v-9.668c0-0.828,0.672-1.5,1.5-1.5s1.5,0.672,1.5,1.5v11.272C43,52.433,42.517,53,41.688,53z"/>
		</g>
		<g>
			<path fill="#DCE5E5" d="M46.651,39.984c-0.384,0-0.768-0.146-1.061-0.439L33,26.953L20.409,39.545
				c-0.586,0.586-1.535,0.586-2.121,0s-0.586-1.535,0-2.121l13.651-13.652c0.562-0.562,1.559-0.562,2.121,0l13.651,13.652
				c0.586,0.586,0.586,1.535,0,2.121C47.419,39.838,47.035,39.984,46.651,39.984z"/>
		</g>
	</g>
	<g>
		<g>
			<path fill="#DD2A73" d="M41.251,51H24.521C23.693,51,23,50.412,23,49.584V38.332c0-0.828,0.672-1.5,1.5-1.5s1.5,0.672,1.5,1.5V48
				h14v-9.668c0-0.828,0.672-1.5,1.5-1.5s1.5,0.672,1.5,1.5v11.169C43,50.329,42.079,51,41.251,51z"/>
		</g>
		<g>
			<path fill="#7A61C9" d="M46.651,37.984c-0.384,0-0.768-0.146-1.061-0.439L33,24.953L20.409,37.545
				c-0.586,0.586-1.535,0.586-2.121,0s-0.586-1.535,0-2.121l13.651-13.652c0.562-0.562,1.559-0.562,2.121,0l13.651,13.652
				c0.586,0.586,0.586,1.535,0,2.121C47.419,37.838,47.035,37.984,46.651,37.984z"/>
		</g>
	</g>
</g>
</svg>
