<?xml version="1.0" encoding="utf-8"?>
<!-- Generator: Adobe Illustrator 16.0.0, SVG Export Plug-In . SVG Version: 6.00 Build 0)  -->
<!DOCTYPE svg PUBLIC "-//W3C//DTD SVG 1.1//EN" "http://www.w3.org/Graphics/SVG/1.1/DTD/svg11.dtd">
<svg version="1.1" id="Layer_1" xmlns="http://www.w3.org/2000/svg" xmlns:xlink="http://www.w3.org/1999/xlink" x="0px" y="0px"
	 width="66px" height="66px" viewBox="0 0 66 66" enable-background="new 0 0 66 66" xml:space="preserve">
<g>
	<g>
		<g>
			<g>
				<path fill="#80BC2B" d="M32.517,52.715c0,0-3.168-6.667-8.834-6.5c0,0,3.084-1.083,5.751,0.584c0,0-2.667-1.917-5.667-2.833
					s-3.583-3.167-3.333-5c0,0,1.916,2.25,3.583,2c0,0-6-3.166-4-13.083s0.167-9.5,0.167-9.5s2.75-0.583,3.417,6.917
					c0,0,0.167-3.25-1-7.167s1.333-5.334,1.333-5.334s-0.667,2.5,1.25,4c0,0-1.751-2.916,0.583-4.666s2.25-2.917,2.25-2.917
					s0.166,1.833-0.5,3.083c0,0,1.583-1.333,2-3.583c0,0,0,2.667-0.333,3.167c0,0,3.417-5.251,3.583-9.834v51.083L32.517,52.715z"/>
			</g>
			<g>
				<path fill="#68A519" d="M28.017,9.216c0,0,0.166,1.833-0.5,3.083c0,0,1.583-1.333,2-3.583c0,0,0,2.667-0.333,3.167
					c0,0,3.417-5.251,3.583-9.834v51.083l-0.25-0.417c0,0-3.168-6.667-8.834-6.5c0,0,3.084-1.083,5.751,0.584
					c0,0-2.667-1.917-5.667-2.833s-3.583-3.167-3.333-5c0,0,1.916,2.25,3.583,2"/>
			</g>
			<g>
				<path fill="#80BC2B" d="M23.601,25.3c0,0,0.167-3.25-1-7.167s1.333-5.334,1.333-5.334s-0.667,2.5,1.25,4"/>
			</g>
			<g>
				<g>
					<path fill="#528C00" d="M32.767,34.58v-6.77l-10.33-10.33c0.044,0.21,0.097,0.426,0.164,0.652c1.167,3.917,1,7.167,1,7.167
						c-0.657-7.39-3.331-6.934-3.409-6.918c0.092-0.012,1.075-0.039,0.654,4.277L32.767,34.58z"/>
				</g>
				<g>
					<path fill="#68A519" d="M20.191,18.382l-0.008,0.001L20.191,18.382z"/>
				</g>
				<g>
					<path fill="#528C00" d="M19.619,31.538c-0.078,7.051,4.397,9.428,4.397,9.428c-1.667,0.25-3.583-2-3.583-2
						c-0.25,1.833,0.333,4.084,3.333,5s5.667,2.833,5.667,2.833c-2.667-1.667-5.751-0.584-5.751-0.584
						c5.666-0.167,8.834,6.5,8.834,6.5l0.25,0.417v-8.446L19.619,31.538z"/>
				</g>
				<g>
					<path fill="#528C00" d="M32.767,17.705V2.049c-0.166,4.583-3.583,9.834-3.583,9.834c0.333-0.5,0.333-3.167,0.333-3.167
						c-0.417,2.25-2,3.583-2,3.583c0.666-1.25,0.5-3.083,0.5-3.083s0.062,0.887-1.467,2.272L32.767,17.705z"/>
				</g>
			</g>
		</g>
		<g>
			<g>
				<path fill="#80BC2B" d="M33.483,52.715c0,0,3.168-6.667,8.834-6.5c0,0-3.084-1.083-5.751,0.584c0,0,2.667-1.917,5.667-2.833
					s3.583-3.167,3.333-5c0,0-1.916,2.25-3.583,2c0,0,6-3.166,4-13.083s-0.167-9.5-0.167-9.5s-2.75-0.583-3.417,6.917
					c0,0-0.167-3.25,1-7.167s-1.333-5.334-1.333-5.334s0.667,2.5-1.25,4c0,0,1.751-2.916-0.583-4.666s-2.25-2.917-2.25-2.917
					s-0.166,1.833,0.5,3.083c0,0-1.583-1.333-2-3.583c0,0,0,2.667,0.333,3.167c0,0-3.417-5.251-3.583-9.834v51.083L33.483,52.715z"
					/>
			</g>
			<g>
				<path fill="#68A519" d="M37.983,9.216c0,0-0.166,1.833,0.5,3.083c0,0-1.583-1.333-2-3.583c0,0,0,2.667,0.333,3.167
					c0,0-3.417-5.251-3.583-9.834v51.083l0.25-0.417c0,0,3.168-6.667,8.834-6.5c0,0-3.084-1.083-5.751,0.584
					c0,0,2.667-1.917,5.667-2.833s3.583-3.167,3.333-5c0,0-1.916,2.25-3.583,2"/>
			</g>
			<g>
				<path fill="#80BC2B" d="M42.399,25.3c0,0-0.167-3.25,1-7.167s-1.333-5.334-1.333-5.334s0.667,2.5-1.25,4"/>
			</g>
			<g>
				<g>
					<path fill="#528C00" d="M33.233,34.58v-6.77l10.33-10.33c-0.044,0.21-0.097,0.426-0.164,0.652c-1.167,3.917-1,7.167-1,7.167
						c0.657-7.39,3.331-6.934,3.409-6.918c-0.092-0.012-1.075-0.039-0.654,4.277L33.233,34.58z"/>
				</g>
				<g>
					<path fill="#68A519" d="M45.809,18.382l0.008,0.001L45.809,18.382z"/>
				</g>
				<g>
					<path fill="#528C00" d="M46.381,31.538c0.078,7.051-4.397,9.428-4.397,9.428c1.667,0.25,3.583-2,3.583-2
						c0.25,1.833-0.333,4.084-3.333,5s-5.667,2.833-5.667,2.833c2.667-1.667,5.751-0.584,5.751-0.584
						c-5.666-0.167-8.834,6.5-8.834,6.5l-0.25,0.417v-8.446L46.381,31.538z"/>
				</g>
				<g>
					<path fill="#528C00" d="M33.233,17.705V2.049c0.166,4.583,3.583,9.834,3.583,9.834c-0.333-0.5-0.333-3.167-0.333-3.167
						c0.417,2.25,2,3.583,2,3.583c-0.666-1.25-0.5-3.083-0.5-3.083s-0.062,0.887,1.467,2.272L33.233,17.705z"/>
				</g>
			</g>
		</g>
	</g>
	<g>
		<g>
			<path fill="#02243E" d="M33,64.164c-0.276,0-0.5-0.224-0.5-0.5V2.336c0-0.276,0.224-0.5,0.5-0.5s0.5,0.224,0.5,0.5v61.328
				C33.5,63.94,33.276,64.164,33,64.164z"/>
		</g>
	</g>
</g>
</svg>
