<?xml version="1.0" encoding="utf-8"?>
<!-- Generator: Adobe Illustrator 16.0.0, SVG Export Plug-In . SVG Version: 6.00 Build 0)  -->
<!DOCTYPE svg PUBLIC "-//W3C//DTD SVG 1.1//EN" "http://www.w3.org/Graphics/SVG/1.1/DTD/svg11.dtd">
<svg version="1.1" id="Layer_1" xmlns="http://www.w3.org/2000/svg" xmlns:xlink="http://www.w3.org/1999/xlink" x="0px" y="0px"
	 width="66px" height="66px" viewBox="0 0 66 66" enable-background="new 0 0 66 66" xml:space="preserve">
<g>
	<g>
		<g>
			<path fill="#02243E" d="M33,64.164c-0.276,0-0.5-0.224-0.5-0.5V2.336c0-0.276,0.224-0.5,0.5-0.5s0.5,0.224,0.5,0.5v61.328
				C33.5,63.94,33.276,64.164,33,64.164z"/>
		</g>
	</g>
	<g>
		<g>
			<g>
				<path fill="#68A519" d="M32.51,2.772c-1.893,9.66-7.139,6.463-7.139,6.463c2.09,9.924-4.223,10.402-4.223,10.402
					c6.789,8.27-0.783,13.059-0.783,13.059c6.094,7.139,3.353,13.885,3.353,13.885c4.468,0.873,7.298,5.496,8.792,8.833V2.772z"/>
			</g>
			<g>
				<g>
					<path fill="#528C00" d="M20.365,32.668c5.716,7.009,3.353,13.913,3.353,13.913c0.364,0.071,0.714,0.176,1.057,0.294h7.735
						V33.042L20.365,32.668z"/>
				</g>
				<g>
					<path fill="#528C00" d="M25.448,9.418c0.959,7.125-1.706,9.371-3.267,9.957H32.51v-8.5L25.448,9.418z"/>
				</g>
			</g>
			<g>
				<g>
					<path fill="#80BC2B" d="M32.51,8.374V2.772c-0.9,4.594-2.558,6.277-4.05,6.783C29.395,9.845,31.041,10.005,32.51,8.374z"/>
				</g>
				<g>
					<path fill="#80BC2B" d="M26.051,46.581c0,0,2.741-6.746-3.353-13.885c0,0,7.572-4.789,0.783-13.059
						c0,0,6.082-0.484,4.304-9.928c-1.346,0.173-2.414-0.475-2.414-0.475c2.09,9.924-4.223,10.402-4.223,10.402
						c6.789,8.27-0.783,13.059-0.783,13.059c6.094,7.139,3.353,13.885,3.353,13.885c4.468,0.873,7.298,5.496,8.792,8.833v-4.129
						C30.93,49.079,28.802,47.118,26.051,46.581z"/>
				</g>
			</g>
		</g>
		<g>
			<g>
				<path fill="#68A519" d="M33.49,2.772c1.893,9.66,7.139,6.463,7.139,6.463c-2.09,9.924,4.223,10.402,4.223,10.402
					c-6.789,8.27,0.783,13.059,0.783,13.059c-6.094,7.139-3.353,13.885-3.353,13.885c-4.468,0.873-7.298,5.496-8.792,8.833V2.772z"
					/>
			</g>
			<g>
				<g>
					<path fill="#528C00" d="M45.635,32.668c-5.716,7.009-3.353,13.913-3.353,13.913c-0.364,0.071-0.714,0.176-1.057,0.294H33.49
						V33.042L45.635,32.668z"/>
				</g>
				<g>
					<path fill="#528C00" d="M40.552,9.418c-0.959,7.125,1.706,9.371,3.267,9.957H33.49v-8.5L40.552,9.418z"/>
				</g>
			</g>
			<g>
				<g>
					<path fill="#80BC2B" d="M33.49,8.374V2.772c0.9,4.594,2.558,6.277,4.05,6.783C36.605,9.845,34.959,10.005,33.49,8.374z"/>
				</g>
				<g>
					<path fill="#80BC2B" d="M39.949,46.581c0,0-2.741-6.746,3.353-13.885c0,0-7.572-4.789-0.783-13.059
						c0,0-6.082-0.484-4.304-9.928c1.346,0.173,2.414-0.475,2.414-0.475c-2.09,9.924,4.223,10.402,4.223,10.402
						c-6.789,8.27,0.783,13.059,0.783,13.059c-6.094,7.139-3.353,13.885-3.353,13.885c-4.468,0.873-7.298,5.496-8.792,8.833v-4.129
						C35.07,49.079,37.198,47.118,39.949,46.581z"/>
				</g>
			</g>
		</g>
	</g>
</g>
</svg>
