<?xml version="1.0" encoding="utf-8"?>
<!-- Generator: Adobe Illustrator 16.0.0, SVG Export Plug-In . SVG Version: 6.00 Build 0)  -->
<!DOCTYPE svg PUBLIC "-//W3C//DTD SVG 1.1//EN" "http://www.w3.org/Graphics/SVG/1.1/DTD/svg11.dtd">
<svg version="1.1" id="Layer_1" xmlns="http://www.w3.org/2000/svg" xmlns:xlink="http://www.w3.org/1999/xlink" x="0px" y="0px"
	 width="66px" height="66px" viewBox="0 0 66 66" enable-background="new 0 0 66 66" xml:space="preserve">
<g>
	<g>
		<g>
			<g>
				<g>
					<path fill="#FF7F00" d="M18.092,36.267c-5.287,1.127-9.352,7.775-9.352,15.838c0,8.057,4.064,10.791,9.352,11.215V36.267z"/>
				</g>
				<path fill="#FF4800" d="M18.038,36.267c5.283,1.127,9.347,7.775,9.347,15.838c0,8.057-4.063,10.791-9.347,11.215V36.267z"/>
			</g>
			<g>
				<g>
					<path fill="#FFBC00" d="M18.084,45.837c-3.422,0.723-6.043,5.021-6.043,10.229c0,5.215,2.621,6.979,6.043,7.254V45.837z"/>
				</g>
				<path fill="#FF7F00" d="M18.049,45.837c3.41,0.723,6.038,5.021,6.038,10.229c0,5.215-2.628,6.979-6.038,7.254V45.837z"/>
			</g>
			<path fill="#B73D13" d="M18.065,60.753c-1.331,0-2.457,0.854-2.882,2.037c0.891,0.273,1.848,0.439,2.854,0.523v0.006
				c0.011-0.004,0.021-0.004,0.027-0.004c0.008,0,0.019,0,0.026,0.004v-0.006c1.002-0.084,1.961-0.25,2.853-0.523
				C20.518,61.606,19.395,60.753,18.065,60.753z"/>
		</g>
		<path fill="#FF7F00" d="M8.199,63.347c0,0.564-0.457,1.018-1.016,1.018c-0.565,0-1.02-0.453-1.02-1.018
			c0-0.562,0.454-1.018,1.02-1.018C7.742,62.329,8.199,62.784,8.199,63.347z"/>
		<path fill="#FF7F00" d="M5.893,50.995c0,1.232-1.004,2.24-2.242,2.24c-1.236,0-2.24-1.008-2.24-2.24c0-1.238,1.004-2.24,2.24-2.24
			C4.889,48.755,5.893,49.757,5.893,50.995z"/>
		<path fill="#FF7F00" d="M6.568,58.935c0,0.525-0.424,0.949-0.949,0.949c-0.527,0-0.949-0.424-0.949-0.949
			c0-0.523,0.422-0.949,0.949-0.949C6.145,57.985,6.568,58.411,6.568,58.935z"/>
		<path fill="#FFBC00" d="M6.977,54.39c0,0.186-0.15,0.34-0.34,0.34c-0.184,0-0.336-0.154-0.336-0.34c0-0.189,0.152-0.34,0.336-0.34
			C6.826,54.05,6.977,54.2,6.977,54.39z"/>
		<circle fill="#FFBC00" cx="4.737" cy="42.308" r="1.427"/>
		<circle fill="#FFBC00" cx="30.731" cy="61.106" r="2.036"/>
		<path fill="#FFBC00" d="M33.989,51.2c0,0.596-0.489,1.084-1.087,1.084c-0.6,0-1.085-0.488-1.085-1.084
			c0-0.604,0.485-1.088,1.085-1.088C33.5,50.112,33.989,50.597,33.989,51.2z"/>
		<path fill="#FF7F00" d="M30.459,41.151c0,0.75-0.61,1.359-1.354,1.359c-0.751,0-1.359-0.609-1.359-1.359
			c0-0.748,0.608-1.354,1.359-1.354C29.849,39.798,30.459,40.403,30.459,41.151z"/>
		<path fill="#FF7F00" d="M26.251,62.937c0,0.189-0.151,0.342-0.341,0.342c-0.186,0-0.337-0.152-0.337-0.342
			c0-0.184,0.151-0.336,0.337-0.336C26.1,62.601,26.251,62.753,26.251,62.937z"/>
		<path fill="#FFBC00" d="M11.186,35.657c0,0.412-0.333,0.744-0.75,0.744c-0.408,0-0.744-0.332-0.744-0.744s0.336-0.75,0.744-0.75
			C10.853,34.907,11.186,35.245,11.186,35.657z"/>
		<path fill="#FFBC00" d="M27.199,34.776c0,0.146-0.115,0.268-0.268,0.268c-0.151,0-0.273-0.121-0.273-0.268
			c0-0.152,0.122-0.273,0.273-0.273C27.084,34.503,27.199,34.624,27.199,34.776z"/>
		<path fill="#FFBC00" d="M16.343,32.804c0,0.342-0.272,0.613-0.612,0.613c-0.336,0-0.609-0.271-0.609-0.613
			c0-0.336,0.273-0.609,0.609-0.609C16.07,32.194,16.343,32.468,16.343,32.804z"/>
		<path fill="#FFBC00" d="M14.171,25.95c0,0.674-0.548,1.223-1.223,1.223c-0.672,0-1.222-0.549-1.222-1.223s0.55-1.221,1.222-1.221
			C13.623,24.729,14.171,25.276,14.171,25.95z"/>
	</g>
	<g>
		<path fill="#9E7343" d="M64.046,54.798c0.726,0.727,0.726,1.902,0,2.627l0,0c-0.726,0.727-1.903,0.727-2.628,0L9.441,5.452
			c-0.725-0.727-0.725-1.904,0-2.629l0,0c0.727-0.727,1.902-0.727,2.628,0L64.046,54.798z"/>
		<g>
			<g>
				<path fill="#D6D3A5" d="M25.854,6.983c1.202,1.203,1.202,3.154,0,4.355l-7.895,7.895c-1.203,1.203-3.152,1.203-4.354,0
					l-4.447-4.445c-1.202-1.203-1.202-3.154,0-4.355l7.896-7.895c1.201-1.203,3.152-1.203,4.355,0L25.854,6.983z"/>
				<path fill="#C1BC8B" d="M21.408,2.538l4.445,4.445c1.202,1.203,1.202,3.154,0,4.355l-7.895,7.895
					c-1.203,1.203-3.152,1.203-4.354,0"/>
				
					<ellipse transform="matrix(0.7072 -0.707 0.707 0.7072 -0.842 11.3908)" fill="#9E7343" cx="13.331" cy="6.712" rx="6.351" ry="1.027"/>
				
					<ellipse transform="matrix(0.7072 -0.707 0.707 0.7072 -4.2948 19.7255)" fill="#C1BC8B" cx="21.667" cy="15.048" rx="6.351" ry="1.028"/>
			</g>
			<g>
				<path fill="#D6D3A5" d="M37.012,18.144c1.203,1.203,1.205,3.152,0.002,4.355l-7.895,7.895c-1.203,1.203-3.153,1.201-4.355,0
					l-4.446-4.447c-1.204-1.203-1.204-3.152,0-4.354l7.894-7.895c1.204-1.203,3.153-1.203,4.355,0L37.012,18.144z"/>
				<path fill="#C1BC8B" d="M32.566,13.698l4.445,4.445c1.203,1.203,1.205,3.152,0.002,4.355l-7.895,7.895
					c-1.203,1.203-3.153,1.201-4.355,0"/>
				<path fill="#9E7343" d="M28.982,13.382c0.401,0.398-1.283,2.734-3.766,5.215c-2.479,2.482-4.816,4.166-5.215,3.766
					c-0.403-0.4,1.283-2.734,3.764-5.217C26.246,14.665,28.582,12.979,28.982,13.382z"/>
				<path fill="#C1BC8B" d="M37.318,21.718c0.401,0.398-1.285,2.734-3.764,5.217c-2.482,2.48-4.817,4.166-5.219,3.764
					c-0.4-0.398,1.285-2.734,3.766-5.217C34.582,23.001,36.919,21.315,37.318,21.718z"/>
			</g>
			<g>
				<path fill="#D6D3A5" d="M48.172,29.302c1.203,1.203,1.203,3.154,0,4.355l-7.895,7.896c-1.201,1.201-3.152,1.201-4.354,0
					l-4.446-4.447c-1.201-1.203-1.201-3.152,0-4.355l7.895-7.895c1.203-1.201,3.153-1.201,4.355,0L48.172,29.302z"/>
				<path fill="#C1BC8B" d="M43.727,24.856l4.445,4.445c1.203,1.203,1.203,3.154,0,4.355l-7.895,7.896
					c-1.201,1.201-3.152,1.201-4.354,0"/>
				
					<ellipse transform="matrix(0.7072 -0.707 0.707 0.7072 -10.0864 33.7081)" fill="#9E7343" cx="35.652" cy="29.031" rx="6.352" ry="1.025"/>
				
					<ellipse transform="matrix(0.7071 -0.7071 0.7071 0.7071 -13.539 42.0483)" fill="#C1BC8B" cx="43.987" cy="37.367" rx="6.352" ry="1.026"/>
			</g>
		</g>
		<path fill="#9E7343" d="M54.977,45.792c0,0.535-0.435,0.967-0.969,0.967l0,0c-0.535,0-0.969-0.432-0.969-0.967v-7.328
			c0.003-0.531,0.436-0.967,0.969-0.967l0,0c0.534,0,0.969,0.434,0.969,0.969V45.792z"/>
		<path fill="#9E7343" d="M49.276,43.132c0.535,0,0.969,0.434,0.969,0.969l0,0c0,0.533-0.434,0.965-0.968,0.967H41.95
			c-0.534,0-0.967-0.434-0.967-0.967l0,0c0-0.535,0.433-0.969,0.968-0.969H49.276z"/>
		<path fill="#9E7343" d="M56.455,41.329c0.16,0,0.29,0.129,0.29,0.289l0,0c0,0.158-0.13,0.289-0.29,0.289h-2.188
			c-0.16,0-0.289-0.129-0.289-0.289l0,0c0-0.16,0.129-0.289,0.289-0.289H56.455z"/>
	</g>
</g>
</svg>
