<?xml version="1.0" encoding="utf-8"?>
<!-- Generator: Adobe Illustrator 16.0.0, SVG Export Plug-In . SVG Version: 6.00 Build 0)  -->
<!DOCTYPE svg PUBLIC "-//W3C//DTD SVG 1.1//EN" "http://www.w3.org/Graphics/SVG/1.1/DTD/svg11.dtd">
<svg version="1.1" id="Layer_1" xmlns="http://www.w3.org/2000/svg" xmlns:xlink="http://www.w3.org/1999/xlink" x="0px" y="0px"
	 width="66px" height="66px" viewBox="0 0 66 66" enable-background="new 0 0 66 66" xml:space="preserve">
<g>
	<path fill="#492A13" d="M33,32.52c4.701,0,8.771-2.581,10.797,2.416c0.871-2.146,1.371-4.58,1.371-7.166
		c0-8.607-5.447-15.584-12.168-15.584c-6.719,0-12.166,6.977-12.166,15.584c0,2.586,0.5,5.02,1.371,7.166
		C24.23,29.939,28.3,32.52,33,32.52z"/>
	<path fill="#963877" d="M48,18.162c0,2.209-2.238,4-5,4H23c-2.762,0-5-1.791-5-4v-6c0-2.209,2.238-4,5-4h20c2.762,0,5,1.791,5,4
		V18.162z"/>
	<g>
		<g>
			<g>
				<polygon fill="#5CCC6E" points="58.119,45.635 39,39.731 39,38.162 27,38.162 27,39.732 7.881,45.635 8.85,62.164 8.85,62.164 
					9,62.162 57,62.162 57.265,62.162 57.265,62.162 				"/>
				<polygon fill="#46AA5B" points="58.119,45.635 39,39.731 39,38.162 27,38.162 27,39.732 7.881,45.635 16.741,62.162 
					16.741,62.162 9.087,62.162 57,62.162 57.265,62.162 57.265,62.162 				"/>
				<g>
					<g>
						<path fill="#5E3A1C" d="M46.083,20.519c0,4.418-6.408,8-13.084,8c-6.672,0-13.082-3.582-13.082-8s6.41-8,13.082-8
							C39.675,12.519,46.083,16.101,46.083,20.519z"/>
						<g>
							<g>
								<g>
									<g>
										<g>
											<g>
												<g>
													<rect x="27" y="26.162" fill="#F9BDA0" width="12" height="14"/>
													<polygon fill="#EAA78C" points="39,38.854 39,27.162 27.123,27.162 33.152,45.988 													"/>
												</g>
												<g>
													<path fill="#FCCCB9" d="M42.371,16.601c0,9.03-4.578,17.202-9.368,17.202s-9.37-8.172-9.37-17.202
														s4.58-10.536,9.37-10.536S42.371,7.571,42.371,16.601z"/>
													<path fill="#F9BDA0" d="M33.002,6.065c4.79,0,9.368,1.506,9.368,10.536s-4.578,17.202-9.368,17.202"/>
												</g>
												<path fill="#5E3A1C" d="M34.304,5.47c0,0-8.707,6.666,11.24,14.696c0,0,0.383-8.836-2.875-12.688
													c-3.26-3.85-8.305-3.375-8.305-3.375L34.304,5.47z"/>
												<path fill="#77502A" d="M36.409,4.212c0,0,9.035,9.008-15.944,16.625c0,0-1.473-9.497,2.373-13.566
													c3.845-4.069,10.74-3.393,10.74-3.393L36.409,4.212z"/>
												<path fill="#5E3A1C" d="M33.578,3.878l2.626,0.268c5.75,1.078,13.187,19.928-15.739,16.691"/>
												<line fill="#663D0C" x1="33.578" y1="3.878" x2="36.409" y2="4.212"/>
											</g>
										</g>
									</g>
								</g>
							</g>
						</g>
					</g>
				</g>
			</g>
		</g>
		<path fill="#EAA78C" d="M39,39.731v-1.569H27v1.57l-5.004,1.559c0.693,3.505,5.354,6.217,10.974,6.217s10.325-2.712,11.018-6.218
			L39,39.731z"/>
	</g>
	<g>
		<g>
			<path fill="#F49E14" d="M23,23.287c0,1.035-0.84,1.875-1.875,1.875h-0.25c-1.035,0-1.875-0.84-1.875-1.875v-1.25
				c0-1.035,0.84-1.875,1.875-1.875h0.25c1.035,0,1.875,0.84,1.875,1.875V23.287z"/>
			<path fill="#B76393" d="M25.165,25.019c0.242,1.259-0.58,2.478-1.842,2.719l0,0c-1.258,0.243-2.473-0.583-2.717-1.842L19.6,20.67
				c-0.241-1.26,0.582-2.475,1.839-2.717l0,0c1.261-0.243,2.476,0.58,2.719,1.84L25.165,25.019z"/>
			<path fill="#963877" d="M21.439,17.954L21.439,17.954c1.261-0.243,2.476,0.58,2.719,1.84l1.007,5.226
				c0.242,1.259-0.58,2.478-1.842,2.719l0,0c-1.258,0.243-2.473-0.583-2.717-1.842"/>
		</g>
		<g>
			<path fill="#F49E14" d="M47,22.037c0-1.035-0.84-1.875-1.875-1.875h-0.25c-1.035,0-1.875,0.84-1.875,1.875v1.25
				c0,1.035,0.84,1.875,1.875,1.875h0.25c1.035,0,1.875-0.84,1.875-1.875V22.037z"/>
			<path fill="#B76393" d="M40.836,25.019c-0.242,1.259,0.58,2.478,1.842,2.719l0,0c1.258,0.243,2.473-0.583,2.717-1.842
				l1.006-5.226c0.239-1.26-0.582-2.475-1.84-2.717l0,0c-1.26-0.243-2.475,0.58-2.72,1.84L40.836,25.019z"/>
			<path fill="#963877" d="M44.561,17.954L44.561,17.954c-1.26-0.243-2.475,0.58-2.72,1.84l-1.005,5.226
				c-0.242,1.259,0.58,2.478,1.842,2.719l0,0c1.258,0.243,2.473-0.583,2.717-1.842"/>
		</g>
	</g>
	<g>
		<g>
			<g>
				<g>
					<path fill="#5CCC6E" d="M30.488,54.802c0,2.933-2.098,5.31-4.685,5.31c-2.588,0-3.648-2.377-3.648-5.31s1.061-5.31,3.648-5.31
						C28.39,49.493,30.488,51.87,30.488,54.802z"/>
					<ellipse fill="#5CCC6E" cx="30.696" cy="54.802" rx="3.644" ry="4.129"/>
				</g>
				<g>
					<path fill="#5CCC6E" d="M30.488,56.069c0,2.934-2.098,5.311-4.685,5.311c-2.588,0-3.648-2.377-3.648-5.311
						c0-2.932,1.061-5.309,3.648-5.309C28.39,50.76,30.488,53.137,30.488,56.069z"/>
					<ellipse fill="#5CCC6E" cx="30.696" cy="56.069" rx="3.644" ry="4.131"/>
				</g>
			</g>
			<g>
				<g>
					<path fill="#02243E" d="M30.488,55.436c0,2.933-2.098,5.31-4.685,5.31c-2.588,0-3.648-2.377-3.648-5.31s1.061-5.31,3.648-5.31
						C28.39,50.126,30.488,52.503,30.488,55.436z"/>
					<ellipse fill="#02243E" cx="30.696" cy="55.436" rx="3.644" ry="4.129"/>
				</g>
				<path fill="#46AA5B" d="M25,56.729c0,0.239-0.193,0.433-0.432,0.433h-0.137c-0.238,0-0.432-0.193-0.432-0.433v-3.135
					c0-0.239,0.193-0.433,0.432-0.433h0.137c0.238,0,0.432,0.193,0.432,0.433V56.729z"/>
				<circle fill="#46AA5B" cx="29.443" cy="55.436" r="1.382"/>
			</g>
		</g>
		<path fill="#5CCC6E" d="M42.291,55.162c0,0.691,0.13,1-0.562,1h-8.21c-0.693,0-0.562-0.309-0.562-1l0,0c0-0.691-0.131-1,0.562-1
			h8.21C42.42,54.162,42.291,54.47,42.291,55.162L42.291,55.162z"/>
		<path fill="#683409" d="M42.291,55.662c0,0.692,0.13,1.5-0.562,1.5h-8.21c-0.693,0-0.562-0.808-0.562-1.5l0,0
			c0-0.691-0.131-1.5,0.562-1.5h8.21C42.42,54.162,42.291,54.97,42.291,55.662L42.291,55.662z"/>
		<path fill="#844414" d="M34.729,56.149c0,0.048-0.039,0.086-0.087,0.086l0,0c-0.048,0-0.086-0.038-0.086-0.086v-1.426
			c0-0.048,0.038-0.086,0.086-0.086l0,0c0.048,0,0.087,0.038,0.087,0.086V56.149z"/>
		<path fill="#844414" d="M36.27,56.149c0,0.048-0.038,0.086-0.086,0.086l0,0c-0.048,0-0.087-0.038-0.087-0.086v-1.426
			c0-0.048,0.039-0.086,0.087-0.086l0,0c0.048,0,0.086,0.038,0.086,0.086V56.149z"/>
		<path fill="#844414" d="M37.812,56.149c0,0.048-0.039,0.086-0.088,0.086l0,0c-0.047,0-0.084-0.038-0.084-0.086v-1.426
			c0-0.048,0.037-0.086,0.084-0.086l0,0c0.049,0,0.088,0.038,0.088,0.086V56.149z"/>
		<path fill="#844414" d="M39.353,56.149c0,0.048-0.038,0.086-0.087,0.086l0,0c-0.047,0-0.085-0.038-0.085-0.086v-1.426
			c0-0.048,0.038-0.086,0.085-0.086l0,0c0.049,0,0.087,0.038,0.087,0.086V56.149z"/>
		<path fill="#844414" d="M40.894,56.149c0,0.048-0.039,0.086-0.086,0.086l0,0c-0.048,0-0.086-0.038-0.086-0.086v-1.426
			c0-0.048,0.038-0.086,0.086-0.086l0,0c0.047,0,0.086,0.038,0.086,0.086V56.149z"/>
		<circle fill="#46AA5B" cx="35.406" cy="55.436" r="0.173"/>
		<circle fill="#46AA5B" cx="38.401" cy="55.436" r="0.172"/>
		<path fill="#02243E" d="M44,56.866c0,0.716-0.581,1.296-1.298,1.296h-0.404c-0.717,0-1.298-0.58-1.298-1.296v-2.408
			c0-0.716,0.581-1.296,1.298-1.296h0.404c0.717,0,1.298,0.58,1.298,1.296V56.866z"/>
		<g>
			<g>
				<circle fill="#5CCC6E" cx="42.075" cy="51.958" r="0.389"/>
				<circle fill="#5CCC6E" cx="42.075" cy="58.915" r="0.389"/>
			</g>
			<g>
				<circle fill="#5CCC6E" cx="43.284" cy="51.958" r="0.389"/>
				<circle fill="#5CCC6E" cx="43.284" cy="58.915" r="0.389"/>
			</g>
		</g>
	</g>
</g>
</svg>
