<?xml version="1.0" encoding="utf-8"?>
<!-- Generator: Adobe Illustrator 16.0.0, SVG Export Plug-In . SVG Version: 6.00 Build 0)  -->
<!DOCTYPE svg PUBLIC "-//W3C//DTD SVG 1.1//EN" "http://www.w3.org/Graphics/SVG/1.1/DTD/svg11.dtd">
<svg version="1.1" id="Layer_1" xmlns="http://www.w3.org/2000/svg" xmlns:xlink="http://www.w3.org/1999/xlink" x="0px" y="0px"
	 width="66px" height="66px" viewBox="0 0 66 66" enable-background="new 0 0 66 66" xml:space="preserve">
<g>
	<g>
		<g>
			<path fill="#02243E" d="M33.265,64.338c-0.276,0-0.5-0.224-0.5-0.5V6.811c0-0.276,0.224-0.5,0.5-0.5s0.5,0.224,0.5,0.5v57.027
				C33.765,64.115,33.541,64.338,33.265,64.338z"/>
		</g>
		<g>
			<g>
				<circle fill="#ED7C8A" cx="33.265" cy="4.237" r="2.575"/>
			</g>
			<g>
				<path fill="#DD586F" d="M33.265,1.662c1.422,0,2.575,1.154,2.575,2.576c0,1.42-1.153,2.574-2.575,2.574"/>
			</g>
			<g>
				
					<ellipse transform="matrix(0.8109 -0.5852 0.5852 0.8109 4.5378 19.3606)" fill="#F4A6B4" cx="32.223" cy="2.66" rx="0.948" ry="0.413"/>
			</g>
			<g>
				<path fill="#F4A6B4" d="M31.516,3.663c0,0.108-0.092,0.201-0.202,0.201c-0.108,0-0.198-0.093-0.198-0.201
					c0-0.111,0.09-0.2,0.198-0.2C31.424,3.463,31.516,3.552,31.516,3.663z"/>
			</g>
		</g>
		<g>
			<g>
				<g>
					<g>
						<g>
							<path fill="#02243E" d="M33.1,24.348c-0.18,0-0.354-0.097-0.442-0.266l-5.718-10.814c-0.129-0.244-0.035-0.547,0.209-0.676
								c0.246-0.13,0.547-0.036,0.676,0.208l5.717,10.814c0.129,0.244,0.036,0.547-0.208,0.676
								C33.258,24.33,33.178,24.348,33.1,24.348z"/>
						</g>
						<g>
							<g>
								<circle fill="#ED7C8A" cx="26.49" cy="11.345" r="1.911"/>
							</g>
							<g>
								<path fill="#DD586F" d="M25.596,9.655c0.935-0.493,2.09-0.138,2.584,0.797c0.494,0.932,0.137,2.089-0.798,2.582"/>
							</g>
							<g>
								
									<ellipse transform="matrix(0.4433 -0.8964 0.8964 0.4433 4.4957 28.5816)" fill="#F4A6B4" cx="25.259" cy="10.671" rx="0.703" ry="0.307"/>
							</g>
							<g>
								<circle fill="#F4A6B4" cx="25.011" cy="11.645" r="0.149"/>
							</g>
						</g>
					</g>
					<g>
						<g>
							<path fill="#02243E" d="M32.709,24.439c-0.101,0-0.202-0.03-0.291-0.094L13.76,10.964c-0.225-0.161-0.276-0.473-0.115-0.698
								c0.16-0.225,0.473-0.276,0.697-0.115l18.66,13.382c0.224,0.161,0.275,0.473,0.114,0.698
								C33.019,24.367,32.865,24.439,32.709,24.439z"/>
						</g>
						<g>
							<g>
								<circle fill="#ED7C8A" cx="12.008" cy="9.155" r="2.48"/>
							</g>
							<g>
								<path fill="#DD586F" d="M9.965,7.753c0.774-1.127,2.318-1.416,3.447-0.642c1.128,0.776,1.415,2.318,0.639,3.446"/>
							</g>
							<g>
								<path fill="#F4A6B4" d="M10.168,8.209c0.217-0.004,0.408,0.403,0.42,0.904c0.011,0.5-0.158,0.917-0.377,0.922
									c-0.219,0.004-0.408-0.4-0.42-0.901C9.778,8.627,9.949,8.215,10.168,8.209z"/>
							</g>
							<g>
								<path fill="#F4A6B4" d="M10.599,10.234c0.089,0.06,0.112,0.175,0.05,0.268c-0.057,0.087-0.181,0.108-0.266,0.05
									c-0.084-0.062-0.111-0.183-0.052-0.272C10.391,10.194,10.512,10.17,10.599,10.234z"/>
							</g>
						</g>
					</g>
					<g>
						<g>
							<path fill="#02243E" d="M19.507,32.271c-0.175,0-0.345-0.092-0.437-0.256c-0.135-0.241-0.049-0.545,0.191-0.681l13.844-7.749
								c0.242-0.134,0.545-0.048,0.681,0.192c0.135,0.241,0.049,0.545-0.192,0.681L19.75,32.207
								C19.674,32.25,19.59,32.271,19.507,32.271z"/>
						</g>
						<g>
							<g>
								<path fill="#ED7C8A" d="M16.133,30.818c1.197-0.668,2.705-0.243,3.373,0.953c0.671,1.195,0.245,2.703-0.949,3.374
									c-1.196,0.667-2.707,0.241-3.375-0.953C14.516,32.999,14.939,31.486,16.133,30.818z"/>
							</g>
							<g>
								<path fill="#DD586F" d="M15.182,34.192c-0.666-1.193-0.242-2.706,0.951-3.374c1.197-0.668,2.705-0.243,3.373,0.953"/>
							</g>
							<g>
								<path fill="#F4A6B4" d="M15.683,34.212c0.093-0.196,0.542-0.188,0.996,0.023c0.454,0.212,0.751,0.549,0.661,0.747
									c-0.095,0.198-0.542,0.188-0.994-0.022C15.885,34.747,15.59,34.411,15.683,34.212z"/>
							</g>
							<g>
								<circle fill="#F4A6B4" cx="17.782" cy="34.889" r="0.192"/>
							</g>
						</g>
					</g>
					<g>
						<g>
							<path fill="#02243E" d="M32.666,24.819c-0.016,0-0.032-0.001-0.049-0.002l-10.024-0.966c-0.274-0.026-0.477-0.271-0.45-0.545
								c0.027-0.275,0.279-0.478,0.546-0.45l10.024,0.966c0.275,0.026,0.477,0.271,0.45,0.545
								C33.139,24.626,32.92,24.819,32.666,24.819z"/>
						</g>
						<g>
							<g>
								<circle fill="#ED7C8A" cx="21.072" cy="23.203" r="1.573"/>
							</g>
							<g>
								<path fill="#DD586F" d="M19.506,23.053c0.084-0.865,0.852-1.5,1.717-1.416c0.865,0.082,1.499,0.852,1.418,1.716"/>
							</g>
							<g>
								<path fill="#F4A6B4" d="M19.759,23.245c0.12-0.071,0.349,0.095,0.513,0.372c0.158,0.277,0.19,0.557,0.071,0.628
									c-0.12,0.069-0.349-0.098-0.509-0.376C19.672,23.596,19.64,23.314,19.759,23.245z"/>
							</g>
							<g>
								<path fill="#F4A6B4" d="M20.62,24.235c0.067,0.006,0.117,0.065,0.112,0.131c-0.006,0.067-0.068,0.118-0.136,0.11
									c-0.065-0.006-0.115-0.065-0.11-0.132C20.492,24.276,20.555,24.228,20.62,24.235z"/>
							</g>
						</g>
					</g>
					<g>
						<g>
							<path fill="#02243E" d="M28.951,33.743c-0.07,0-0.141-0.015-0.208-0.045c-0.251-0.115-0.361-0.412-0.246-0.663l4.204-9.153
								c0.115-0.251,0.412-0.362,0.662-0.246c0.252,0.115,0.361,0.412,0.246,0.663l-4.203,9.153
								C29.322,33.635,29.141,33.743,28.951,33.743z"/>
						</g>
						<g>
							<g>
								<circle fill="#ED7C8A" cx="28.295" cy="34.675" r="1.573"/>
							</g>
							<g>
								<path fill="#DD586F" d="M27.64,36.105c-0.792-0.362-1.136-1.296-0.774-2.086c0.36-0.79,1.297-1.138,2.086-0.775"/>
							</g>
							<g>
								<path fill="#F4A6B4" d="M27.904,35.931c-0.029-0.138,0.205-0.301,0.52-0.363c0.312-0.058,0.588,0.004,0.616,0.139
									c0.027,0.135-0.206,0.298-0.522,0.357C28.206,36.127,27.931,36.065,27.904,35.931z"/>
							</g>
							<g>
								<circle fill="#F4A6B4" cx="29.232" cy="35.491" r="0.122"/>
							</g>
						</g>
					</g>
				</g>
			</g>
			<g>
				<g>
					<g>
						<g>
							<path fill="#02243E" d="M33.43,24.348c-0.078,0-0.158-0.019-0.232-0.058c-0.244-0.129-0.338-0.432-0.209-0.676L38.706,12.8
								c0.128-0.244,0.431-0.338,0.676-0.208c0.244,0.129,0.337,0.432,0.208,0.676l-5.717,10.814
								C33.783,24.251,33.609,24.348,33.43,24.348z"/>
						</g>
						<g>
							<g>
								<circle fill="#ED7C8A" cx="40.04" cy="11.345" r="1.911"/>
							</g>
							<g>
								<path fill="#DD586F" d="M40.934,9.655c-0.934-0.493-2.09-0.138-2.583,0.797c-0.495,0.932-0.137,2.089,0.798,2.582"/>
							</g>
							<g>
								
									<ellipse transform="matrix(-0.4439 -0.8961 0.8961 -0.4439 50.0277 52.3906)" fill="#F4A6B4" cx="41.271" cy="10.671" rx="0.703" ry="0.307"/>
							</g>
							<g>
								<circle fill="#F4A6B4" cx="41.519" cy="11.645" r="0.149"/>
							</g>
						</g>
					</g>
					<g>
						<g>
							<path fill="#02243E" d="M33.82,24.439c-0.156,0-0.309-0.072-0.406-0.208c-0.162-0.225-0.109-0.537,0.114-0.698l18.659-13.382
								c0.225-0.162,0.537-0.109,0.697,0.115c0.162,0.225,0.109,0.537-0.114,0.698L34.111,24.346
								C34.023,24.409,33.921,24.439,33.82,24.439z"/>
						</g>
						<g>
							<g>
								<circle fill="#ED7C8A" cx="54.522" cy="9.155" r="2.48"/>
							</g>
							<g>
								<path fill="#DD586F" d="M56.564,7.753c-0.773-1.127-2.317-1.416-3.446-0.642c-1.129,0.776-1.415,2.318-0.64,3.446"/>
							</g>
							<g>
								<path fill="#F4A6B4" d="M56.362,8.209c-0.218-0.004-0.408,0.403-0.42,0.904c-0.011,0.5,0.158,0.917,0.376,0.922
									c0.219,0.004,0.408-0.4,0.42-0.901C56.752,8.627,56.58,8.215,56.362,8.209z"/>
							</g>
							<g>
								<path fill="#F4A6B4" d="M55.932,10.234c-0.09,0.06-0.112,0.175-0.051,0.268c0.058,0.087,0.182,0.108,0.266,0.05
									c0.085-0.062,0.111-0.183,0.053-0.272C56.139,10.194,56.018,10.17,55.932,10.234z"/>
							</g>
						</g>
					</g>
					<g>
						<g>
							<path fill="#02243E" d="M47.023,32.271c-0.083,0-0.167-0.021-0.244-0.063l-13.844-7.749c-0.24-0.135-0.326-0.44-0.191-0.681
								c0.135-0.241,0.439-0.327,0.68-0.192l13.844,7.749c0.241,0.135,0.327,0.44,0.192,0.681
								C47.368,32.178,47.198,32.271,47.023,32.271z"/>
						</g>
						<g>
							<g>
								<path fill="#ED7C8A" d="M50.396,30.818c-1.196-0.668-2.705-0.243-3.373,0.953c-0.67,1.195-0.244,2.703,0.949,3.374
									c1.197,0.667,2.707,0.241,3.375-0.953C52.015,32.999,51.591,31.486,50.396,30.818z"/>
							</g>
							<g>
								<path fill="#DD586F" d="M51.348,34.192c0.667-1.193,0.243-2.706-0.951-3.374c-1.196-0.668-2.705-0.243-3.373,0.953"/>
							</g>
							<g>
								<path fill="#F4A6B4" d="M50.848,34.212c-0.093-0.196-0.542-0.188-0.996,0.023c-0.455,0.212-0.752,0.549-0.661,0.747
									c0.095,0.198,0.542,0.188,0.994-0.022C50.645,34.747,50.939,34.411,50.848,34.212z"/>
							</g>
							<g>
								<circle fill="#F4A6B4" cx="48.747" cy="34.889" r="0.192"/>
							</g>
						</g>
					</g>
					<g>
						<g>
							<path fill="#02243E" d="M33.863,24.819c-0.255,0-0.473-0.193-0.497-0.452c-0.026-0.275,0.175-0.519,0.45-0.545l10.025-0.966
								c0.27-0.025,0.518,0.174,0.545,0.45c0.027,0.275-0.175,0.519-0.449,0.545l-10.025,0.966
								C33.896,24.818,33.879,24.819,33.863,24.819z"/>
						</g>
						<g>
							<g>
								<circle fill="#ED7C8A" cx="45.457" cy="23.203" r="1.573"/>
							</g>
							<g>
								<path fill="#DD586F" d="M47.023,23.053c-0.083-0.865-0.852-1.5-1.717-1.416c-0.865,0.082-1.498,0.852-1.418,1.716"/>
							</g>
							<g>
								<path fill="#F4A6B4" d="M46.771,23.245c-0.12-0.071-0.35,0.095-0.514,0.372c-0.157,0.277-0.189,0.557-0.07,0.628
									c0.119,0.069,0.348-0.098,0.508-0.376C46.857,23.596,46.891,23.314,46.771,23.245z"/>
							</g>
							<g>
								<path fill="#F4A6B4" d="M45.91,24.235c-0.068,0.006-0.117,0.065-0.112,0.131c0.006,0.067,0.067,0.118,0.136,0.11
									c0.064-0.006,0.115-0.065,0.109-0.132C46.037,24.276,45.975,24.228,45.91,24.235z"/>
							</g>
						</g>
					</g>
					<g>
						<g>
							<path fill="#02243E" d="M37.578,33.743c-0.189,0-0.37-0.108-0.455-0.292l-4.203-9.153c-0.115-0.251-0.005-0.548,0.246-0.663
								c0.25-0.115,0.548-0.005,0.663,0.246l4.204,9.153c0.115,0.251,0.004,0.548-0.246,0.663
								C37.719,33.729,37.648,33.743,37.578,33.743z"/>
						</g>
						<g>
							<g>
								<path fill="#ED7C8A" d="M39.664,34.019c-0.359-0.79-1.297-1.138-2.086-0.775c-0.79,0.364-1.137,1.297-0.772,2.088
									c0.362,0.789,1.294,1.133,2.085,0.773C39.682,35.743,40.026,34.809,39.664,34.019z"/>
							</g>
							<g>
								<path fill="#DD586F" d="M38.891,36.105c0.791-0.362,1.136-1.296,0.773-2.086c-0.359-0.79-1.297-1.138-2.086-0.775"/>
							</g>
							<g>
								<path fill="#F4A6B4" d="M38.626,35.931c0.028-0.138-0.206-0.301-0.521-0.363c-0.312-0.058-0.587,0.004-0.616,0.139
									c-0.026,0.135,0.206,0.298,0.522,0.357C38.324,36.127,38.6,36.065,38.626,35.931z"/>
							</g>
							<g>
								<circle fill="#F4A6B4" cx="37.298" cy="35.491" r="0.121"/>
							</g>
						</g>
					</g>
				</g>
			</g>
		</g>
	</g>
	<g>
		<circle fill="#F4A6B4" cx="14.178" cy="18.803" r="0.74"/>
	</g>
	<g>
		<circle fill="#F4A6B4" cx="16.767" cy="19.049" r="0.247"/>
	</g>
	<g>
		<ellipse fill="#F4A6B4" cx="18.124" cy="6.721" rx="0.247" ry="0"/>
	</g>
	<g>
		<circle fill="#F4A6B4" cx="19.849" cy="8.693" r="0.617"/>
	</g>
	<g>
		<circle fill="#F4A6B4" cx="23.918" cy="6.228" r="1.109"/>
	</g>
	<g>
		<circle fill="#F4A6B4" cx="31.377" cy="9.001" r="0.186"/>
	</g>
	<g>
		<circle fill="#F4A6B4" cx="46.048" cy="7.029" r="1.911"/>
	</g>
	<g>
		<circle fill="#F4A6B4" cx="46.604" cy="11.898" r="0.493"/>
	</g>
	<g>
		<circle fill="#F4A6B4" cx="54.432" cy="19.111" r="1.418"/>
	</g>
	<g>
		<circle fill="#F4A6B4" cx="48.021" cy="19.357" r="0.185"/>
	</g>
	<g>
		<circle fill="#F4A6B4" cx="43.891" cy="20.899" r="0.247"/>
	</g>
	<g>
		<circle fill="#F4A6B4" cx="9.308" cy="21.33" r="0.308"/>
	</g>
	<g>
		<circle fill="#F4A6B4" cx="11.589" cy="25.707" r="1.11"/>
	</g>
	<g>
		<circle fill="#F4A6B4" cx="16.891" cy="23.241" r="0.123"/>
	</g>
	<g>
		<ellipse fill="#F4A6B4" cx="48.453" cy="28.173" rx="0.247" ry="0"/>
	</g>
	<g>
		<circle fill="#F4A6B4" cx="52.706" cy="24.289" r="0.925"/>
	</g>
	<g>
		<circle fill="#F4A6B4" cx="49.5" cy="27.988" r="0.801"/>
	</g>
	<g>
		<circle fill="#F4A6B4" cx="42.72" cy="25.892" r="0.185"/>
	</g>
	<g>
		<circle fill="#F4A6B4" cx="20.528" cy="27.495" r="0.924"/>
	</g>
	<g>
		<ellipse fill="#F4A6B4" cx="51.288" cy="17.816" rx="0.37" ry="0"/>
	</g>
	<g>
		<circle fill="#F4A6B4" cx="12.945" cy="14.364" r="0.617"/>
	</g>
	<g>
		<circle fill="#F4A6B4" cx="23.24" cy="39.208" r="1.048"/>
	</g>
	<g>
		<circle fill="#F4A6B4" cx="24.288" cy="33.474" r="0.616"/>
	</g>
	<g>
		<circle fill="#F4A6B4" cx="38.651" cy="39.824" r="0.431"/>
	</g>
	<g>
		<circle fill="#F4A6B4" cx="43.09" cy="33.906" r="0.432"/>
	</g>
	<g>
		<circle fill="#F4A6B4" cx="45.186" cy="37.604" r="0.925"/>
	</g>
	<g>
		<circle fill="#F4A6B4" cx="28.973" cy="40.009" r="0.37"/>
	</g>
	<g>
		<circle fill="#F4A6B4" cx="51.227" cy="16.769" r="0.432"/>
	</g>
	<g>
		<circle fill="#F4A6B4" cx="25.336" cy="15.289" r="0.678"/>
	</g>
	<g>
		<circle fill="#F4A6B4" cx="38.96" cy="6.228" r="0.493"/>
	</g>
	<g>
		<circle fill="#F4A6B4" cx="18.185" cy="5.672" r="0.185"/>
	</g>
</g>
</svg>
