<?xml version="1.0" encoding="utf-8"?>
<!-- Generator: Adobe Illustrator 16.0.0, SVG Export Plug-In . SVG Version: 6.00 Build 0)  -->
<!DOCTYPE svg PUBLIC "-//W3C//DTD SVG 1.1//EN" "http://www.w3.org/Graphics/SVG/1.1/DTD/svg11.dtd">
<svg version="1.1" id="Layer_1" xmlns="http://www.w3.org/2000/svg" xmlns:xlink="http://www.w3.org/1999/xlink" x="0px" y="0px"
	 width="66px" height="66px" viewBox="0 0 66 66" enable-background="new 0 0 66 66" xml:space="preserve">
<g>
	<path fill="#0097F4" d="M58.918,16H47.146l-1.188-2.415c0-2.676-2.168-4.585-4.844-4.585H24.887c-2.676,0-4.844,1.909-4.844,4.585
		L18.854,16h-4.431c0,0-0.424,0.092-0.424,0.062v0.075c0-1.784-1.217-3.191-3-3.191s-3,1.464-3,3.248v-0.142
		C8,16.083,7.982,16,7.982,16h-0.9C4.275,16,2,18.578,2,21.386v30.746C2,54.938,4.275,57,7.082,57h51.836
		C61.725,57,64,54.938,64,52.132V21.386C64,18.578,61.725,16,58.918,16z"/>
	<path fill="#007FF2" d="M42.622,57h16.296C61.725,57,64,54.938,64,52.132V21.386C64,18.578,61.725,16,58.918,16H47.146l-0.22-2.415
		c0-2.676-3.137-4.585-5.812-4.585H24.887c-2.676,0-5.812,1.909-5.812,4.585L18.854,16h-4.431c0,0-0.424,0.092-0.424,0.062v0.075
		c0-1.784-1.217-3.191-3-3.191s-3,1.464-3,3.248v-0.142C8,16.083,7.982,16,7.982,16h-0.9c-1.478,0-2.796,0.685-3.724,1.69L42.622,57
		z"/>
	<g>
		<path fill="#036DE0" d="M43.782,42h-6.461c-0.764,0-1.383,0.235-1.383,1s0.619,1,1.383,1h2.888c-2.274,3-5.264,3.582-8.446,3.582
			c-3.235,0-6.278-1.189-8.565-3.477c-0.541-0.541-1.417-0.506-1.958,0.035c-0.541,0.541-0.541,1.436,0,1.975
			c2.812,2.812,6.548,4.368,10.524,4.368c3.975,0,7.512-1.544,10.322-4.354C42.136,46.08,42,46.02,42,45.963v3.396
			c0,0.764,0.735,1.385,1.5,1.385c0.764,0,1.5-0.621,1.5-1.385v-6.46C45,42.135,44.546,42,43.782,42z M42.355,44.284h0.043v0.062
			C42.383,44.326,42.372,44.304,42.355,44.284z"/>
		<path fill="#036DE0" d="M22.218,35h6.46c0.765,0,1.384-0.736,1.384-1.5S29.442,32,28.678,32h-2.887
			c2.274-2,5.264-3.416,8.446-3.416c3.235,0,6.278,1.272,8.565,3.561c0.271,0.271,0.625,0.41,0.979,0.41
			c0.354,0,0.708-0.131,0.979-0.401c0.541-0.541,0.541-1.415,0-1.955c-2.812-2.812-6.548-4.358-10.523-4.358
			c-3.975,0-7.513,1.547-10.322,4.359C23.864,30.248,24,30.315,24,30.37v-3.396c0-0.765-0.735-1.385-1.5-1.385s-1.5,0.62-1.5,1.385
			v6.46C21,34.197,21.453,35,22.218,35z M23.645,32.048h-0.043v-0.062C23.617,32.007,23.628,32.029,23.645,32.048z"/>
	</g>
	<g>
		<path fill="#B0E9FF" d="M43.782,40h-6.461c-0.764,0-1.383,0.736-1.383,1.5s0.619,1.5,1.383,1.5h2.888
			c-2.274,2-5.264,3.436-8.446,3.436c-3.235,0-6.278-1.261-8.565-3.549c-0.541-0.541-1.417-0.542-1.958-0.001
			c-0.541,0.542-0.541,1.417,0,1.956c2.812,2.812,6.548,4.359,10.524,4.359c3.975,0,7.512-1.548,10.322-4.359
			C42.136,44.792,42,44.729,42,44.671v3.396c0,0.765,0.735,1.386,1.5,1.386c0.764,0,1.5-0.621,1.5-1.386v-6.459
			C45,40.844,44.546,40,43.782,40z M42.355,42.993h0.043v0.062C42.383,43.035,42.372,43.012,42.355,42.993z"/>
		<path fill="#B0E9FF" d="M22.218,34h6.46c0.765,0,1.384-0.736,1.384-1.5S29.442,31,28.678,31h-2.887
			c2.274-2,5.264-3.561,8.446-3.561c3.235,0,6.278,1.198,8.565,3.486c0.271,0.271,0.625,0.374,0.979,0.374
			c0.354,0,0.708-0.149,0.979-0.419c0.541-0.543,0.541-1.426,0-1.965c-2.812-2.812-6.548-4.363-10.523-4.363
			c-3.975,0-7.513,1.546-10.322,4.357C23.864,28.96,24,29.023,24,29.079v-3.396c0-0.765-0.735-1.386-1.5-1.386S21,24.918,21,25.683
			v6.459C21,32.906,21.453,34,22.218,34z M23.645,30.757h-0.043v-0.062C23.617,30.715,23.628,30.738,23.645,30.757z"/>
	</g>
</g>
</svg>
