<?xml version="1.0" encoding="utf-8"?>
<!-- Generator: Adobe Illustrator 16.0.0, SVG Export Plug-In . SVG Version: 6.00 Build 0)  -->
<!DOCTYPE svg PUBLIC "-//W3C//DTD SVG 1.1//EN" "http://www.w3.org/Graphics/SVG/1.1/DTD/svg11.dtd">
<svg version="1.1" id="Layer_1" xmlns="http://www.w3.org/2000/svg" xmlns:xlink="http://www.w3.org/1999/xlink" x="0px" y="0px"
	 width="66px" height="66px" viewBox="0 0 66 66" enable-background="new 0 0 66 66" xml:space="preserve">
<g>
	<g>
		<path fill="#7A8899" d="M9.111,64.156c-2.291,0-4.107-0.652-5.395-1.941c-3.021-3.021-2.539-8.752,1.393-16.573
			c3.641-7.235,9.857-15.435,17.512-23.087C35.09,10.085,48.861,1.707,56.889,1.707c2.291,0,4.107,0.653,5.395,1.941
			c3.021,3.021,2.541,8.752-1.395,16.572c-3.639,7.237-9.857,15.438-17.51,23.09C30.91,55.779,17.139,64.156,9.111,64.156z
			 M56.889,4.637c-7.188,0-20.428,8.22-32.197,19.988C17.254,32.062,11.23,39.994,7.727,46.959
			c-3.168,6.301-3.893,11.23-1.939,13.186c0.719,0.719,1.838,1.082,3.324,1.082c7.188,0,20.428-8.219,32.195-19.987
			c7.438-7.438,13.463-15.37,16.967-22.334c3.168-6.302,3.895-11.23,1.939-13.186C59.494,5.001,58.375,4.637,56.889,4.637z"/>
	</g>
	<path fill="#8E97A0" d="M47.842,18.09c2.799,2.801,5.236,5.793,7.307,8.904c6.873-10.098,9.568-18.842,6.1-22.311
		c-3.469-3.468-12.213-0.773-22.311,6.1C42.047,12.854,45.041,15.291,47.842,18.09z"/>
	<path fill="#747F87" d="M47.842,18.09c2.799,2.801,5.236,5.793,7.307,8.904c6.873-10.098,9.568-18.842,6.1-22.311"/>
	<g>
		<path fill="#7A8899" d="M9.088,64.293c-2,0-4-0.761-5.523-2.283c-0.572-0.572-0.572-1.5,0-2.072s1.5-0.572,2.072,0
			c1.902,1.904,5.002,1.904,6.904,0c1.904-1.903,1.904-5.002,0-6.905c-0.572-0.572-0.572-1.499,0-2.071s1.5-0.572,2.072,0
			c3.045,3.046,3.045,8.002,0,11.049C13.09,63.532,11.088,64.293,9.088,64.293z"/>
	</g>
	<circle fill="#FFFFFF" cx="54.023" cy="11.909" r="2.441"/>
</g>
</svg>
