<?xml version="1.0" encoding="utf-8"?>
<!-- Generator: Adobe Illustrator 16.0.0, SVG Export Plug-In . SVG Version: 6.00 Build 0)  -->
<!DOCTYPE svg PUBLIC "-//W3C//DTD SVG 1.1//EN" "http://www.w3.org/Graphics/SVG/1.1/DTD/svg11.dtd">
<svg version="1.1" id="Layer_1" xmlns="http://www.w3.org/2000/svg" xmlns:xlink="http://www.w3.org/1999/xlink" x="0px" y="0px"
	 width="66px" height="66px" viewBox="0 0 66 66" enable-background="new 0 0 66 66" xml:space="preserve">
<g>
	<path fill="#36C9B4" d="M63.25,53.25c0,5.523-4.477,10-10,10h-40.5c-5.523,0-10-4.477-10-10v-40.5c0-5.523,4.477-10,10-10h40.5
		c5.523,0,10,4.477,10,10V53.25z"/>
	<path fill="#22B2B2" d="M12.75,2.75h40.5c5.523,0,10,4.477,10,10v40.5c0,5.523-4.477,10-10,10"/>
	<path fill="#149CA3" d="M53.25,2.75c5.523,0,10,4.477,10,10v40.5c0,5.523-4.477,10-10,10"/>
	<path fill="#22B2B2" d="M57.166,49.19c0,5.523-4.477,10-10,10H18.834c-5.523,0-10-4.477-10-10v-13c0-5.523,4.477-5,10-5h28.332
		c5.523,0,10-0.523,10,5V49.19z"/>
	<path fill="#149CA3" d="M52.947,26.69c-0.901-10.229-9.485-21-19.947-21c-10.463,0-19.047,10.771-19.947,21H52.947z"/>
	<path fill="#E6FFFE" d="M52.947,26.69C52.046,16.462,43.462,8.44,33,8.44c-10.463,0-19.047,8.021-19.947,18.25H52.947z"/>
	<path fill="#B2D6D4" d="M13.053,26.69h39.895c-0.071-0.809-0.207-1.597-0.371-2.375H13.424
		C13.26,25.094,13.124,25.882,13.053,26.69z"/>
	<circle fill="#EFA28E" cx="33" cy="23.94" r="2.125"/>
	<path fill="#D6725F" d="M33,21.815c1.174,0,2.125,0.951,2.125,2.125S34.174,26.065,33,26.065"/>
	<g>
		<circle fill="#36C9B4" cx="13" cy="35.753" r="0.938"/>
		<circle fill="#36C9B4" cx="18" cy="35.753" r="0.938"/>
		<circle fill="#36C9B4" cx="23" cy="35.753" r="0.938"/>
		<circle fill="#36C9B4" cx="28" cy="35.753" r="0.938"/>
		<circle fill="#36C9B4" cx="33" cy="35.753" r="0.938"/>
		<circle fill="#36C9B4" cx="38" cy="35.753" r="0.938"/>
		<circle fill="#36C9B4" cx="43" cy="35.753" r="0.938"/>
		<circle fill="#36C9B4" cx="48" cy="35.753" r="0.938"/>
		<circle fill="#36C9B4" cx="53" cy="35.753" r="0.938"/>
	</g>
	<g>
		<circle fill="#36C9B4" cx="13" cy="40.44" r="0.938"/>
		<circle fill="#36C9B4" cx="18" cy="40.44" r="0.938"/>
		<circle fill="#36C9B4" cx="23" cy="40.44" r="0.938"/>
		<circle fill="#36C9B4" cx="28" cy="40.44" r="0.938"/>
		<circle fill="#36C9B4" cx="33" cy="40.44" r="0.938"/>
		<circle fill="#36C9B4" cx="38" cy="40.44" r="0.938"/>
		<circle fill="#36C9B4" cx="43" cy="40.44" r="0.938"/>
		<circle fill="#36C9B4" cx="48" cy="40.44" r="0.938"/>
		<circle fill="#36C9B4" cx="53" cy="40.44" r="0.938"/>
	</g>
	<g>
		<circle fill="#36C9B4" cx="13" cy="45.128" r="0.938"/>
		<circle fill="#36C9B4" cx="18" cy="45.128" r="0.938"/>
		<circle fill="#36C9B4" cx="23" cy="45.128" r="0.938"/>
		<circle fill="#36C9B4" cx="28" cy="45.128" r="0.938"/>
		<circle fill="#36C9B4" cx="33" cy="45.128" r="0.938"/>
		<circle fill="#36C9B4" cx="38" cy="45.128" r="0.938"/>
		<circle fill="#36C9B4" cx="43" cy="45.128" r="0.938"/>
		<circle fill="#36C9B4" cx="48" cy="45.128" r="0.938"/>
		<circle fill="#36C9B4" cx="53" cy="45.128" r="0.938"/>
	</g>
	<g>
		<circle fill="#36C9B4" cx="13" cy="49.815" r="0.938"/>
		<circle fill="#36C9B4" cx="18" cy="49.815" r="0.938"/>
		<circle fill="#36C9B4" cx="23" cy="49.815" r="0.938"/>
		<circle fill="#36C9B4" cx="28" cy="49.815" r="0.938"/>
		<circle fill="#36C9B4" cx="33" cy="49.815" r="0.938"/>
		<circle fill="#36C9B4" cx="38" cy="49.815" r="0.938"/>
		<circle fill="#36C9B4" cx="43" cy="49.815" r="0.938"/>
		<circle fill="#36C9B4" cx="48" cy="49.815" r="0.938"/>
		<circle fill="#36C9B4" cx="53" cy="49.815" r="0.938"/>
	</g>
	<g>
		<circle fill="#36C9B4" cx="13" cy="54.503" r="0.938"/>
		<circle fill="#36C9B4" cx="18" cy="54.503" r="0.938"/>
		<circle fill="#36C9B4" cx="23" cy="54.503" r="0.938"/>
		<circle fill="#36C9B4" cx="28" cy="54.503" r="0.938"/>
		<circle fill="#36C9B4" cx="33" cy="54.503" r="0.938"/>
		<circle fill="#36C9B4" cx="38" cy="54.503" r="0.938"/>
		<circle fill="#36C9B4" cx="43" cy="54.503" r="0.938"/>
		<circle fill="#36C9B4" cx="48" cy="54.503" r="0.938"/>
		<circle fill="#36C9B4" cx="53" cy="54.503" r="0.938"/>
	</g>
	<path fill="#4EDDC5" d="M6.633,28.691c0,0.552-0.447,1-1,1l0,0c-0.553,0-1-0.448-1-1V11.857c0-0.552,0.447-1,1-1l0,0
		c0.553,0,1,0.448,1,1V28.691z"/>
	<path fill="#4EDDC5" d="M6.633,52.524c0,0.552-0.447,1-1,1l0,0c-0.553,0-1-0.448-1-1V35.69c0-0.552,0.447-1,1-1l0,0
		c0.553,0,1,0.448,1,1V52.524z"/>
	<circle fill="#4EDDC5" cx="5.236" cy="32.128" r="1.188"/>
	<circle fill="#4EDDC5" cx="6.174" cy="9.065" r="0.25"/>
	<circle fill="#4EDDC5" cx="8.799" cy="7.315" r="1.25"/>
	<circle fill="#4EDDC5" cx="10.674" cy="5.065" r="0.75"/>
	<path fill="#C4089C" d="M36.875,22.308c-0.26,0.26-0.682,0.26-0.943,0l0,0c-0.26-0.26-0.26-0.683,0-0.943l6.541-6.54
		c0.26-0.261,0.683-0.261,0.943,0l0,0c0.26,0.261,0.26,0.683,0,0.943L36.875,22.308z"/>
</g>
</svg>
