<?xml version="1.0" encoding="utf-8"?>
<!-- Generator: Adobe Illustrator 16.0.0, SVG Export Plug-In . SVG Version: 6.00 Build 0)  -->
<!DOCTYPE svg PUBLIC "-//W3C//DTD SVG 1.1//EN" "http://www.w3.org/Graphics/SVG/1.1/DTD/svg11.dtd">
<svg version="1.1" id="Layer_1" xmlns="http://www.w3.org/2000/svg" xmlns:xlink="http://www.w3.org/1999/xlink" x="0px" y="0px"
	 width="66px" height="66px" viewBox="0 0 66 66" enable-background="new 0 0 66 66" xml:space="preserve">
<g>
	<path fill="#0E1316" d="M29.482,53.416c0,0.592-0.48,1.072-1.072,1.072l0,0c-0.592,0-1.072-0.48-1.072-1.072V36.719
		c0-0.594,0.48-1.072,1.072-1.072l0,0c0.592,0,1.072,0.479,1.072,1.072V53.416z"/>
	<g>
		<path fill="#18456D" d="M20.562,54.441c-0.264,0.578-0.912,0.848-1.451,0.602l0,0c-0.539-0.244-0.766-0.912-0.5-1.49l7.422-16.301
			c0.262-0.578,0.912-0.848,1.451-0.602l0,0c0.539,0.244,0.764,0.912,0.5,1.49L20.562,54.441z"/>
		<path fill="#18456D" d="M36.26,54.441c0.264,0.578,0.912,0.848,1.451,0.602l0,0c0.539-0.244,0.766-0.912,0.5-1.49l-7.422-16.301
			c-0.262-0.578-0.912-0.848-1.451-0.602l0,0c-0.539,0.244-0.764,0.912-0.5,1.49L36.26,54.441z"/>
	</g>
	<path fill="#5B8CA5" d="M29.297,34.781c0,0.488-0.396,0.885-0.887,0.885l0,0c-0.488,0-0.885-0.396-0.885-0.885V27.11
		c0-0.488,0.396-0.885,0.885-0.885l0,0c0.49,0,0.887,0.396,0.887,0.885V34.781z"/>
	<path fill="#427184" d="M29.297,30.192V27.11c0-0.488-0.396-0.885-0.887-0.885c-0.488,0-0.885,0.396-0.885,0.885v3.369
		L29.297,30.192z"/>
	<g>
		
			<ellipse transform="matrix(0.9871 -0.1599 0.1599 0.9871 -1.7334 10.3655)" fill="#8EC8EF" cx="63.555" cy="15.956" rx="1.258" ry="4.622"/>
		<path fill="#65B4E0" d="M64.797,15.754c0.408,2.52,0.182,4.652-0.504,4.764s-1.574-1.842-1.98-4.361"/>
		<path fill="#5B8CA5" d="M64.744,20.106c0.117,0.73-0.377,1.416-1.105,1.535l0,0c-0.729,0.117-1.416-0.379-1.535-1.107
			l-1.369-8.465c-0.117-0.73,0.379-1.416,1.105-1.535l0,0c0.73-0.117,1.418,0.379,1.535,1.107L64.744,20.106z"/>
		<path fill="#80A5C1" d="M61.84,10.534c-0.135,0.023-0.26,0.07-0.375,0.129l0.691,4.273c0.117,0.73,0.805,1.227,1.533,1.107
			c0.135-0.021,0.26-0.068,0.377-0.127l-0.691-4.275C63.258,10.913,62.57,10.417,61.84,10.534z"/>
		<g>
			<g>
				<path fill="#5B8CA5" d="M4.824,26.95c0.088,0.547-0.279,1.061-0.828,1.148l-1.361,0.221c-0.549,0.09-1.062-0.283-1.15-0.83
					l-0.471-2.906c-0.088-0.547,0.281-1.062,0.83-1.15l1.361-0.221c0.549-0.09,1.061,0.283,1.148,0.83L4.824,26.95z"/>
				<path fill="#80A5C1" d="M3.205,23.211l-1.361,0.221c-0.549,0.088-0.918,0.604-0.83,1.15l0.119,0.734
					c0.09,0.547,0.602,0.918,1.15,0.83l1.361-0.221c0.547-0.088,0.916-0.604,0.828-1.15l-0.119-0.734
					C4.266,23.495,3.754,23.122,3.205,23.211z"/>
				<path fill="#0E1316" d="M18.742,25.329c0.072,0.457-0.236,0.889-0.695,0.963L3.426,28.657c-0.459,0.074-0.887-0.238-0.963-0.693
					l-0.668-4.139c-0.076-0.457,0.234-0.889,0.693-0.963l14.621-2.365c0.459-0.074,0.889,0.236,0.963,0.693L18.742,25.329z"/>
				<path fill="#323A3F" d="M17.109,20.497L2.488,22.862c-0.459,0.074-0.77,0.506-0.693,0.963l0.334,2.068
					c0.074,0.457,0.504,0.77,0.963,0.693l14.619-2.365c0.459-0.074,0.77-0.504,0.695-0.961l-0.334-2.07
					C17.998,20.733,17.568,20.422,17.109,20.497z"/>
			</g>
			<g>
				<path fill="#77A09D" d="M15.221,25.942c0.129,0.795-0.41,1.543-1.205,1.672l-1.979,0.32c-0.793,0.129-1.543-0.412-1.672-1.205
					l-0.684-4.225c-0.127-0.795,0.412-1.545,1.205-1.672l1.979-0.32c0.797-0.129,1.543,0.412,1.672,1.207L15.221,25.942z"/>
				<path fill="#92B7B5" d="M12.865,20.512l-1.979,0.32c-0.793,0.127-1.332,0.877-1.205,1.672l0.174,1.068
					c0.129,0.793,0.877,1.334,1.67,1.205l1.979-0.32c0.797-0.129,1.336-0.877,1.205-1.67l-0.172-1.068
					C14.408,20.924,13.662,20.383,12.865,20.512z"/>
				<path fill="#18456D" d="M35.438,23.59c0.107,0.662-0.344,1.289-1.008,1.396l-21.242,3.436c-0.666,0.107-1.291-0.344-1.398-1.008
					l-0.973-6.012c-0.107-0.664,0.344-1.289,1.008-1.398l21.244-3.436c0.664-0.107,1.289,0.344,1.396,1.008L35.438,23.59z"/>
				<path fill="#1B5A89" d="M33.068,16.569l-21.244,3.436c-0.664,0.109-1.115,0.734-1.008,1.398l0.486,3.006
					c0.107,0.664,0.732,1.117,1.396,1.01l21.244-3.438c0.664-0.107,1.115-0.734,1.008-1.398l-0.486-3.006
					C34.357,16.913,33.732,16.461,33.068,16.569z"/>
			</g>
			<path opacity="0.4" fill="#91BDE5" d="M38.611,17.44c0.061,0.387-0.201,0.75-0.588,0.812l-24.812,4.016
				c-0.385,0.061-0.75-0.201-0.811-0.586l0,0c-0.064-0.387,0.197-0.75,0.584-0.812l24.814-4.016
				C38.186,16.793,38.549,17.055,38.611,17.44L38.611,17.44z"/>
			<g>
				<path fill="#77A09D" d="M32.525,24.336c0.199,1.23-0.639,2.391-1.869,2.59l-3.064,0.496c-1.232,0.199-2.393-0.639-2.592-1.869
					l-1.059-6.549c-0.199-1.232,0.637-2.393,1.869-2.592l3.064-0.496c1.232-0.199,2.391,0.639,2.59,1.869L32.525,24.336z"/>
				<path fill="#92B7B5" d="M28.875,15.917l-3.064,0.496c-1.232,0.199-2.068,1.359-1.869,2.592l0.268,1.656
					c0.199,1.23,1.359,2.068,2.59,1.869l3.066-0.496c1.23-0.199,2.066-1.359,1.867-2.59l-0.268-1.658
					C31.266,16.555,30.107,15.717,28.875,15.917z"/>
				<path fill="#18456D" d="M63.863,20.688c0.166,1.029-0.533,1.998-1.562,2.166l-32.93,5.326c-1.029,0.166-2-0.533-2.166-1.562
					l-1.508-9.318c-0.166-1.029,0.533-2,1.562-2.166l32.93-5.328c1.029-0.166,2,0.533,2.166,1.562L63.863,20.688z"/>
				<path fill="#1B5A89" d="M60.189,9.805l-32.93,5.328c-1.029,0.166-1.729,1.137-1.562,2.166l0.754,4.658
					c0.166,1.029,1.137,1.73,2.166,1.562l32.93-5.326c1.029-0.168,1.729-1.137,1.562-2.166l-0.754-4.66
					C62.189,10.338,61.219,9.639,60.189,9.805z"/>
			</g>
			<path opacity="0.4" fill="#91BDE5" d="M54.684,12.848c0.062,0.387-0.199,0.75-0.586,0.812l-24.814,4.014
				c-0.385,0.062-0.748-0.199-0.811-0.586l0,0c-0.062-0.385,0.199-0.75,0.586-0.812l24.812-4.014
				C54.258,12.2,54.621,12.461,54.684,12.848L54.684,12.848z"/>
			<path opacity="0.4" fill="#91BDE5" d="M57.752,12.352c0.072,0.449-0.232,0.875-0.682,0.947c-0.453,0.072-0.875-0.234-0.947-0.684
				c-0.074-0.451,0.23-0.875,0.682-0.947C57.254,11.596,57.678,11.901,57.752,12.352z"/>
		</g>
	</g>
	<circle fill="#427184" cx="28.411" cy="36" r="3.187"/>
	<circle fill="#FF7F00" cx="28.411" cy="36" r="1.356"/>
	<path fill="#FF4E00" d="M29.371,35.041c0.529,0.529,0.529,1.389,0,1.918c-0.531,0.531-1.391,0.531-1.92,0"/>
	<path fill="#0E1316" d="M21.625,54.861c0,0.75-0.607,1.357-1.357,1.357h-1.652c-0.748,0-1.355-0.607-1.355-1.357l0,0
		c0-0.75,0.607-1.357,1.355-1.357h1.652C21.018,53.504,21.625,54.111,21.625,54.861L21.625,54.861z"/>
	<path fill="#0E1316" d="M39.562,54.861c0,0.75-0.607,1.357-1.357,1.357h-1.652c-0.748,0-1.355-0.607-1.355-1.357l0,0
		c0-0.75,0.607-1.357,1.355-1.357h1.652C38.955,53.504,39.562,54.111,39.562,54.861L39.562,54.861z"/>
	<path fill="#0E1316" d="M30.34,53.916c0,0.664-0.535,1.201-1.199,1.201H27.68c-0.662,0-1.199-0.537-1.199-1.201l0,0
		c0-0.662,0.537-1.199,1.199-1.199h1.461C29.805,52.717,30.34,53.254,30.34,53.916L30.34,53.916z"/>
</g>
</svg>
