<?xml version="1.0" encoding="utf-8"?>
<!-- Generator: Adobe Illustrator 16.0.0, SVG Export Plug-In . SVG Version: 6.00 Build 0)  -->
<!DOCTYPE svg PUBLIC "-//W3C//DTD SVG 1.1//EN" "http://www.w3.org/Graphics/SVG/1.1/DTD/svg11.dtd">
<svg version="1.1" id="Layer_1" xmlns="http://www.w3.org/2000/svg" xmlns:xlink="http://www.w3.org/1999/xlink" x="0px" y="0px"
	 width="66px" height="66px" viewBox="0 0 66 66" enable-background="new 0 0 66 66" xml:space="preserve">
<g>
	<g>
		<path fill="#F4DBC3" d="M33.001,62.724c4.924,0,9.557-1.23,13.625-3.381L45.12,35.884c0-6.691-5.426-13.27-12.119-13.27
			s-12.119,6.578-12.119,13.27l-1.506,23.459C23.446,61.494,28.077,62.724,33.001,62.724z"/>
		<g>
			<path fill="#EACBA9" d="M33.001,62.724c4.924,0,9.557-1.23,13.625-3.381L45.12,35.884c0-6.691-5.426-12.117-12.119-12.117
				s-12.119,5.426-12.119,12.117l-1.506,23.459C23.446,61.494,28.077,62.724,33.001,62.724z"/>
			<path fill="#EAD4B5" d="M21.962,60.55l11.039-36.783c-6.693,0-12.119,5.426-12.119,12.117l-1.506,23.459
				C20.212,59.785,21.077,60.187,21.962,60.55z"/>
			<path fill="#E5BB98" d="M45.119,35.884C45.119,29.193,40,23.767,33,23.767v38.957c5,0,9.557-1.23,13.625-3.381L45.119,35.884z"/>
			<path fill="#F9EDD7" d="M42.019,34.335c0,3.471-4.035,7.996-9.018,7.996s-9.016-4.525-9.016-7.996s4.033-6.289,9.016-6.289
				S42.019,30.865,42.019,34.335z"/>
			<path fill="#F4E6D0" d="M33.001,28.912c-4.773,0-8.641,2.598-8.959,5.869c0.318,3.402,4.186,7.551,8.959,7.551
				c4.775,0,8.639-4.148,8.957-7.551C41.64,31.509,37.776,28.912,33.001,28.912z"/>
			<path fill="#F9EEE1" d="M24.042,34.781c0.168,1.793,1.336,3.775,3.088,5.27l3.961-10.984
				C27.231,29.652,24.315,31.958,24.042,34.781z"/>
			<path fill="#EFD9C2" d="M33.001,42.332c4.775,0,8.639-4.148,8.957-7.551c-0.318-3.271-4.182-5.869-8.957-5.869"/>
			<path fill="#EFD9C2" d="M37.169,41.201c-1.248-0.463-2.648-0.748-4.168-0.748c-1.516,0-2.918,0.285-4.17,0.748
				c1.252,0.68,2.654,1.131,4.17,1.131C34.521,42.332,35.921,41.88,37.169,41.201z"/>
		</g>
	</g>
	<g>
		<path fill="#00C49E" d="M51.625,36.638c-0.827,0-1.5-0.672-1.5-1.5c0-9.442-7.683-17.125-17.125-17.125
			s-17.125,7.683-17.125,17.125c0,0.828-0.672,1.5-1.5,1.5c-0.827,0-1.5-0.672-1.5-1.5c0-11.097,9.028-20.125,20.125-20.125
			s20.125,9.028,20.125,20.125C53.125,35.966,52.452,36.638,51.625,36.638z"/>
	</g>
	<g>
		<path fill="#00C49E" d="M47.827,16.783c-0.256,0-0.512-0.098-0.707-0.293c-7.785-7.785-20.453-7.785-28.238,0
			c-0.391,0.391-1.023,0.391-1.414,0s-0.391-1.023,0-1.414c8.564-8.564,22.502-8.564,31.066,0c0.391,0.391,0.391,1.023,0,1.414
			C48.339,16.685,48.083,16.783,47.827,16.783z"/>
	</g>
	<g>
		<path fill="#00C49E" d="M47.827,10.408c-0.128,0-0.256-0.049-0.354-0.146c-7.98-7.98-20.965-7.98-28.945,0
			c-0.195,0.195-0.512,0.195-0.707,0s-0.195-0.512,0-0.707c8.369-8.371,21.99-8.371,30.359,0c0.195,0.195,0.195,0.512,0,0.707
			C48.083,10.359,47.955,10.408,47.827,10.408z"/>
	</g>
</g>
</svg>
