<?xml version="1.0" encoding="utf-8"?>
<!-- Generator: Adobe Illustrator 16.0.0, SVG Export Plug-In . SVG Version: 6.00 Build 0)  -->
<!DOCTYPE svg PUBLIC "-//W3C//DTD SVG 1.1//EN" "http://www.w3.org/Graphics/SVG/1.1/DTD/svg11.dtd">
<svg version="1.1" id="Layer_1" xmlns="http://www.w3.org/2000/svg" xmlns:xlink="http://www.w3.org/1999/xlink" x="0px" y="0px"
	 width="66px" height="66px" viewBox="0 0 66 66" enable-background="new 0 0 66 66" xml:space="preserve">
<g>
	<rect x="24" y="2" fill="#DDE4E8" width="18" height="25"/>
	<rect x="24" y="4" fill="#B6C3CC" width="18" height="26"/>
	<polyline fill="#A1B5BF" points="24,4 42,4 42,30 	"/>
	<path fill="#FFA515" d="M46,61.923C46,63.54,44.689,64,43.075,64h-20.15C21.311,64,20,63.54,20,61.923V23.899
		C20,22.285,21.311,21,22.925,21h20.15C44.689,21,46,22.285,46,23.899V61.923z"/>
	<path fill="#EF7D16" d="M46,24v37.923C46,63.54,44.689,64,43.075,64h-20.15C21.311,64,20,63.54,20,61.923V24"/>
	<path fill="#D86A0F" d="M46,24v37.923C46,63.54,44.689,64,43.075,64h-20.15C21.311,64,20,63.654,20,62.037"/>
	<g>
		<g>
			<rect x="28" y="9" fill="#869BA3" width="3" height="8"/>
			<rect x="28" y="10" fill="#69848C" width="3" height="7"/>
		</g>
		<g>
			<rect x="35" y="9" fill="#869BA3" width="3" height="8"/>
			<rect x="35" y="10" fill="#69848C" width="3" height="7"/>
		</g>
	</g>
	<g>
		<circle fill="#F4E7BD" cx="25.931" cy="31.821" r="1.502"/>
		<circle fill="#F4E7BD" cx="33" cy="31.821" r="1.502"/>
		<circle fill="#F4E7BD" cx="40.069" cy="31.821" r="1.502"/>
	</g>
	<g>
		<path fill="#F4E7BD" d="M27,44.695C27,44.863,26.863,45,26.695,45h-1.391C25.137,45,25,44.863,25,44.695V34.305
			C25,34.137,25.137,34,25.305,34h1.391C26.863,34,27,34.137,27,34.305V44.695z"/>
		<path fill="#F4E7BD" d="M34,44.695C34,44.863,33.863,45,33.695,45h-1.391C32.137,45,32,44.863,32,44.695V34.305
			C32,34.137,32.137,34,32.305,34h1.391C33.863,34,34,34.137,34,34.305V44.695z"/>
		<path fill="#F4E7BD" d="M41,44.695C41,44.863,40.863,45,40.695,45h-1.391C39.137,45,39,44.863,39,44.695V34.305
			C39,34.137,39.137,34,39.305,34h1.391C40.863,34,41,34.137,41,34.305V44.695z"/>
	</g>
</g>
</svg>
