<?xml version="1.0" encoding="utf-8"?>
<!-- Generator: Adobe Illustrator 16.0.0, SVG Export Plug-In . SVG Version: 6.00 Build 0)  -->
<!DOCTYPE svg PUBLIC "-//W3C//DTD SVG 1.1//EN" "http://www.w3.org/Graphics/SVG/1.1/DTD/svg11.dtd">
<svg version="1.1" id="Layer_1" xmlns="http://www.w3.org/2000/svg" xmlns:xlink="http://www.w3.org/1999/xlink" x="0px" y="0px"
	 width="66px" height="66px" viewBox="0 0 66 66" enable-background="new 0 0 66 66" xml:space="preserve">
<g>
	<g>
		<path fill="#BA6831" d="M30.713,14.838c0.518,4.622-4.501,8.978-11.207,9.729c-6.71,0.748-12.565-2.392-13.082-7.013
			C5.907,12.93,10.65,6.116,17.357,5.366C24.066,4.616,30.195,10.213,30.713,14.838z"/>
		<path fill="#994F1D" d="M30.713,14.838c0.518,4.622-4.501,8.978-11.207,9.729c-6.71,0.748-12.565-2.392-13.082-7.013
			C5.907,12.93,10.778,7.262,17.485,6.512C24.193,5.762,30.195,10.213,30.713,14.838z"/>
		<path fill="#F9C1AC" d="M59.549,22.01c0.984,8.81-9.161,14.43-22.285,15.896c-13.122,1.468-24.261-1.772-25.246-10.584
			c-0.984-8.811,8.858-17.145,21.981-18.613C47.124,7.243,58.564,13.197,59.549,22.01z"/>
		<path fill="#F2B09C" d="M59.549,22.01c0.984,8.81-9.161,14.43-22.285,15.896c-13.122,1.468-24.261-1.772-25.246-10.584"/>
		<path fill="#994F1D" d="M39.564,26.235c-1.988,1.354-11.316-0.066-7.887-5.281c2.633-4.006,8.698,0.158,8.698,0.158
			c-2.957-3.945,1.07-7.289,1.07-7.289L31.261,9.127c-11.724,2.24-20.157,10.008-19.243,18.195
			c0.656,5.871,5.824,9.268,13.083,10.445C40.536,38.307,39.564,26.235,39.564,26.235z"/>
		<g>
			<g>
				<circle fill="#113E49" cx="50.754" cy="19.073" r="1.622"/>
				<path d="M49.142,19.252c0.102,0.893,0.902,1.533,1.792,1.434c0.891-0.102,1.531-0.901,1.433-1.793"/>
				<g>
					<path fill="#FFD3C5" d="M47.949,22.792c0.086-0.01,0.171-0.051,0.229-0.127c0.699-0.875,1.698-1.426,2.807-1.549h0.003
						c1.108-0.125,2.203,0.192,3.074,0.89c0.146,0.118,0.362,0.099,0.479-0.052c0.119-0.145,0.097-0.361-0.053-0.479
						c-1.012-0.814-2.283-1.184-3.577-1.039H50.91c-1.295,0.145-2.454,0.785-3.269,1.803c-0.115,0.145-0.093,0.363,0.054,0.48
						C47.771,22.78,47.859,22.803,47.949,22.792z"/>
				</g>
			</g>
		</g>
		<path fill="#CC753A" d="M27.783,13.393l1.939,2.277l23.993-2.682c-4.769-3.396-12.021-5.887-19.798-5.018
			c-7.78,0.87-14.303,4.9-18.205,9.266l10.686-1.193L27.783,13.393z"/>
		<path fill="#BA6831" d="M27.783,13.393l1.939,2.277l23.993-2.682c-4.769-3.396-11.871-4.548-19.649-3.678
			c-7.778,0.869-14.451,3.561-18.354,7.926l10.686-1.193L27.783,13.393z"/>
	</g>
	<g>
		<g>
			<g>
				<g>
					<g>
						<g>
							<g>
								<path fill="#F2B09C" d="M28.656,40.069c0.015,1.129,0.934,2.029,2.059,2.021l6.241-0.07
									c1.126-0.006,2.029-0.932,2.017-2.057l0,0c-0.012-1.125-0.934-2.027-2.059-2.012l-6.242,0.061
									C29.549,38.026,28.648,38.945,28.656,40.069L28.656,40.069z"/>
								<path fill="#F9C1AC" d="M37.58,41.848c1.049-0.117,6.963-1.645,6.848-2.699c-0.122-1.051-6.229-1.223-7.279-1.105
									c-1.053,0.119-1.809,1.064-1.689,2.117S36.525,41.969,37.58,41.848z"/>
							</g>
						</g>
					</g>
				</g>
			</g>
			<g>
				<g>
					<g>
						<g>
							<ellipse fill="#A1AFB2" cx="16.771" cy="59.166" rx="9.896" ry="1.537"/>
							<g>
								<path fill="#232728" d="M19.105,52.661c-4.946,0-0.5,1-8.114-10.504c-2.993-4.522,10.364-5.079,15.864-5.662
									c7.08-0.752,8.834,5,4.334,10.5C27.837,51.09,25.855,52.661,19.105,52.661z"/>
							</g>
						</g>
					</g>
				</g>
				<g>
					<g>
						<g>
							<g>
								<path fill="#F2B09C" d="M28.264,38.609c-0.334,1.079-1.471,1.681-2.551,1.352l-5.96-1.849
									c-1.079-0.326-1.679-1.471-1.346-2.547l0,0c0.333-1.074,1.474-1.676,2.547-1.342l5.966,1.841
									C27.991,36.397,28.597,37.534,28.264,38.609L28.264,38.609z"/>
								<path fill="#F9C1AC" d="M19.158,37.775c-1.003-0.335-6.474-3.055-6.141-4.061c0.338-1.005,6.346,0.094,7.35,0.423
									c1.008,0.337,1.552,1.417,1.215,2.424C21.246,37.567,20.164,38.108,19.158,37.775z"/>
							</g>
						</g>
					</g>
				</g>
			</g>
		</g>
		<g>
			<g>
				<g>
					<g>
						<g>
							<path fill="#232728" d="M14.518,40.638c-0.543,0.847-2.381,2.198-3.227,1.657l-3.956-4.123
								c-0.844-0.543-1.087-1.664-0.543-2.508l0,0c0.544-0.842,1.668-1.086,2.507-0.544l6.502,2.616
								C16.643,38.278,15.059,39.793,14.518,40.638L14.518,40.638z"/>
						</g>
					</g>
					<path fill="#F9C1AC" d="M7.002,35.434c0.493-0.631,3.135-2.938,3.764-2.443c0.633,0.497-0.982,3.605-1.479,4.237
						c-0.498,0.63-1.41,0.74-2.04,0.245C6.615,36.976,6.508,36.063,7.002,35.434z"/>
				</g>
			</g>
		</g>
		<g>
			<g>
				<g>
					<g>
						<g>
							<path fill="#232728" d="M18.584,47.273c-1.004-0.053-3.176,0.652-3.226,1.655l1.04,5.616
								c-0.051,1.003,0.72,1.854,1.721,1.905l0,0c0.999,0.049,1.854-0.722,1.904-1.719l1.668-6.808
								C21.74,46.924,19.588,47.326,18.584,47.273L18.584,47.273z"/>
						</g>
					</g>
					<path fill="#F9C1AC" d="M16.629,55.423c-0.019,0.801,0.552,4.261,1.352,4.279c0.803,0.02,1.536-3.406,1.556-4.21
						c0.018-0.802-0.618-1.467-1.418-1.486C17.314,53.988,16.65,54.625,16.629,55.423z"/>
				</g>
			</g>
		</g>
	</g>
</g>
</svg>
