<?xml version="1.0" encoding="utf-8"?>
<!-- Generator: Adobe Illustrator 16.0.0, SVG Export Plug-In . SVG Version: 6.00 Build 0)  -->
<!DOCTYPE svg PUBLIC "-//W3C//DTD SVG 1.1//EN" "http://www.w3.org/Graphics/SVG/1.1/DTD/svg11.dtd">
<svg version="1.1" id="Layer_1" xmlns="http://www.w3.org/2000/svg" xmlns:xlink="http://www.w3.org/1999/xlink" x="0px" y="0px"
	 width="66px" height="66px" viewBox="0 0 66 66" enable-background="new 0 0 66 66" xml:space="preserve">
<g>
	<g>
		<g>
			<g>
				<g>
					<ellipse fill="#A1AFB2" cx="33.001" cy="59.775" rx="9.896" ry="1.537"/>
					<g>
						<path fill="#BA6831" d="M45.221,15.586c0,4.65-5.473,8.422-12.221,8.422s-12.221-3.771-12.221-8.422
							c0-4.652,5.473-10.898,12.221-10.898S45.221,10.934,45.221,15.586z"/>
						<path fill="#994F1D" d="M45.221,15.586c0,4.65-5.473,8.422-12.221,8.422s-12.221-3.771-12.221-8.422
							c0-4.652,5.473-9.744,12.221-9.744S45.221,10.934,45.221,15.586z"/>
						<path fill="#232728" d="M42.822,50.936c0,7.119-4.398,8.307-9.822,8.307c-5.422,0-9.822-1.188-9.822-8.307
							s4.4-12.891,9.822-12.891C38.424,38.045,42.822,43.816,42.822,50.936z"/>
						<path fill="#F9C1AC" d="M56.914,25.916c0,8.867-10.709,13.324-23.914,13.324S9.086,34.783,9.086,25.916S19.795,9.861,33,9.861
							S56.914,17.049,56.914,25.916z"/>
						<path fill="#F2B09C" d="M56.914,25.916c0,8.867-10.709,13.324-23.914,13.324S9.086,34.783,9.086,25.916"/>
						<g>
							<g>
								<circle fill="#113E49" cx="24.371" cy="24.727" r="1.623"/>
								<path d="M25.994,24.727c0,0.898-0.727,1.623-1.623,1.623s-1.623-0.725-1.623-1.623"/>
								<g>
									<path fill="#FFD3C5" d="M27.574,28.111c-0.088,0-0.176-0.033-0.244-0.1c-0.791-0.793-1.844-1.229-2.961-1.229h-0.002
										c-1.115,0-2.168,0.436-2.955,1.227c-0.133,0.133-0.35,0.137-0.482,0.002c-0.135-0.131-0.137-0.348-0.004-0.482
										c0.918-0.922,2.141-1.43,3.441-1.43h0.002c1.303,0,2.525,0.506,3.449,1.428c0.131,0.133,0.131,0.354,0,0.484
										C27.75,28.078,27.662,28.111,27.574,28.111z"/>
								</g>
							</g>
							<g>
								<circle fill="#113E49" cx="41.63" cy="24.727" r="1.622"/>
								<path d="M40.008,24.727c0,0.898,0.725,1.623,1.621,1.623s1.623-0.725,1.623-1.623"/>
								<g>
									<path fill="#FFD3C5" d="M38.428,28.111c0.086,0,0.174-0.033,0.242-0.1c0.793-0.793,1.844-1.229,2.961-1.229h0.004
										c1.113,0,2.166,0.436,2.955,1.227c0.133,0.133,0.35,0.137,0.482,0.002c0.135-0.131,0.137-0.348,0.002-0.482
										c-0.916-0.922-2.141-1.43-3.439-1.43h-0.004c-1.303,0-2.523,0.506-3.449,1.428c-0.129,0.133-0.129,0.354,0,0.484
										C38.25,28.078,38.338,28.111,38.428,28.111z"/>
								</g>
							</g>
						</g>
						<path fill="#CC753A" d="M26.303,13.824l1.674,2.479h24.143C47.758,12.398,40.828,9.117,33,9.117
							c-7.826,0-14.758,3.281-19.119,7.186h10.752L26.303,13.824z"/>
						<path fill="#BA6831" d="M26.303,13.824l1.674,2.479h24.143C47.758,12.398,40.828,10.467,33,10.467
							c-7.826,0-14.758,1.932-19.119,5.836h10.752L26.303,13.824z"/>
						<ellipse fill="#A54A53" cx="33" cy="29.637" rx="1.031" ry="1.363"/>
					</g>
				</g>
			</g>
			<g>
				<g>
					<g>
						<g>
							<g>
								<path fill="#232728" d="M30.558,56.01c-0.062-1.002-1.004-3.08-2.008-3.02l-5.465,1.666c-1,0.061-1.761,0.924-1.699,1.924
									l0,0c0.063,1,0.925,1.76,1.924,1.697l6.948,0.893C31.26,59.107,30.62,57.014,30.558,56.01L30.558,56.01z"/>
							</g>
						</g>
					</g>
				</g>
				<g>
					<g>
						<g>
							<g>
								<path fill="#232728" d="M35.443,56.01c0.062-1.002,1.003-3.08,2.006-3.02l5.466,1.666c1,0.061,1.759,0.924,1.699,1.924l0,0
									c-0.064,1-0.927,1.76-1.924,1.697l-6.95,0.893C34.74,59.107,35.38,57.014,35.443,56.01L35.443,56.01z"/>
							</g>
						</g>
					</g>
				</g>
			</g>
		</g>
		<g>
			<g>
				<g>
					<g>
						<path fill="#F2B09C" d="M26.496,43.721c1.096,0.266,1.766,1.363,1.506,2.461l-1.467,6.066c-0.262,1.094-1.362,1.766-2.46,1.5
							l0,0c-1.089-0.264-1.761-1.363-1.499-2.455l1.463-6.07C24.303,44.133,25.4,43.459,26.496,43.721L26.496,43.721z"/>
						<path fill="#F9C1AC" d="M23.417,54.584c-0.929-0.51-5.819-4.166-5.313-5.098c0.51-0.928,6.225,1.23,7.154,1.736
							c0.929,0.51,1.27,1.672,0.758,2.602C25.508,54.754,24.345,55.092,23.417,54.584z"/>
					</g>
				</g>
			</g>
			<g>
				<g>
					<g>
						<path fill="#F2B09C" d="M39.504,43.721c-1.096,0.266-1.766,1.363-1.506,2.461l1.467,6.066c0.262,1.094,1.362,1.766,2.46,1.5
							l0,0c1.089-0.264,1.761-1.363,1.499-2.455l-1.463-6.07C41.697,44.133,40.6,43.459,39.504,43.721L39.504,43.721z"/>
						<path fill="#F9C1AC" d="M42.582,54.584c0.93-0.51,5.82-4.166,5.312-5.098c-0.508-0.928-6.225,1.23-7.152,1.736
							c-0.929,0.51-1.27,1.672-0.758,2.602C40.492,54.754,41.655,55.092,42.582,54.584z"/>
					</g>
				</g>
			</g>
		</g>
	</g>
	<g>
		<path fill="#F9C1AC" d="M32.691,56.916c0.768-0.23,3.877-1.846,3.646-2.611c-0.232-0.77-3.717-0.398-4.484-0.168
			c-0.766,0.23-1.203,1.041-0.973,1.809C31.113,56.713,31.924,57.148,32.691,56.916z"/>
		<path fill="#F9C1AC" d="M33.309,56.916c-0.768-0.23-3.877-1.846-3.646-2.611c0.232-0.77,3.717-0.398,4.484-0.168
			c0.766,0.23,1.203,1.041,0.973,1.809C34.887,56.713,34.076,57.148,33.309,56.916z"/>
	</g>
</g>
</svg>
