<?xml version="1.0" encoding="utf-8"?>
<!-- Generator: Adobe Illustrator 16.0.0, SVG Export Plug-In . SVG Version: 6.00 Build 0)  -->
<!DOCTYPE svg PUBLIC "-//W3C//DTD SVG 1.1//EN" "http://www.w3.org/Graphics/SVG/1.1/DTD/svg11.dtd">
<svg version="1.1" id="Layer_1" xmlns="http://www.w3.org/2000/svg" xmlns:xlink="http://www.w3.org/1999/xlink" x="0px" y="0px"
	 width="66px" height="66px" viewBox="0 0 66 66" enable-background="new 0 0 66 66" xml:space="preserve">
<g>
	<g>
		<g>
			<g>
				<g>
					<g>
						<g>
							<path fill="#F4DBC3" d="M21.769,55.318c3.903,0,7.575-0.976,10.802-2.68L31.376,34.04c0-5.307-4.302-10.521-9.607-10.521
								c-5.307,0-9.608,5.215-9.608,10.521l-1.194,18.599C14.194,54.343,17.864,55.318,21.769,55.318z"/>
							<g>
								<path fill="#EACBA9" d="M21.769,55.318c3.903,0,7.575-0.976,10.802-2.68L31.376,34.04c0-5.307-4.302-9.607-9.607-9.607
									c-5.307,0-9.608,4.301-9.608,9.607l-1.194,18.599C14.194,54.343,17.864,55.318,21.769,55.318z"/>
								<path fill="#EAD4B5" d="M13.016,53.595l8.753-29.162c-5.307,0-9.608,4.301-9.608,9.607l-1.194,18.599
									C11.629,52.988,12.316,53.307,13.016,53.595z"/>
								<path fill="#E5BB98" d="M31.492,34.04c0-5.307-4.492-9.607-9.492-9.607v30.886c4,0,7.518-0.976,10.744-2.68L31.492,34.04z"
									/>
								<path fill="#F9EDD7" d="M28.918,32.812c0,2.751-3.199,6.34-7.149,6.34c-3.949,0-7.148-3.589-7.148-6.34
									c0-2.752,3.199-4.987,7.148-4.987C25.719,27.824,28.918,30.06,28.918,32.812z"/>
								<path fill="#F4E6D0" d="M21.769,28.511c-3.785,0-6.852,2.06-7.104,4.652c0.252,2.698,3.318,5.988,7.104,5.988
									c3.786,0,6.849-3.29,7.101-5.988C28.617,30.57,25.555,28.511,21.769,28.511z"/>
								<path fill="#F9EEE1" d="M14.665,33.163c0.135,1.423,1.06,2.994,2.447,4.179l3.142-8.708
									C17.194,29.097,14.883,30.926,14.665,33.163z"/>
								<path fill="#EFD9C2" d="M21.769,39.151c3.786,0,6.849-3.29,7.101-5.988c-0.252-2.593-3.314-4.652-7.101-4.652"/>
								<path fill="#EFD9C2" d="M25.073,38.254c-0.99-0.367-2.101-0.592-3.305-0.592c-1.203,0-2.313,0.225-3.306,0.592
									c0.992,0.54,2.103,0.897,3.306,0.897C22.973,39.151,24.083,38.794,25.073,38.254z"/>
							</g>
						</g>
					</g>
					<g>
						<g>
							<path fill="#F4DBC3" d="M44.231,55.318c3.904,0,7.576-0.976,10.803-2.68L53.84,34.04c0-5.307-4.302-10.521-9.608-10.521
								c-5.306,0-9.607,5.215-9.607,10.521L33.43,52.639C36.658,54.343,40.328,55.318,44.231,55.318z"/>
							<g>
								<path fill="#EACBA9" d="M44.231,55.318c3.904,0,7.576-0.976,10.803-2.68L53.84,34.04c0-5.307-4.302-9.607-9.608-9.607
									c-5.306,0-9.607,4.301-9.607,9.607L33.43,52.639C36.658,54.343,40.328,55.318,44.231,55.318z"/>
								<path fill="#EAD4B5" d="M35.479,53.595l8.752-29.162c-5.306,0-9.607,4.301-9.607,9.607L33.43,52.639
									C34.093,52.988,34.778,53.307,35.479,53.595z"/>
								<path fill="#E5BB98" d="M53.725,34.04c0-5.307-3.725-9.607-9.725-9.607v30.886c4,0,7.634-0.976,10.86-2.68L53.725,34.04z"/>
								<path fill="#F9EDD7" d="M51.38,32.812c0,2.751-3.197,6.34-7.148,6.34c-3.95,0-7.147-3.589-7.147-6.34
									c0-2.752,3.197-4.987,7.147-4.987C48.183,27.824,51.38,30.06,51.38,32.812z"/>
								<path fill="#F4E6D0" d="M44.231,28.511c-3.784,0-6.851,2.06-7.103,4.652c0.252,2.698,3.318,5.988,7.103,5.988
									c3.787,0,6.85-3.29,7.102-5.988C51.081,30.57,48.019,28.511,44.231,28.511z"/>
								<path fill="#F9EEE1" d="M37.129,33.163c0.133,1.423,1.06,2.994,2.447,4.179l3.142-8.708
									C39.658,29.097,37.347,30.926,37.129,33.163z"/>
								<path fill="#EFD9C2" d="M44.231,39.151c3.787,0,6.85-3.29,7.102-5.988c-0.252-2.593-3.314-4.652-7.102-4.652"/>
								<path fill="#EFD9C2" d="M47.535,38.254c-0.988-0.367-2.099-0.592-3.304-0.592c-1.202,0-2.312,0.225-3.305,0.592
									c0.992,0.54,2.103,0.897,3.305,0.897C45.437,39.151,46.547,38.794,47.535,38.254z"/>
							</g>
						</g>
					</g>
				</g>
			</g>
		</g>
	</g>
	<g>
		<g>
			<g>
				<g>
					<path fill="#0EE236" d="M44.34,20.671c-0.372,0-0.744-0.142-1.027-0.426l-4.569-4.568l4.569-4.569
						c0.567-0.568,1.487-0.568,2.056,0c0.567,0.567,0.567,1.487,0,2.056l-2.513,2.514l2.513,2.513c0.567,0.567,0.567,1.487,0,2.056
						C45.083,20.529,44.712,20.671,44.34,20.671z"/>
				</g>
				<g>
					<path fill="#0EE236" d="M46.359,17H42.57c-0.536,0-0.97-0.464-0.97-1c0-0.535,0.434-1,0.97-1h3.789c0.536,0,0.97,0.465,0.97,1
						C47.329,16.536,46.896,17,46.359,17z"/>
				</g>
			</g>
			<g>
				<g>
					<path fill="#0EE236" d="M20.854,20.671c-0.373,0-0.745-0.142-1.028-0.426c-0.568-0.568-0.568-1.488,0-2.056l2.513-2.515
						l-2.513-2.512c-0.568-0.566-0.568-1.488,0-2.056c0.567-0.568,1.487-0.568,2.056,0l4.57,4.567l-4.57,4.57
						C21.598,20.529,21.225,20.671,20.854,20.671z"/>
				</g>
				<g>
					<path fill="#0EE236" d="M22.625,17h-3.789c-0.536,0-0.97-0.464-0.97-1c0-0.535,0.434-1,0.97-1h3.789c0.536,0,0.97,0.465,0.97,1
						C23.595,16.536,23.161,17,22.625,17z"/>
				</g>
			</g>
		</g>
	</g>
	<g>
		<g>
			<path fill="#00C49E" d="M56.037,47.294c-0.468,0-0.925-0.225-1.208-0.641c-0.448-0.666-0.273-1.569,0.393-2.019
				c3.676-2.484,5.87-6.611,5.87-11.039c0-4.228-1.94-8.108-5.325-10.651c-0.641-0.482-0.771-1.394-0.287-2.036
				c0.482-0.641,1.395-0.771,2.035-0.289C61.638,23.715,64,28.446,64,33.596c0,5.396-2.673,10.423-7.15,13.448
				C56.6,47.213,56.315,47.294,56.037,47.294z"/>
		</g>
		<g>
			<path fill="#00C49E" d="M9.357,47.294c-0.304,0-0.61-0.095-0.872-0.291C4.362,43.905,2,39.177,2,34.027
				c0-5.397,2.673-10.426,7.15-13.451c0.667-0.448,1.569-0.274,2.02,0.393c0.449,0.664,0.274,1.569-0.392,2.018
				c-3.676,2.483-5.87,6.61-5.87,11.041c0,4.225,1.94,8.107,5.324,10.65c0.641,0.482,0.771,1.394,0.288,2.035
				C10.235,47.093,9.799,47.294,9.357,47.294z"/>
		</g>
	</g>
</g>
</svg>
